<?xml version="1.0" encoding="iso-8859-1"?>
<!-- Generator: Adobe Illustrator 19.1.0, SVG Export Plug-In . SVG Version: 6.00 Build 0)  -->
<svg version="1.1" id="Capa_1" xmlns="http://www.w3.org/2000/svg" xmlns:xlink="http://www.w3.org/1999/xlink" x="0px" y="0px"
	 viewBox="0 0 490.9 490.9" style="enable-background:new 0 0 490.9 490.9;" xml:space="preserve">
<g>
	<g>
		<path d="M81.7,273.2c-6.6,0-12,5.4-12,12s5.4,12,12,12h46.1c6.6,0,12-5.4,12-12s-5.4-12-12-12H81.7z"/>
		<path d="M283.8,297.2h46.1c6.6,0,12-5.4,12-12s-5.4-12-12-12h-46.1c-6.6,0-12,5.4-12,12S277.2,297.2,283.8,297.2z"/>
		<path d="M458.4,78.2h-349c-17.9,0-32.5,14.6-32.5,32.5v47.1H24c-13.2,0-24,10.8-24,24v206.9c0,13.2,10.8,24,24,24h366
			c13.2,0,24-10.8,24-24v-55.6h44.4c17.9,0,32.5-14.6,32.5-32.5v-190C490.8,92.7,476.3,78.2,458.4,78.2z M322.8,181.8
			c2.7,36,31.3,64.8,67.2,67.9v71.8c-36,2.7-64.8,31.3-67.9,67.2H91.2c-2.7-36-31.3-64.8-67.2-67.9V249c36-2.7,64.8-31.3,67.9-67.2
			L322.8,181.8L322.8,181.8z M346.8,181.8h43.1v43.8C367.3,222.6,349.4,204.5,346.8,181.8z M67.7,181.8c-2.9,22.6-21,40.6-43.8,43.1
			v-43.1H67.7z M24,344.9c22.6,2.9,40.6,21,43.1,43.8H24V344.9z M346.2,388.6c2.9-22.6,21-40.6,43.8-43.1v43.1H346.2z M466.8,300.6
			c0,4.7-3.8,8.5-8.5,8.5h-44.4V181.8c0-13.2-10.8-24-24-24H100.8v-47.1c0-4.7,3.8-8.5,8.5-8.5h349c4.7,0,8.5,3.8,8.5,8.5V300.6z"/>
		<path d="M196.7,297.1h20.5c5.8,0,10.5,4.7,10.5,10.5s-4.7,10.5-10.5,10.5h-36.8c-6.6,0-12,5.4-12,12s5.4,12,12,12H195v9.7
			c0,6.6,5.4,12,12,12s12-5.4,12-12v-9.7c18.2-0.9,32.7-16,32.7-34.4c0-19-15.5-34.5-34.5-34.5h-20.5c-5.8,0-10.5-4.7-10.5-10.5
			s4.7-10.5,10.5-10.5h36.1c6.6,0,12-5.4,12-12s-5.4-12-12-12h-13.9v-9.4c0-6.6-5.4-12-12-12s-12,5.4-12,12v9.5
			c-18.2,0.9-32.7,16-32.7,34.4C162.3,281.6,177.7,297.1,196.7,297.1z"/>
	</g>
</g>
<g>
</g>
<g>
</g>
<g>
</g>
<g>
</g>
<g>
</g>
<g>
</g>
<g>
</g>
<g>
</g>
<g>
</g>
<g>
</g>
<g>
</g>
<g>
</g>
<g>
</g>
<g>
</g>
<g>
</g>
</svg>
