<?xml version="1.0" encoding="iso-8859-1"?>
<!-- Generator: Adobe Illustrator 19.1.0, SVG Export Plug-In . SVG Version: 6.00 Build 0)  -->
<svg version="1.1" id="Capa_1" xmlns="http://www.w3.org/2000/svg" xmlns:xlink="http://www.w3.org/1999/xlink" x="0px" y="0px"
	 viewBox="0 0 483.2 483.2" style="enable-background:new 0 0 483.2 483.2;" xml:space="preserve">
<g>
	<g>
		<path d="M367.4,182.2H12c-6.6,0-12,5.4-12,12v202.6c0,6.6,5.4,12,12,12h355.4c6.6,0,12-5.4,12-12V194.2
			C379.4,187.6,374,182.2,367.4,182.2z M355.4,384.8H24V206.2h331.4V384.8z"/>
		<path d="M80.8,307.2h29.8c6.6,0,12-5.4,12-12s-5.4-12-12-12H80.8c-6.6,0-12,5.4-12,12S74.1,307.2,80.8,307.2z"/>
		<path d="M419.2,128.1H63.8c-6.6,0-12,5.4-12,12s5.4,12,12,12h343.4v190.6c0,6.6,5.4,12,12,12s12-5.4,12-12V140.1
			C431.2,133.5,425.8,128.1,419.2,128.1z"/>
		<path d="M471.2,74.4H115.8c-6.6,0-12,5.4-12,12s5.4,12,12,12h343.4V289c0,6.6,5.4,12,12,12s12-5.4,12-12V86.4
			C483.2,79.8,477.8,74.4,471.2,74.4z"/>
		<path d="M268.8,307.2h29.8c6.6,0,12-5.4,12-12s-5.4-12-12-12h-29.8c-6.6,0-12,5.4-12,12S262.2,307.2,268.8,307.2z"/>
		<path d="M180.3,307.4h18.8c4.7,0,8.6,3.8,8.6,8.6s-3.8,8.6-8.6,8.6h-33.7c-6.6,0-12,5.4-12,12s5.4,12,12,12h12.3v7.9
			c0,6.6,5.4,12,12,12s12-5.4,12-12v-8c16.7-1.3,30-15.4,30-32.5c0-18-14.6-32.6-32.6-32.6h-18.8c-4.7,0-8.6-3.8-8.6-8.6
			c0-4.7,3.8-8.6,8.6-8.6h33.1c6.6,0,12-5.4,12-12s-5.4-12-12-12h-11.7v-7.6c0-6.6-5.4-12-12-12s-12,5.4-12,12v7.8
			c-16.7,1.3-30,15.4-30,32.5C147.7,292.8,162.3,307.4,180.3,307.4z"/>
	</g>
</g>
<g>
</g>
<g>
</g>
<g>
</g>
<g>
</g>
<g>
</g>
<g>
</g>
<g>
</g>
<g>
</g>
<g>
</g>
<g>
</g>
<g>
</g>
<g>
</g>
<g>
</g>
<g>
</g>
<g>
</g>
</svg>
