<?xml version="1.0" encoding="iso-8859-1"?>
<!-- Generator: Adobe Illustrator 19.1.0, SVG Export Plug-In . SVG Version: 6.00 Build 0)  -->
<svg version="1.1" id="Capa_1" xmlns="http://www.w3.org/2000/svg" xmlns:xlink="http://www.w3.org/1999/xlink" x="0px" y="0px"
	 viewBox="0 0 467.2 467.2" style="enable-background:new 0 0 467.2 467.2;" xml:space="preserve">
<g>
	<g>
		<path d="M455.146,120.9l-91.7-116.3c-2.3-2.9-5.7-4.6-9.4-4.6h-240.8c-3.7,0-7.1,1.7-9.4,4.6l-91.7,116.3
			c-1.7,2.1-2.6,4.7-2.6,7.4v326.9c0,6.6,5.4,12,12,12h424.1c6.6,0,12-5.4,12-12V128.3C457.746,125.6,456.846,123,455.146,120.9z
			 M422.546,118.3h-176.9V24h102.6L422.546,118.3z M119.046,24h102.6v94.3h-176.9L119.046,24z M33.546,443.2V142.3h400.1v300.9
			L33.546,443.2L33.546,443.2z"/>
		<path d="M313.146,214.1c-4.7-4.7-12.3-4.7-17,0L154.246,356c-4.7,4.7-4.7,12.3,0,17c2.3,2.3,5.4,3.5,8.5,3.5s6.1-1.2,8.5-3.5
			l141.9-141.9C317.846,226.4,317.846,218.8,313.146,214.1z"/>
		<path d="M287.046,298.8c-11.2,0-21.7,4.3-29.6,12.2c-16.3,16.3-16.3,42.8,0,59.1c7.9,7.9,18.4,12.2,29.6,12.2s21.7-4.3,29.6-12.2
			s12.2-18.4,12.2-29.6s-4.3-21.7-12.2-29.6S298.146,298.8,287.046,298.8z M299.646,353.2c-3.4,3.4-7.8,5.2-12.6,5.2
			c-4.8,0-9.2-1.9-12.6-5.2c-6.9-6.9-6.9-18.2,0-25.2c3.4-3.4,7.8-5.2,12.6-5.2c4.8,0,9.2,1.9,12.6,5.2s5.2,7.8,5.2,12.6
			C304.846,345.4,302.946,349.8,299.646,353.2z"/>
		<path d="M209.846,276.5c16.3-16.3,16.3-42.8,0-59.1c-7.9-7.9-18.4-12.2-29.6-12.2s-21.7,4.3-29.6,12.2
			c-16.3,16.3-16.3,42.8,0,59.1c7.9,7.9,18.4,12.2,29.6,12.2S201.946,284.4,209.846,276.5z M167.646,234.3c3.4-3.4,7.8-5.2,12.6-5.2
			s9.2,1.9,12.6,5.2c6.9,6.9,6.9,18.2,0,25.2c-3.4,3.4-7.8,5.2-12.6,5.2s-9.2-1.9-12.6-5.2
			C160.746,252.6,160.746,241.3,167.646,234.3z"/>
	</g>
</g>
<g>
</g>
<g>
</g>
<g>
</g>
<g>
</g>
<g>
</g>
<g>
</g>
<g>
</g>
<g>
</g>
<g>
</g>
<g>
</g>
<g>
</g>
<g>
</g>
<g>
</g>
<g>
</g>
<g>
</g>
</svg>
