<?xml version="1.0" encoding="iso-8859-1"?>
<!-- Generator: Adobe Illustrator 19.1.0, SVG Export Plug-In . SVG Version: 6.00 Build 0)  -->
<svg version="1.1" id="Capa_1" xmlns="http://www.w3.org/2000/svg" xmlns:xlink="http://www.w3.org/1999/xlink" x="0px" y="0px"
	 viewBox="0 0 488.8 488.8" style="enable-background:new 0 0 488.8 488.8;" xml:space="preserve">
<g>
	<g>
		<path d="M467.3,172.1c-13.2-14.3-32-22.2-52.9-22.2h-50.3v-27.2c0-6.6-5.4-12-12-12H112.5c-6.6,0-12,5.4-12,12v41.8H53.8
			c-6.6,0-12,5.4-12,12s5.4,12,12,12h58.4c0.1,0,0.2,0,0.3,0c0,0,0,0,0.1,0c6.6,0,12-5.4,12-12v-41.8h215.6v27.2v160.9h-113
			c-0.5,0-1,0-1.5,0.1c-6-14.8-20.5-25.3-37.4-25.3c-17,0-31.5,10.6-37.4,25.5c-0.9-0.2-1.7-0.3-2.6-0.3h-23.7v-41.9
			c0-6.6-5.4-12-12-12c-0.2,0-0.4,0-0.6,0s-0.3,0-0.5,0H53.8c-6.6,0-12,5.4-12,12s5.4,12,12,12h46.7v41.8c0,6.6,5.4,12,12,12h35.7
			c0.3,0,0.5,0,0.8,0c4,18,20.1,31.4,39.3,31.4s35.2-13.4,39.3-31.4h124.6h19.2c4.1,17.9,20.1,31.4,39.3,31.4s35.2-13.4,39.3-31.4
			h26.8c6.6,0,12-5.4,12-12V235C488.8,209.1,481.3,187.3,467.3,172.1z M188.3,354.2c-9,0-16.3-7.3-16.3-16.3s7.3-16.3,16.3-16.3
			s16.3,7.3,16.3,16.3C204.6,346.9,197.3,354.2,188.3,354.2z M410.7,354.2c-9,0-16.3-7.3-16.3-16.3s7.3-16.3,16.3-16.3
			s16.3,7.3,16.3,16.3C426.9,346.9,419.6,354.2,410.7,354.2z M464.8,322.8H448c-6-14.7-20.5-25.2-37.3-25.2s-31.3,10.4-37.3,25.2
			h-9.2V173.9h50.3c31.5,0,50.3,22.9,50.3,61.2V322.8z"/>
		<path d="M206.1,251.2c-4.7,4.7-4.7,12.3,0,17c2.3,2.3,5.4,3.5,8.5,3.5s6.1-1.2,8.5-3.5l30.9-30.9l0.1-0.1c0.2-0.3,0.5-0.5,0.7-0.8
			c0.1-0.2,0.2-0.3,0.3-0.5c0.1-0.2,0.2-0.3,0.4-0.5c0.1-0.2,0.2-0.4,0.3-0.6c0.1-0.2,0.2-0.3,0.3-0.5c0.1-0.2,0.2-0.4,0.3-0.6
			c0.1-0.2,0.2-0.3,0.2-0.5c0.1-0.2,0.1-0.4,0.2-0.6c0.1-0.2,0.1-0.4,0.2-0.5c0.1-0.2,0.1-0.4,0.1-0.6c0-0.2,0.1-0.4,0.1-0.6
			c0-0.2,0.1-0.4,0.1-0.7c0-0.2,0.1-0.3,0.1-0.5c0.1-0.8,0.1-1.6,0-2.4c0-0.2,0-0.3-0.1-0.5c0-0.2-0.1-0.4-0.1-0.7
			c0-0.2-0.1-0.4-0.1-0.6c0-0.2-0.1-0.4-0.1-0.6c-0.1-0.2-0.1-0.4-0.2-0.5c-0.1-0.2-0.1-0.4-0.2-0.6c-0.1-0.2-0.2-0.3-0.2-0.5
			c-0.1-0.2-0.2-0.4-0.3-0.6c-0.1-0.2-0.2-0.3-0.3-0.5c-0.1-0.2-0.2-0.4-0.3-0.6c-0.1-0.2-0.2-0.3-0.4-0.5c-0.1-0.2-0.2-0.3-0.3-0.5
			c-0.2-0.3-0.5-0.5-0.7-0.8l-0.1-0.1l-29.4-29.4c-4.7-4.7-12.3-4.7-17,0s-4.7,12.3,0,17l8.9,8.9H12c-6.6,0-12,5.4-12,12
			s5.4,12,12,12h204.4L206.1,251.2z"/>
	</g>
</g>
<g>
</g>
<g>
</g>
<g>
</g>
<g>
</g>
<g>
</g>
<g>
</g>
<g>
</g>
<g>
</g>
<g>
</g>
<g>
</g>
<g>
</g>
<g>
</g>
<g>
</g>
<g>
</g>
<g>
</g>
</svg>
