<?xml version="1.0" encoding="iso-8859-1"?>
<!-- Generator: Adobe Illustrator 19.1.0, SVG Export Plug-In . SVG Version: 6.00 Build 0)  -->
<svg version="1.1" id="Capa_1" xmlns="http://www.w3.org/2000/svg" xmlns:xlink="http://www.w3.org/1999/xlink" x="0px" y="0px"
	 viewBox="0 0 474 474" style="enable-background:new 0 0 474 474;" xml:space="preserve">
<g>
	<path d="M271.75,224.6h-69.3c-35.3,0-64-28.7-64-64s28.7-64,64-64h122.3c6.6,0,12-5.4,12-12s-5.4-12-12-12h-75.7V12
		c0-6.6-5.4-12-12-12s-12,5.4-12,12v60.6h-22.7c-48.5,0-88,39.5-88,88s39.5,88,88,88h69.3c35.3,0,64,28.7,64,64s-28.7,64-64,64
		h-124.5c-6.6,0-12,5.4-12,12s5.4,12,12,12h77.9V462c0,6.6,5.4,12,12,12s12-5.4,12-12v-61.4h23.3c0.1,0,0.3,0,0.4,0
		c48-0.6,86.9-39.8,86.9-88C359.75,264.1,320.25,224.6,271.75,224.6z"/>
</g>
<g>
</g>
<g>
</g>
<g>
</g>
<g>
</g>
<g>
</g>
<g>
</g>
<g>
</g>
<g>
</g>
<g>
</g>
<g>
</g>
<g>
</g>
<g>
</g>
<g>
</g>
<g>
</g>
<g>
</g>
</svg>
