<?xml version="1.0" encoding="iso-8859-1"?>
<!-- Generator: Adobe Illustrator 19.1.0, SVG Export Plug-In . SVG Version: 6.00 Build 0)  -->
<svg version="1.1" id="Capa_1" xmlns="http://www.w3.org/2000/svg" xmlns:xlink="http://www.w3.org/1999/xlink" x="0px" y="0px"
	 viewBox="0 0 489.8 489.8" style="enable-background:new 0 0 489.8 489.8;" xml:space="preserve">
<g>
	<g>
		<path d="M268.5,286.9h-11.6v-70.5v-9.1h47.7c6.6,0,12-5.4,12-12s-5.4-12-12-12h-47.7V66.1L281.8,91c4.7,4.7,12.3,4.7,17,0
			s4.7-12.3,0-17l-45.3-45.3c-2.3-2.3-5.3-3.5-8.5-3.5s-6.2,1.3-8.5,3.5l-45.4,45.4c-4.7,4.7-4.7,12.3,0,17c2.3,2.3,5.4,3.5,8.5,3.5
			s6.1-1.2,8.5-3.5l24.8-24.9v117.1h-11.6c-35.2,0-63.8,28.6-63.8,63.8s28.6,63.8,63.8,63.8h11.6v69.4v10.2h-49.3
			c-6.6,0-12,5.4-12,12s5.4,12,12,12h49.3v38.1c0,6.6,5.4,12,12,12s12-5.4,12-12v-38.1h11.6c35.2,0,63.8-28.6,63.8-63.8
			S303.7,286.9,268.5,286.9z M221.3,286.9c-21.9,0-39.8-17.9-39.8-39.8s17.9-39.8,39.8-39.8h11.6v9.1v70.5H221.3z M268.5,390.5
			h-11.6v-10.2v-69.4h11.6c21.9,0,39.8,17.9,39.8,39.8C308.3,372.7,290.5,390.5,268.5,390.5z"/>
		<path d="M437.2,281.3h-6.5v-52.4v-4.5h34.7c6.6,0,12-5.4,12-12s-5.4-12-12-12h-34.7v-82.7l14.9,14.9c4.7,4.7,12.3,4.7,17,0
			s4.7-12.3,0-17l-35.4-35.4c-4.7-4.7-12.3-4.7-17,0l-35.5,35.5c-4.7,4.7-4.7,12.3,0,17c2.3,2.3,5.4,3.5,8.5,3.5s6.1-1.2,8.5-3.5
			l14.9-14.9v82.5h-6.5c-28.9,0-52.5,23.5-52.5,52.5s23.5,52.5,52.5,52.5h6.5v51.6v5.3h-35.7c-6.6,0-12,5.4-12,12s5.4,12,12,12h35.9
			v27.2c0,6.6,5.4,12,12,12s12-5.4,12-12v-27.2h6.5c28.9,0,52.5-23.5,52.5-52.5S466.2,281.3,437.2,281.3z M400.3,281.3
			c-15.7,0-28.5-12.8-28.5-28.5s12.8-28.5,28.5-28.5h6.5v4.5v52.4h-6.5V281.3z M437.2,362.2h-6.5v-5.3v-51.6h6.5
			c15.7,0,28.5,12.8,28.5,28.5C465.7,349.4,452.9,362.2,437.2,362.2z"/>
		<path d="M89.5,281.3H83v-52.4v-4.5h34.7c6.6,0,12-5.4,12-12s-5.4-12-12-12H83v-82.7l14.9,14.9c4.7,4.7,12.3,4.7,17,0
			s4.7-12.3,0-17L79.6,80.3c-4.7-4.7-12.3-4.7-17,0l-35.5,35.5c-4.7,4.7-4.7,12.3,0,17c2.3,2.3,5.4,3.5,8.5,3.5s6.1-1.2,8.5-3.5
			L59,117.9v82.5h-6.5C23.6,200.4,0,223.9,0,252.9s23.5,52.5,52.5,52.5H59v51.5v5.3H23.2c-6.6,0-12,5.4-12,12s5.4,12,12,12h35.9
			v27.2c0,6.6,5.4,12,12,12s12-5.4,12-12v-27.2h6.5c28.9,0,52.5-23.5,52.5-52.5S118.4,281.3,89.5,281.3z M52.6,281.3
			c-15.7,0-28.5-12.8-28.5-28.5s12.8-28.5,28.5-28.5h6.5v4.5v52.4h-6.5V281.3z M89.5,362.2H83v-5.3v-51.6h6.5
			c15.7,0,28.5,12.8,28.5,28.5C118,349.4,105.2,362.2,89.5,362.2z"/>
	</g>
</g>
<g>
</g>
<g>
</g>
<g>
</g>
<g>
</g>
<g>
</g>
<g>
</g>
<g>
</g>
<g>
</g>
<g>
</g>
<g>
</g>
<g>
</g>
<g>
</g>
<g>
</g>
<g>
</g>
<g>
</g>
</svg>
