<?xml version="1.0" encoding="iso-8859-1"?>
<!-- Generator: Adobe Illustrator 19.1.0, SVG Export Plug-In . SVG Version: 6.00 Build 0)  -->
<svg version="1.1" id="Capa_1" xmlns="http://www.w3.org/2000/svg" xmlns:xlink="http://www.w3.org/1999/xlink" x="0px" y="0px"
	 viewBox="0 0 449.8 449.8" style="enable-background:new 0 0 449.8 449.8;" xml:space="preserve">
<g>
	<g>
		<path d="M418.45,130h-226.1c-6.6,0-12,5.4-12,12s5.4,12,12,12h226.1c6.6,0,12-5.4,12-12S425.15,130,418.45,130z"/>
		<path d="M192.35,55.4h226.1c6.6,0,12-5.4,12-12s-5.4-12-12-12h-226.1c-6.6,0-12,5.4-12,12S185.75,55.4,192.35,55.4z"/>
		<path d="M418.45,228.6H39.35c-6.6,0-12,5.4-12,12s5.4,12,12,12h379.1c6.6,0,12-5.4,12-12S425.15,228.6,418.45,228.6z"/>
		<path d="M418.45,327.2H39.35c-6.6,0-12,5.4-12,12s5.4,12,12,12h379.1c6.6,0,12-5.4,12-12S425.15,327.2,418.45,327.2z"/>
		<path d="M418.45,425.8H39.35c-6.6,0-12,5.4-12,12s5.4,12,12,12h379.1c6.6,0,12-5.4,12-12S425.15,425.8,418.45,425.8z"/>
		<path d="M62.05,114.7h28c10.3,0,18.7,8.4,18.7,18.7c0,10.3-8.4,18.7-18.7,18.7h-50.3c-6.6,0-12,5.4-12,12s5.4,12,12,12h24.3v17.6
			c0,6.6,5.4,12,12,12s12-5.4,12-12v-17.6h2.3c0.1,0,0.2,0,0.3,0c23.3-0.3,42.1-19.3,42.1-42.7c0-23.5-19.1-42.7-42.7-42.7h-28
			c-10.3,0-18.7-8.4-18.7-18.7s8.4-18.7,18.7-18.7h49.4c6.6,0,12-5.4,12-12s-5.4-12-12-12h-23.4V12c0-6.6-5.4-12-12-12
			s-12,5.4-12,12v17.3h-2c-23.5,0-42.7,19.1-42.7,42.7C19.45,95.5,38.55,114.7,62.05,114.7z"/>
	</g>
</g>
<g>
</g>
<g>
</g>
<g>
</g>
<g>
</g>
<g>
</g>
<g>
</g>
<g>
</g>
<g>
</g>
<g>
</g>
<g>
</g>
<g>
</g>
<g>
</g>
<g>
</g>
<g>
</g>
<g>
</g>
</svg>
