<?xml version="1.0" encoding="iso-8859-1"?>
<!-- Generator: Adobe Illustrator 19.1.0, SVG Export Plug-In . SVG Version: 6.00 Build 0)  -->
<svg version="1.1" id="Capa_1" xmlns="http://www.w3.org/2000/svg" xmlns:xlink="http://www.w3.org/1999/xlink" x="0px" y="0px"
	 viewBox="0 0 478.4 478.4" style="enable-background:new 0 0 478.4 478.4;" xml:space="preserve">
<g>
	<g>
		<path d="M261,226.95h-43.6c-19.7,0-35.8-16.1-35.8-35.8s16.1-35.8,35.8-35.8h76.9c6.6,0,12-5.4,12-12s-5.4-12-12-12h-43.1v-33.6
			c0-6.6-5.4-12-12-12s-12,5.4-12,12v33.6h-9.8c-33,0-59.8,26.8-59.8,59.8s26.8,59.8,59.8,59.8H261c19.7,0,35.8,16.1,35.8,35.8
			s-16.1,35.8-35.8,35.8h-78.3c-6.6,0-12,5.4-12,12s5.4,12,12,12h44.5v34.1c0,6.6,5.4,12,12,12s12-5.4,12-12v-34.1h10.2
			c0.1,0,0.2,0,0.3,0c32.6-0.4,59-27.1,59-59.8C320.8,253.85,294,226.95,261,226.95z"/>
		<path d="M80.4,227.05H47.7c-13.1,0-23.8-10.7-23.8-23.8s10.7-23.8,23.8-23.8h57.5c6.6,0,12-5.4,12-12s-5.4-12-12-12H76.1v-22.1
			c0-6.6-5.4-12-12-12c-6.6,0-12,5.4-12,12v22.1h-4.3c-26.3,0-47.8,21.4-47.8,47.8s21.4,47.8,47.8,47.8h32.6
			c13.1,0,23.8,10.7,23.8,23.8s-10.7,23.8-23.8,23.8H21.7c-6.6,0-12,5.4-12,12s5.4,12,12,12H52v22.5c0,6.6,5.4,12,12,12
			c6.6,0,12-5.4,12-12v-22.5h4.6c0.1,0,0.2,0,0.3,0c26-0.3,47.1-21.6,47.1-47.8C128.1,248.45,106.7,227.05,80.4,227.05z"/>
		<path d="M430.7,227.05h-32.6c-13.1,0-23.8-10.7-23.8-23.8s10.7-23.8,23.8-23.8h57.5c6.6,0,12-5.4,12-12s-5.4-12-12-12h-29.2v-22.1
			c0-6.6-5.4-12-12-12s-12,5.4-12,12v22.1h-4.3c-26.3,0-47.8,21.4-47.8,47.8s21.4,47.8,47.8,47.8h32.6c13.1,0,23.8,10.7,23.8,23.8
			s-10.7,23.8-23.8,23.8h-58.6c-6.6,0-12,5.4-12,12s5.4,12,12,12h30.3v22.5c0,6.6,5.4,12,12,12s12-5.4,12-12v-22.5h4.6
			c0.1,0,0.2,0,0.3,0c26-0.3,47.1-21.6,47.1-47.8C478.4,248.45,457,227.05,430.7,227.05z"/>
	</g>
</g>
<g>
</g>
<g>
</g>
<g>
</g>
<g>
</g>
<g>
</g>
<g>
</g>
<g>
</g>
<g>
</g>
<g>
</g>
<g>
</g>
<g>
</g>
<g>
</g>
<g>
</g>
<g>
</g>
<g>
</g>
</svg>
