<?xml version="1.0" encoding="iso-8859-1"?>
<!-- Generator: Adobe Illustrator 19.1.0, SVG Export Plug-In . SVG Version: 6.00 Build 0)  -->
<svg version="1.1" id="Capa_1" xmlns="http://www.w3.org/2000/svg" xmlns:xlink="http://www.w3.org/1999/xlink" x="0px" y="0px"
	 viewBox="0 0 484.9 484.9" style="enable-background:new 0 0 484.9 484.9;" xml:space="preserve">
<g>
	<g>
		<path d="M329.35,345.1l-75-43.3v-86.6c0-6.6-5.4-12-12-12s-12,5.4-12,12v86.6l-75,43.3c-5.7,3.3-7.7,10.7-4.4,16.4
			c2.2,3.9,6.3,6,10.4,6c2,0,4.1-0.5,6-1.6l75-43.3l75,43.3c1.9,1.1,4,1.6,6,1.6c4.1,0,8.2-2.2,10.4-6
			C337.05,355.8,335.05,348.4,329.35,345.1z"/>
		<path d="M230.15,103.3h24.5c8.2,0,14.8,6.7,14.8,14.8s-6.7,14.8-14.8,14.8h-44c-6.6,0-12,5.4-12,12s5.4,12,12,12h19.7v13.9
			c0,6.6,5.4,12,12,12s12-5.4,12-12v-13.9h0.5c0.1,0,0.2,0,0.3,0c21.2-0.3,38.3-17.6,38.3-38.8c0-21.4-17.4-38.8-38.8-38.8h-24.5
			c-8.2,0-14.8-6.7-14.8-14.8s6.7-14.8,14.8-14.8h43.2c6.6,0,12-5.4,12-12s-5.4-12-12-12h-19V12c0-6.6-5.4-12-12-12s-12,5.4-12,12
			v13.6h-0.2c-21.4,0-38.8,17.4-38.8,38.8S208.75,103.3,230.15,103.3z"/>
		<path d="M415.75,368.5h-24.5c-8.2,0-14.8-6.7-14.8-14.8s6.7-14.8,14.8-14.8h43.2c6.6,0,12-5.4,12-12s-5.4-12-12-12h-18.9v-13.6
			c0-6.6-5.4-12-12-12s-12,5.4-12,12v13.6h-0.2c-21.4,0-38.8,17.4-38.8,38.8s17.4,38.8,38.8,38.8h24.5c8.2,0,14.8,6.7,14.8,14.8
			s-6.7,14.8-14.8,14.8h-44c-6.6,0-12,5.4-12,12s5.4,12,12,12h19.7V460c0,6.6,5.4,12,12,12s12-5.4,12-12v-13.9h0.5
			c0.1,0,0.2,0,0.3,0c21.2-0.3,38.3-17.6,38.3-38.8C454.55,385.9,437.15,368.5,415.75,368.5z"/>
		<path d="M93.45,381.4h-24.5c-8.2,0-14.8-6.7-14.8-14.8s6.7-14.8,14.8-14.8h43.2c6.6,0,12-5.4,12-12s-5.4-12-12-12h-18.9v-13.6
			c0-6.6-5.4-12-12-12s-12,5.4-12,12v13.6h-0.2c-21.4,0-38.8,17.4-38.8,38.8s17.4,38.8,38.8,38.8h24.5c8.2,0,14.8,6.7,14.8,14.8
			s-6.7,14.8-14.8,14.8h-44c-6.6,0-12,5.4-12,12s5.4,12,12,12h19.7v13.9c0,6.6,5.4,12,12,12s12-5.4,12-12V459h0.5c0.1,0,0.2,0,0.3,0
			c21.2-0.3,38.3-17.6,38.3-38.8C132.25,398.9,114.85,381.4,93.45,381.4z"/>
	</g>
</g>
<g>
</g>
<g>
</g>
<g>
</g>
<g>
</g>
<g>
</g>
<g>
</g>
<g>
</g>
<g>
</g>
<g>
</g>
<g>
</g>
<g>
</g>
<g>
</g>
<g>
</g>
<g>
</g>
<g>
</g>
</svg>
