<?xml version="1.0" encoding="iso-8859-1"?>
<!-- Generator: Adobe Illustrator 19.1.0, SVG Export Plug-In . SVG Version: 6.00 Build 0)  -->
<svg version="1.1" id="Capa_1" xmlns="http://www.w3.org/2000/svg" xmlns:xlink="http://www.w3.org/1999/xlink" x="0px" y="0px"
	 viewBox="0 0 486.1 486.1" style="enable-background:new 0 0 486.1 486.1;" xml:space="preserve">
<g>
	<g>
		<path d="M445.5,0H40.7C18.3,0,0,18.3,0,40.7v404.7c0,22.4,18.3,40.7,40.7,40.7h404.7c22.4,0,40.7-18.3,40.7-40.7V40.7
			C486.2,18.3,467.9,0,445.5,0z M462.2,445.5c0,9.2-7.5,16.7-16.7,16.7H40.7c-9.2,0-16.7-7.5-16.7-16.7V40.7
			C24,31.5,31.5,24,40.7,24h404.7c9.2,0,16.7,7.5,16.7,16.7v404.8H462.2z"/>
		<path d="M193,300.6c-4.7-4.7-12.3-4.7-17,0l-36.1,36.1l-36.1-36.1c-4.7-4.7-12.3-4.7-17,0s-4.7,12.3,0,17l36.1,36.1l-36.1,36.1
			c-4.7,4.7-4.7,12.3,0,17c2.3,2.3,5.4,3.5,8.5,3.5c3.1,0,6.1-1.2,8.5-3.5l36.1-36.1l36.1,36.1c2.3,2.3,5.4,3.5,8.5,3.5
			s6.1-1.2,8.5-3.5c4.7-4.7,4.7-12.3,0-17l-36.1-36.1l36.1-36.1C197.7,312.9,197.7,305.3,193,300.6z"/>
		<path d="M203,131.7h-51v-51c0-6.6-5.4-12-12-12s-12,5.4-12,12v51H77c-6.6,0-12,5.4-12,12s5.4,12,12,12h51v51c0,6.6,5.4,12,12,12
			s12-5.4,12-12v-51h51c6.6,0,12-5.4,12-12S209.6,131.7,203,131.7z"/>
		<path d="M403.9,371.1H296.4c-6.6,0-12,5.4-12,12s5.4,12,12,12h107.4c6.6,0,12-5.4,12-12S410.5,371.1,403.9,371.1z"/>
		<path d="M403.9,312.2H296.4c-6.6,0-12,5.4-12,12s5.4,12,12,12h107.4c6.6,0,12-5.4,12-12S410.5,312.2,403.9,312.2z"/>
		<path d="M394.6,155.7c6.6,0,12-5.4,12-12s-5.4-12-12-12H287.1c-6.6,0-12,5.4-12,12s5.4,12,12,12H394.6z"/>
	</g>
</g>
<g>
</g>
<g>
</g>
<g>
</g>
<g>
</g>
<g>
</g>
<g>
</g>
<g>
</g>
<g>
</g>
<g>
</g>
<g>
</g>
<g>
</g>
<g>
</g>
<g>
</g>
<g>
</g>
<g>
</g>
</svg>
