<?xml version="1.0" encoding="iso-8859-1"?>
<!-- Generator: Adobe Illustrator 19.1.0, SVG Export Plug-In . SVG Version: 6.00 Build 0)  -->
<svg version="1.1" id="Capa_1" xmlns="http://www.w3.org/2000/svg" xmlns:xlink="http://www.w3.org/1999/xlink" x="0px" y="0px"
	 viewBox="0 0 482.148 482.148" style="enable-background:new 0 0 482.148 482.148;" xml:space="preserve">
<g>
	<g>
		<path d="M462.024,374.824l-83.7,74.8h-99.1v-24.4h96.4c3,0,5.8-1.1,8-3.1l94.4-85.1c4.9-4.4,5.3-12,0.9-16.9s-12-5.3-16.9-0.9
			l-91,82.1h-91.8v-24.4h84.9c3,0,5.9-1.1,8.1-3.1l106-96.7c3.7-3.3,4.9-8.6,3.1-13.2s-6.2-7.7-11.2-7.7h-352.2
			c-3,0-5.9,1.1-8.1,3.1l-105.9,96.7c-3.7,3.3-4.9,8.6-3.1,13.2s6.2,7.7,11.2,7.7h100.3v24.4h-100.3c-6.6,0-12,5.4-12,12
			s5.4,12,12,12h100.3v24.4h-100.3c-6.6,0-12,5.4-12,12s5.4,12,12,12h112.3h143h115.7c3,0,5.8-1.1,8-3.1l87.1-77.9
			c4.9-4.4,5.4-12,0.9-16.9C474.524,370.824,466.924,370.424,462.024,374.824z M331.024,280.124l-79.7,72.7h-98.7l79.7-72.7
			L331.024,280.124L331.024,280.124z M359.424,352.924h-72.5l79.7-72.7h72.5L359.424,352.924z M122.624,280.124h74l-79.7,72.7h-74
			L122.624,280.124z M136.224,449.624v-72.7h119v72.7L136.224,449.624L136.224,449.624z"/>
		<path d="M227.324,129.124h29.9c11.4,0,20.7,9.3,20.7,20.7s-9.3,20.7-20.7,20.7h-53.6c-6.6,0-12,5.4-12,12s5.4,12,12,12h26.7v19.6
			c0,6.6,5.4,12,12,12c6.6,0,12-5.4,12-12v-19.6h3.2c0.1,0,0.2,0,0.3,0c24.4-0.3,44.1-20.3,44.1-44.7c0-24.7-20.1-44.7-44.7-44.7
			h-29.9c-11.4,0-20.7-9.3-20.7-20.7s9.3-20.7,20.7-20.7h52.7c6.6,0,12-5.4,12-12s-5.4-12-12-12h-25.7v-19.3c0-6.6-5.4-12-12-12
			s-12,5.4-12,12v19.2h-2.9c-24.7,0-44.7,20.1-44.7,44.7S202.624,129.124,227.324,129.124z"/>
	</g>
</g>
<g>
</g>
<g>
</g>
<g>
</g>
<g>
</g>
<g>
</g>
<g>
</g>
<g>
</g>
<g>
</g>
<g>
</g>
<g>
</g>
<g>
</g>
<g>
</g>
<g>
</g>
<g>
</g>
<g>
</g>
</svg>
