<?xml version="1.0" encoding="iso-8859-1"?>
<!-- Generator: Adobe Illustrator 19.1.0, SVG Export Plug-In . SVG Version: 6.00 Build 0)  -->
<svg version="1.1" id="Capa_1" xmlns="http://www.w3.org/2000/svg" xmlns:xlink="http://www.w3.org/1999/xlink" x="0px" y="0px"
	 viewBox="0 0 478.4 478.4" style="enable-background:new 0 0 478.4 478.4;" xml:space="preserve">
<g>
	<g>
		<path d="M466.4,24.45H12c-6.6,0-12,5.4-12,12v321.8c0,6.6,5.4,12,12,12h215.2v59.7H142c-6.6,0-12,5.4-12,12s5.4,12,12,12h194.4
			c6.6,0,12-5.4,12-12s-5.4-12-12-12h-85.2v-59.7h215.2c6.6,0,12-5.4,12-12V36.45C478.4,29.85,473.1,24.45,466.4,24.45z
			 M454.4,346.25H24V48.45h430.5v297.8H454.4z"/>
		<path d="M224.6,213.15h30.8c12,0,21.8,9.8,21.8,21.8c0,12-9.8,21.8-21.8,21.8H200c-6.6,0-12,5.4-12,12s5.4,12,12,12h28v20.6
			c0,6.6,5.4,12,12,12s12-5.4,12-12v-20.6h3.7c0.1,0,0.2,0,0.3,0c25-0.3,45.2-20.8,45.2-45.8c0-25.3-20.5-45.8-45.8-45.8h-30.8
			c-12,0-21.8-9.8-21.8-21.8s9.8-21.8,21.8-21.8H279c6.6,0,12-5.4,12-12s-5.4-12-12-12h-27v-20.3c0-6.6-5.4-12-12-12s-12,5.4-12,12
			v20.3h-3.4c-25.3,0-45.8,20.5-45.8,45.8C178.8,192.55,199.3,213.15,224.6,213.15z"/>
	</g>
</g>
<g>
</g>
<g>
</g>
<g>
</g>
<g>
</g>
<g>
</g>
<g>
</g>
<g>
</g>
<g>
</g>
<g>
</g>
<g>
</g>
<g>
</g>
<g>
</g>
<g>
</g>
<g>
</g>
<g>
</g>
</svg>
