<?xml version="1.0" encoding="iso-8859-1"?>
<!-- Generator: Adobe Illustrator 19.1.0, SVG Export Plug-In . SVG Version: 6.00 Build 0)  -->
<svg version="1.1" id="Capa_1" xmlns="http://www.w3.org/2000/svg" xmlns:xlink="http://www.w3.org/1999/xlink" x="0px" y="0px"
	 viewBox="0 0 478.701 478.701" style="enable-background:new 0 0 478.701 478.701;" xml:space="preserve">
<g>
	<g>
		<path d="M162.2,195.651v-89.1c0-6.6-5.4-12-12-12h-13.3v-22.3c0-30.7-25-55.7-55.7-55.7s-55.8,25-55.8,55.7v22.3H12
			c-6.6,0-12,5.4-12,12v89.1c0,6.6,5.4,12,12,12h138.1C156.8,207.651,162.2,202.251,162.2,195.651z M49.4,72.251
			c0-17.5,14.2-31.7,31.7-31.7s31.7,14.2,31.7,31.7v22.3H49.4V72.251z M138.2,183.651H24v-65.1h114.1v65.1H138.2z"/>
		<path d="M466.8,94.051H189.3c-6.6,0-12,5.4-12,12c0,6.6,5.4,12,12,12h265.5v249.1H93.1v-133.1c0-6.6-5.4-12-12-12s-12,5.4-12,12
			v145.1c0,6.6,5.4,12,12,12h180.8v47h-70.5c-6.6,0-12,5.4-12,12s5.4,12,12,12h165c6.6,0,12-5.4,12-12s-5.4-12-12-12h-70.5v-47
			h180.8c6.6,0,12-5.4,12-12v-273.1C478.8,99.451,473.4,94.051,466.8,94.051z"/>
		<path d="M273.9,145.051c-6.6,0-12,5.4-12,12v15.6h-1.2c-22.6,0-40.9,18.4-40.9,40.9c0,22.6,18.4,40.9,40.9,40.9h26.4
			c9.3,0,16.9,7.6,16.9,16.9s-7.6,16.9-16.9,16.9h-47.4c-6.6,0-12,5.4-12,12s5.4,12,12,12h22.2v15.9c0,6.6,5.4,12,12,12
			s12-5.4,12-12v-15.9h1.4c0.1,0,0.2,0,0.3,0c22.3-0.3,40.4-18.5,40.4-40.9c0-22.6-18.4-40.9-40.9-40.9h-26.4
			c-9.3,0-16.9-7.6-16.9-16.9c0-9.3,7.6-16.9,16.9-16.9h46.5c6.6,0,12-5.4,12-12s-5.4-12-12-12h-21.3v-15.6
			C285.9,150.351,280.6,145.051,273.9,145.051z"/>
	</g>
</g>
<g>
</g>
<g>
</g>
<g>
</g>
<g>
</g>
<g>
</g>
<g>
</g>
<g>
</g>
<g>
</g>
<g>
</g>
<g>
</g>
<g>
</g>
<g>
</g>
<g>
</g>
<g>
</g>
<g>
</g>
</svg>
