<?xml version="1.0" encoding="iso-8859-1"?>
<!-- Generator: Adobe Illustrator 19.1.0, SVG Export Plug-In . SVG Version: 6.00 Build 0)  -->
<svg version="1.1" id="Capa_1" xmlns="http://www.w3.org/2000/svg" xmlns:xlink="http://www.w3.org/1999/xlink" x="0px" y="0px"
	 viewBox="0 0 467.2 467.2" style="enable-background:new 0 0 467.2 467.2;" xml:space="preserve">
<g>
	<g>
		<path d="M455.146,120.9l-91.7-116.3c-2.3-2.9-5.7-4.6-9.4-4.6h-240.8c-3.7,0-7.2,1.7-9.4,4.6l-91.7,116.3
			c-1.7,2.1-2.6,4.7-2.6,7.4v326.9c0,6.6,5.4,12,12,12h424.1c6.6,0,12-5.4,12-12V128.3C457.746,125.6,456.846,123,455.146,120.9z
			 M422.546,118.3h-176.9V24h102.6L422.546,118.3z M119.046,24h102.6v94.3h-176.9L119.046,24z M33.546,443.2V142.3h400.1v300.9
			L33.546,443.2L33.546,443.2z"/>
		<path d="M248.046,283h-28.8c-10.8,0-19.6-8.8-19.6-19.6c0-10.8,8.8-19.6,19.6-19.6h50.9c6.6,0,12-5.4,12-12s-5.4-12-12-12h-24.5
			v-18.2c0-6.6-5.4-12-12-12s-12,5.4-12,12v18.2h-2.4c-24,0-43.6,19.6-43.6,43.6s19.6,43.6,43.6,43.6h28.8
			c10.8,0,19.6,8.8,19.6,19.6c0,10.8-8.8,19.6-19.6,19.6h-51.8c-6.6,0-12,5.4-12,12s5.4,12,12,12h25.4v18.5c0,6.6,5.4,12,12,12
			s12-5.4,12-12v-18.5h2.7c0.1,0,0.2,0,0.3,0c23.8-0.3,43-19.8,43-43.6C291.646,302.6,272.146,283,248.046,283z"/>
	</g>
</g>
<g>
</g>
<g>
</g>
<g>
</g>
<g>
</g>
<g>
</g>
<g>
</g>
<g>
</g>
<g>
</g>
<g>
</g>
<g>
</g>
<g>
</g>
<g>
</g>
<g>
</g>
<g>
</g>
<g>
</g>
</svg>
