<?xml version="1.0" encoding="iso-8859-1"?>
<!-- Generator: Adobe Illustrator 19.1.0, SVG Export Plug-In . SVG Version: 6.00 Build 0)  -->
<svg version="1.1" id="Capa_1" xmlns="http://www.w3.org/2000/svg" xmlns:xlink="http://www.w3.org/1999/xlink" x="0px" y="0px"
	 viewBox="0 0 467.2 467.2" style="enable-background:new 0 0 467.2 467.2;" xml:space="preserve">
<g>
	<g>
		<path d="M342.146,306.2h-16.9v-31.4c0-6.6-5.4-12-12-12s-12,5.4-12,12v31.4h-42.1l36.2-84.5c2.6-6.1-0.2-13.1-6.3-15.8
			c-6.1-2.6-13.1,0.2-15.8,6.3l-43.4,101.3c-1.6,3.7-1.2,8,1,11.3s6,5.4,10,5.4h60.3v31.4c0,6.6,5.4,12,12,12s12-5.4,12-12v-31.4
			h16.9c6.6,0,12-5.4,12-12S348.746,306.2,342.146,306.2z"/>
		<path d="M211.946,349.6h-60.9l44.6-52.6l1.1-1.2c0-0.1,0.1-0.1,0.1-0.2c8.1-9.9,12.6-22.4,12.6-35.2c0-30.5-24.9-55.4-55.4-55.4
			c-8.7,0-17.3,2.1-25,6c-5.9,3-8.3,10.2-5.3,16.1c3,5.9,10.2,8.3,16.1,5.3c4.4-2.2,9.2-3.4,14.2-3.4c17.3,0,31.4,14.1,31.4,31.4
			c0,7.3-2.4,14.2-7.1,19.8l-62.4,73.5c-3,3.6-3.7,8.6-1.7,12.8c2,4.2,6.2,7,10.9,7h86.8c6.6,0,12-5.4,12-12
			S218.546,349.6,211.946,349.6z"/>
		<path d="M455.146,120.9l-91.7-116.3c-2.3-2.9-5.7-4.6-9.4-4.6h-240.8c-3.7,0-7.1,1.7-9.4,4.6l-91.7,116.3
			c-1.7,2.1-2.6,4.7-2.6,7.4v326.9c0,6.6,5.4,12,12,12h424.1c6.6,0,12-5.4,12-12V128.3C457.746,125.6,456.846,123,455.146,120.9z
			 M422.546,118.3h-176.9V24h102.6L422.546,118.3z M119.046,24h102.6v94.3h-176.9L119.046,24z M33.546,443.2V142.3h400.1v300.9
			L33.546,443.2L33.546,443.2z"/>
	</g>
</g>
<g>
</g>
<g>
</g>
<g>
</g>
<g>
</g>
<g>
</g>
<g>
</g>
<g>
</g>
<g>
</g>
<g>
</g>
<g>
</g>
<g>
</g>
<g>
</g>
<g>
</g>
<g>
</g>
<g>
</g>
</svg>
