<?xml version="1.0" encoding="iso-8859-1"?>
<!-- Generator: Adobe Illustrator 19.1.0, SVG Export Plug-In . SVG Version: 6.00 Build 0)  -->
<svg version="1.1" id="Capa_1" xmlns="http://www.w3.org/2000/svg" xmlns:xlink="http://www.w3.org/1999/xlink" x="0px" y="0px"
	 viewBox="0 0 486.701 486.701" style="enable-background:new 0 0 486.701 486.701;" xml:space="preserve">
<g>
	<g>
		<path d="M288,421.189h-19.3v-14.9c0-3.5-1.5-6.8-4.1-9c-2.6-2.3-6.1-3.3-9.5-2.9c-9,1.2-18.2,1.8-27.4,1.8
			c-7.1,0-14.4-0.4-21.5-1.1c-3.4-0.4-6.8,0.7-9.3,3s-4,5.5-4,8.9v14.1h-62.8v-14.9c0-0.1,0-0.2,0-0.3c-0.2-7.2-2.6-32.3-26-53.5
			c-0.1-0.1-0.2-0.2-0.3-0.2c-0.8-0.7-1.6-1.4-2.4-2.1l-0.1-0.1c-0.1-0.1-0.1-0.1-0.2-0.2c-21-18.6-36.3-41.9-44-67.2
			c-1.5-5-6.2-8.5-11.5-8.5H31.9c-4.3,0-7.8-3.5-7.8-7.8v-48.8c0-4.3,3.5-7.8,7.8-7.8h14.3c5.2,0.1,10-3.2,11.6-8.3
			c8.8-26.8,25.9-51,49.6-70.1c2.7-2.2,4.3-5.5,4.5-9c5.2-18.2,1.7-37.8-10-56.7c29,3.7,44.2,17.9,51.8,29.1c3,4.4,8.5,6.3,13.6,4.7
			c19.4-6.1,39.7-9.2,60.5-9.2c76.6,0,144.1,42.4,167.9,105.5c1.9,5,3.5,10.1,4.7,15.2c0.8,3.3,1.5,6.6,2.1,9.8
			c1.1,6.5,7.3,10.9,13.8,9.8c6.5-1.1,10.9-7.3,9.8-13.8c-0.7-3.9-1.5-7.8-2.4-11.6c-1.5-6-3.4-12-5.6-17.9
			c-27.3-72.4-103.8-121-190.3-121c-20.3,0-40.3,2.7-59.6,7.9c-11.5-13.8-31.2-28.4-63.7-32.4c-9.2-1.1-18.1,3-23.1,10.8
			s-5,17.6-0.1,25.5c8.2,13.1,10.8,25.7,7.5,37.4c-23.1,19.6-40.5,43.6-50.9,70.2h-6.1c-17.5,0-31.8,14.3-31.8,31.8v48.8
			c0,17.5,14.3,31.8,31.8,31.8h5.1c9.6,26,26,49.8,47.9,69.4c0.2,0.2,0.4,0.4,0.7,0.6l0,0c0.1,0.1,0.1,0.1,0.2,0.2
			c0.8,0.7,1.6,1.4,2.5,2.1c16.5,15,17.9,32.4,18,36.1v16c0,12.5,10.2,22.7,22.7,22.7h65.4c12.5,0,22.7-10.2,22.7-22.7v-2.5
			c9.3,0.4,18.6,0.3,27.8-0.4v2.8c0,12.5,10.2,22.7,22.7,22.7h20.6c6.6,0,12-5.4,12-12S294.6,421.189,288,421.189z"/>
		<path d="M474.8,326.889H460v-24.3c0-32.1-26.1-58.3-58.3-58.3s-58.3,26.1-58.3,58.3v24.3h-14.8c-6.6,0-12,5.4-12,12v94.3
			c0,6.6,5.4,12,12,12h146.1c6.6,0,12-5.4,12-12v-94.3C486.8,332.289,481.4,326.889,474.8,326.889z M367.4,302.589
			c0-18.9,15.4-34.3,34.3-34.3s34.3,15.4,34.3,34.3v24.3h-68.5v-24.3H367.4z M462.8,421.189H340.6v-70.3h122.1v70.3H462.8z"/>
	</g>
</g>
<g>
</g>
<g>
</g>
<g>
</g>
<g>
</g>
<g>
</g>
<g>
</g>
<g>
</g>
<g>
</g>
<g>
</g>
<g>
</g>
<g>
</g>
<g>
</g>
<g>
</g>
<g>
</g>
<g>
</g>
</svg>
