<?xml version="1.0" encoding="iso-8859-1"?>
<!-- Generator: Adobe Illustrator 19.1.0, SVG Export Plug-In . SVG Version: 6.00 Build 0)  -->
<svg version="1.1" id="Capa_1" xmlns="http://www.w3.org/2000/svg" xmlns:xlink="http://www.w3.org/1999/xlink" x="0px" y="0px"
	 viewBox="0 0 479.6 479.6" style="enable-background:new 0 0 479.6 479.6;" xml:space="preserve">
<g>
	<g>
		<path d="M419.7,455.6H251.9v-133l29.8,25.3c5.1,4.3,12.6,3.7,16.9-1.4s3.7-12.6-1.4-16.9l-49.5-42.1c0,0,0,0-0.1-0.1
			s-0.3-0.2-0.4-0.3c-0.2-0.1-0.3-0.3-0.5-0.4c-0.1-0.1-0.3-0.2-0.4-0.3c-0.2-0.1-0.3-0.2-0.5-0.3c-0.1-0.1-0.3-0.2-0.5-0.2
			c-0.2-0.1-0.4-0.2-0.5-0.3c-0.2-0.1-0.3-0.1-0.5-0.2s-0.4-0.1-0.6-0.2s-0.3-0.1-0.5-0.2s-0.4-0.1-0.6-0.2c-0.2,0-0.3-0.1-0.5-0.1
			s-0.5-0.1-0.7-0.1c-0.1,0-0.3,0-0.4-0.1c-0.8-0.1-1.5-0.1-2.3,0c-0.1,0-0.3,0-0.4,0.1c-0.2,0-0.5,0.1-0.7,0.1s-0.3,0.1-0.5,0.1
			s-0.4,0.1-0.6,0.2c-0.2,0-0.3,0.1-0.5,0.2s-0.4,0.1-0.5,0.2c-0.2,0.1-0.3,0.1-0.5,0.2s-0.4,0.2-0.5,0.3c-0.2,0.1-0.3,0.2-0.5,0.2
			c-0.2,0.1-0.3,0.2-0.5,0.3c-0.1,0.1-0.3,0.2-0.4,0.3c-0.2,0.1-0.3,0.2-0.5,0.4c-0.1,0.1-0.3,0.2-0.4,0.3c0,0,0,0-0.1,0.1
			l-49.7,42.3c-5.1,4.3-5.7,11.9-1.4,16.9c2.4,2.8,5.8,4.2,9.2,4.2c2.7,0,5.5-0.9,7.8-2.9l29.9-25.4v133H60c-6.6,0-12,5.4-12,12
			s5.4,12,12,12h359.7c6.6,0,12-5.4,12-12S426.4,455.6,419.7,455.6z"/>
		<path d="M222.4,136.6h34.8c14.4,0,26.1,11.7,26.1,26.1c0,14.4-11.7,26.1-26.1,26.1h-62.5c-6.6,0-12,5.4-12,12s5.4,12,12,12h33.1
			v24.8c0,6.6,5.4,12,12,12s12-5.4,12-12v-24.8h5.7c0.1,0,0.2,0,0.3,0c27.3-0.4,49.4-22.7,49.4-50.1c0-27.6-22.5-50.1-50.1-50.1
			h-34.8c-14.4,0-26.1-11.7-26.1-26.1c0-14.4,11.7-26.1,26.1-26.1h61.5c6.6,0,12-5.4,12-12s-5.4-12-12-12h-32V12c0-6.6-5.4-12-12-12
			s-12,5.4-12,12v24.4h-5.4c-27.6,0-50.1,22.5-50.1,50.1S194.8,136.6,222.4,136.6z"/>
		<path d="M87.1,136.6h26c9.1,0,16.5,7.4,16.5,16.5s-7.4,16.5-16.5,16.5H66.4c-6.6,0-12,5.4-12,12s5.4,12,12,12h21.7v15.5
			c0,6.6,5.4,12,12,12s12-5.4,12-12v-15.5h1.3c0.1,0,0.2,0,0.3,0c22.1-0.3,40-18.4,40-40.5c0-22.3-18.2-40.5-40.5-40.5h-26
			c-9.1,0-16.5-7.4-16.5-16.5c0-9.1,7.4-16.5,16.5-16.5h45.9c6.6,0,12-5.4,12-12c0-6.6-5.4-12-12-12h-20.9V40.4c0-6.6-5.4-12-12-12
			s-12,5.4-12,12v15.2h-1c-22.4,0-40.6,18.2-40.6,40.5C46.6,118.5,64.8,136.6,87.1,136.6z"/>
		<path d="M366.5,136.6h26c9.1,0,16.5,7.4,16.5,16.5s-7.4,16.5-16.5,16.5h-46.8c-6.6,0-12,5.4-12,12s5.4,12,12,12h21.7v15.5
			c0,6.6,5.4,12,12,12c6.6,0,12-5.4,12-12v-15.5h1.3c0.1,0,0.2,0,0.3,0c22.1-0.3,40-18.4,40-40.5c0-22.3-18.2-40.5-40.5-40.5h-26
			c-9.1,0-16.5-7.4-16.5-16.5c0-9.1,7.4-16.5,16.5-16.5h45.9c6.6,0,12-5.4,12-12c0-6.6-5.4-12-12-12h-20.9V40.4c0-6.6-5.4-12-12-12
			c-6.6,0-12,5.4-12,12v15.2h-1c-22.3,0-40.5,18.2-40.5,40.5C326,118.5,344.1,136.6,366.5,136.6z"/>
	</g>
</g>
<g>
</g>
<g>
</g>
<g>
</g>
<g>
</g>
<g>
</g>
<g>
</g>
<g>
</g>
<g>
</g>
<g>
</g>
<g>
</g>
<g>
</g>
<g>
</g>
<g>
</g>
<g>
</g>
<g>
</g>
</svg>
