<?xml version="1.0" encoding="iso-8859-1"?>
<!-- Generator: Adobe Illustrator 19.1.0, SVG Export Plug-In . SVG Version: 6.00 Build 0)  -->
<svg version="1.1" id="Capa_1" xmlns="http://www.w3.org/2000/svg" xmlns:xlink="http://www.w3.org/1999/xlink" x="0px" y="0px"
	 viewBox="0 0 480.9 480.9" style="enable-background:new 0 0 480.9 480.9;" xml:space="preserve">
<g>
	<g>
		<path d="M450.228,102.5c0-18.8-11.3-31.5-30.3-33.9c-3.6-0.5-7.3-0.9-10.9-1.3c-10.7-1.3-20.8-2.4-30.5-4.5
			c-37.9-8.3-74.6-25.4-115.2-53.8c-6.7-4.7-14.1-9-22.8-9c-8.6,0-16,4.3-22.7,8.9c-54.3,37.3-103.2,56.3-153.8,59.5
			c-21.9,1.4-33.4,13.8-33.4,35.9c0,13.2,0,26.4,0,39.6v0.2c-0.1,36.7-0.1,74.6,0.3,112c0.1,13.9,1.9,28.3,5.2,42.9
			c7.8,34.2,25.6,65,54.4,94.1c35.9,36.3,80.9,64.3,137.5,85.6c3.8,1.4,7.9,2.2,12.2,2.2c5.2,0,10.4-1.1,15-3.1
			c3.1-1.4,6.3-2.7,9.4-4l0.3-0.1c13.7-5.9,27.8-12,41.6-19.2c46-24.3,80.8-53,106.4-87.8c23-31.2,34.9-62.6,36.3-96
			c0.3-6.4,0.5-13.2,0.6-20.9l0.5-61.8c0-0.4,0-0.7,0-1.1v-24C450.328,142.7,450.328,122.6,450.228,102.5z M426.228,186.8
			c0,0.2,0,0.4,0,0.7l-0.5,62c-0.1,7.4-0.3,13.9-0.5,20.1c-1.2,28.5-11.6,55.6-31.7,82.8c-23.4,31.8-55.6,58.2-98.3,80.8
			c-12.9,6.8-26.6,12.7-39.9,18.4l-0.3,0.1c-3.2,1.4-6.3,2.7-9.5,4.1c-1.6,0.7-3.5,1.1-5.4,1.1c-1.4,0-2.7-0.2-3.8-0.6
			c-53.3-20.1-95.5-46.3-128.9-80c-25.4-25.9-41.1-52.9-47.9-82.6c-3-12.9-4.5-25.6-4.6-37.8c-0.4-37.2-0.3-75.1-0.3-111.7V144
			c0-13.2,0-26.4,0-39.6c0-4.6,0.7-8,2.1-9.4c1.3-1.4,4.4-2.3,8.9-2.6c55.1-3.6,107.8-23.8,165.8-63.8c4.5-3.1,7.5-4.6,9.1-4.6
			s4.6,1.6,9.1,4.7c43.3,30.2,82.7,48.5,123.8,57.5c10.8,2.4,21.5,3.6,32.9,4.9c3.6,0.4,7.1,0.8,10.7,1.3c7,0.9,9.3,3.4,9.3,10.1
			c0,20.1,0,40.2,0,60.3L426.228,186.8z"/>
		<path d="M257.128,228.2h-33.5c-13.6,0-24.7-11.1-24.7-24.7s11.1-24.7,24.7-24.7h59c6.6,0,12-5.4,12-12s-5.4-12-12-12h-30.2v-23
			c0-6.6-5.4-12-12-12s-12,5.4-12,12v23h-4.7c-26.8,0-48.7,21.8-48.7,48.7c0,26.8,21.8,48.7,48.7,48.7h33.5
			c13.6,0,24.7,11.1,24.7,24.7s-11.1,24.7-24.7,24.7h-60.1c-6.6,0-12,5.4-12,12s5.4,12,12,12h31.3V349c0,6.6,5.4,12,12,12
			s12-5.4,12-12v-23.4h5.1c0.1,0,0.2,0,0.3,0c26.5-0.3,48-22.1,48-48.7C305.828,250,284.028,228.2,257.128,228.2z"/>
	</g>
</g>
<g>
</g>
<g>
</g>
<g>
</g>
<g>
</g>
<g>
</g>
<g>
</g>
<g>
</g>
<g>
</g>
<g>
</g>
<g>
</g>
<g>
</g>
<g>
</g>
<g>
</g>
<g>
</g>
<g>
</g>
</svg>
