<?xml version="1.0" encoding="iso-8859-1"?>
<!-- Generator: Adobe Illustrator 19.1.0, SVG Export Plug-In . SVG Version: 6.00 Build 0)  -->
<svg version="1.1" id="Capa_1" xmlns="http://www.w3.org/2000/svg" xmlns:xlink="http://www.w3.org/1999/xlink" x="0px" y="0px"
	 viewBox="0 0 486.8 486.8" style="enable-background:new 0 0 486.8 486.8;" xml:space="preserve">
<g>
	<g>
		<path d="M278.077,110.2c30.4,0,55.1-24.7,55.1-55.1S308.477,0,278.077,0s-55.1,24.7-55.1,55.1S247.677,110.2,278.077,110.2z
			 M278.077,24c17.1,0,31.1,14,31.1,31.1s-14,31.1-31.1,31.1s-31.1-14-31.1-31.1S260.877,24,278.077,24z"/>
		<path d="M189.577,268c6.6,0.6,12.4-4.3,13-10.9c6.5-70.4,31.9-106.1,75.5-106.1s69,35.7,75.5,106.1c0.6,6.2,5.8,10.9,11.9,10.9
			c0.4,0,0.7,0,1.1-0.1c6.6-0.6,11.5-6.4,10.9-13c-3.2-35.2-11.3-63.7-24-84.6c-17.3-28.7-42.7-43.2-75.4-43.2s-58.1,14.5-75.4,43.2
			c-12.7,21-20.7,49.4-24,84.6C178.077,261.6,182.977,267.4,189.577,268z"/>
		<path d="M151.777,330.1h252.6c28.3,0,51.3-23,51.3-51.3V172.5c0-6.6-5.4-12-12-12s-12,5.4-12,12v106.3c0,15-12.2,27.3-27.3,27.3
			h-252.6c-15,0-27.3-12.2-27.3-27.3v-62.6v-70.1V137V71c0-0.4,0-0.9-0.1-1.3c0-0.1,0-0.2,0-0.3c0-0.3-0.1-0.6-0.1-0.8
			c0-0.2-0.1-0.5-0.2-0.7c0-0.1-0.1-0.3-0.1-0.4c-0.1-0.3-0.2-0.5-0.3-0.8c0-0.1-0.1-0.2-0.1-0.3c-0.1-0.2-0.2-0.5-0.3-0.7
			c-0.1-0.1-0.1-0.2-0.2-0.4c-0.1-0.2-0.2-0.4-0.3-0.6c-0.1-0.1-0.2-0.3-0.3-0.4s-0.2-0.3-0.3-0.4c-0.1-0.2-0.3-0.4-0.4-0.5
			c-0.1-0.1-0.2-0.2-0.3-0.3c-0.2-0.2-0.3-0.4-0.5-0.6c-0.1-0.1-0.2-0.2-0.3-0.2c-0.2-0.2-0.4-0.4-0.6-0.5c-0.1-0.1-0.2-0.2-0.3-0.2
			c-0.2-0.2-0.4-0.3-0.6-0.4c-0.2-0.2-0.5-0.3-0.7-0.4c-0.1-0.1-0.2-0.1-0.3-0.2c-0.4-0.2-0.8-0.4-1.1-0.6l-69.3-29.3
			c-6.1-2.6-13.1,0.3-15.7,6.4c-2.6,6.1,0.3,13.1,6.4,15.7l62.1,26.2v58.1v9.1v70.1v62.6v79.2c0,26.4,20.1,48.2,45.8,51
			c-4.9,7.8-7.8,17.1-7.8,27c0,27.9,22.7,50.7,50.7,50.7c27.9,0,50.7-22.7,50.7-50.7c0-9.8-2.8-18.9-7.6-26.7h116.9
			c-4.8,7.8-7.6,16.9-7.6,26.7c0,27.9,22.7,50.7,50.7,50.7c27.9,0,50.7-22.7,50.7-50.7s-23-50.8-51-50.8h-240.3
			c-15,0-27.3-12.2-27.3-27.3v-35.8C132.377,327.2,141.777,330.1,151.777,330.1z M215.777,436c0,14.7-12,26.7-26.7,26.7
			s-26.7-12-26.7-26.7s12-26.7,26.7-26.7S215.777,421.3,215.777,436z M418.777,436c0,14.7-12,26.7-26.7,26.7s-26.7-12-26.7-26.7
			s12-26.7,26.7-26.7S418.777,421.3,418.777,436z"/>
	</g>
</g>
<g>
</g>
<g>
</g>
<g>
</g>
<g>
</g>
<g>
</g>
<g>
</g>
<g>
</g>
<g>
</g>
<g>
</g>
<g>
</g>
<g>
</g>
<g>
</g>
<g>
</g>
<g>
</g>
<g>
</g>
</svg>
