<?xml version="1.0" encoding="iso-8859-1"?>
<!-- Generator: Adobe Illustrator 19.1.0, SVG Export Plug-In . SVG Version: 6.00 Build 0)  -->
<svg version="1.1" id="Capa_1" xmlns="http://www.w3.org/2000/svg" xmlns:xlink="http://www.w3.org/1999/xlink" x="0px" y="0px"
	 viewBox="0 0 487.8 487.8" style="enable-background:new 0 0 487.8 487.8;" xml:space="preserve">
<g>
	<g>
		<path d="M487.7,396.45l-24-269.9c-0.5-5.7-5.3-10-11-10h-49.8c-0.4-45-37.1-81.4-82.1-81.4s-81.7,36.4-82.1,81.4h-49.8
			c-5.7,0-10.5,4.4-11,10l-24,269.9c0,0.3,0,0.6,0,1c0,30.4,27.9,55.2,62.3,55.2h209.3c34.3,0,62.3-24.7,62.3-55.2
			C487.8,397.05,487.8,396.75,487.7,396.45z M320.9,57.15c32.9,0,59.7,26.6,60.1,59.4H260.7C261.1,83.75,287.9,57.15,320.9,57.15z
			 M425.5,430.55H216.2c-22,0-40-14.6-40.3-32.7l23-259.3h39.7v35.6c0,6.1,4.9,11,11,11c6.1,0,11-4.9,11-11v-35.6h120.3v35.6
			c0,6.1,4.9,11,11,11s11-4.9,11-11v-35.6h39.7l23,259.3C465.5,415.95,447.5,430.55,425.5,430.55z"/>
		<path d="M128.3,211.35H52.9c-6.1,0-11,4.9-11,11s4.9,11,11,11h75.4c6.1,0,11-4.9,11-11S134.4,211.35,128.3,211.35z"/>
		<path d="M128.3,264.95H11c-6.1,0-11,4.9-11,11s4.9,11,11,11h117.3c6.1,0,11-4.9,11-11S134.4,264.95,128.3,264.95z"/>
		<path d="M128.3,318.55H52.9c-6.1,0-11,4.9-11,11s4.9,11,11,11h75.4c6.1,0,11-4.9,11-11S134.4,318.55,128.3,318.55z"/>
	</g>
</g>
<g>
</g>
<g>
</g>
<g>
</g>
<g>
</g>
<g>
</g>
<g>
</g>
<g>
</g>
<g>
</g>
<g>
</g>
<g>
</g>
<g>
</g>
<g>
</g>
<g>
</g>
<g>
</g>
<g>
</g>
</svg>
