<?xml version="1.0" encoding="iso-8859-1"?>
<!-- Generator: Adobe Illustrator 19.1.0, SVG Export Plug-In . SVG Version: 6.00 Build 0)  -->
<svg version="1.1" id="Capa_1" xmlns="http://www.w3.org/2000/svg" xmlns:xlink="http://www.w3.org/1999/xlink" x="0px" y="0px"
	 viewBox="0 0 489.5 489.5" style="enable-background:new 0 0 489.5 489.5;" xml:space="preserve">
<g>
	<g>
		<path d="M452.349,361.2h-17.7V333c0-34.8-28.3-63.2-63.2-63.2s-63.2,28.3-63.2,63.2v28.2h-17.7c-6.6,0-12,5.4-12,12v104.3
			c0,6.6,5.4,12,12,12h161.7c6.6,0,12-5.4,12-12V373.2C464.349,366.6,458.949,361.2,452.349,361.2z M332.249,333
			c0-21.6,17.6-39.2,39.2-39.2s39.2,17.6,39.2,39.2v28.2h-78.3V333H332.249z M440.349,465.5h-137.7v-80.3h137.7L440.349,465.5
			L440.349,465.5z"/>
		<path d="M288.949,165.8c6.6,0,12-5.4,12-12v-39.7h44.4l10.6,119.4c0.6,6.6,6.4,11.5,13,10.9s11.5-6.4,10.9-13l-11.6-130.3
			c-0.5-6.2-5.7-10.9-12-10.9h-55.4c-0.4-49.8-41-90.2-90.9-90.2s-90.5,40.4-90.9,90.2h-55.3c-6.2,0-11.4,4.7-12,10.9l-26.5,299.1
			c0,0.4,0,0.7,0,1.1c0,33.6,30.9,61,68.8,61h151.1c6.6,0,12-5.4,12-12s-5.4-12-12-12h-151.1c-24.5,0-44.5-16.3-44.8-36.5
			l25.5-287.7h44.4v39.7c0,6.6,5.4,12,12,12c6.6,0,12-5.4,12-12v-39.7h133.8v39.7C276.949,160.4,282.349,165.8,288.949,165.8z
			 M210.049,23.9c36.7,0,66.5,29.7,66.9,66.2h-133.8C143.549,53.6,173.349,23.9,210.049,23.9z"/>
	</g>
</g>
<g>
</g>
<g>
</g>
<g>
</g>
<g>
</g>
<g>
</g>
<g>
</g>
<g>
</g>
<g>
</g>
<g>
</g>
<g>
</g>
<g>
</g>
<g>
</g>
<g>
</g>
<g>
</g>
<g>
</g>
</svg>
