<?xml version="1.0" encoding="iso-8859-1"?>
<!-- Generator: Adobe Illustrator 19.1.0, SVG Export Plug-In . SVG Version: 6.00 Build 0)  -->
<svg version="1.1" id="Capa_1" xmlns="http://www.w3.org/2000/svg" xmlns:xlink="http://www.w3.org/1999/xlink" x="0px" y="0px"
	 viewBox="0 0 498.6 498.6" style="enable-background:new 0 0 498.6 498.6;" xml:space="preserve">
<g>
	<g>
		<path d="M151.827,331.9h268.9c29.7,0,53.8-24.2,53.8-53.8V164.9c0-6.6-5.4-12-12-12s-12,5.4-12,12v113.2
			c0,16.5-13.4,29.8-29.8,29.8h-268.9c-16.5,0-29.8-13.4-29.8-29.8v-66.7v-74.6v-9.7V56.8c0-0.4,0-0.8-0.1-1.3c0-0.1,0-0.2,0-0.3
			c0-0.3-0.1-0.6-0.1-0.8s-0.1-0.5-0.2-0.7c0-0.1-0.1-0.3-0.1-0.4c-0.1-0.3-0.2-0.5-0.3-0.8c0-0.1-0.1-0.2-0.1-0.3
			c-0.1-0.2-0.2-0.5-0.3-0.7c-0.1-0.1-0.1-0.3-0.2-0.4c-0.1-0.2-0.2-0.4-0.3-0.5c-0.1-0.2-0.2-0.3-0.3-0.5c-0.1-0.1-0.2-0.3-0.3-0.4
			c-0.1-0.2-0.3-0.4-0.4-0.5s-0.2-0.2-0.3-0.3c-0.2-0.2-0.3-0.4-0.5-0.6c-0.1-0.1-0.2-0.1-0.2-0.2c-0.2-0.2-0.4-0.4-0.6-0.6
			c-0.1-0.1-0.2-0.2-0.3-0.2c-0.2-0.2-0.4-0.3-0.6-0.5c-0.2-0.1-0.4-0.3-0.7-0.4c-0.1-0.1-0.2-0.1-0.3-0.2c-0.4-0.2-0.7-0.4-1.1-0.5
			l-74-31.2c-6.1-2.6-13.1,0.3-15.7,6.4s0.3,13.1,6.4,15.7l66.5,28.1v62.4v9.7v74.6v66.7v84.3c0,28.2,21.7,51.3,49.3,53.6
			c-5.6,8.4-8.9,18.5-8.9,29.4c0,29.3,23.9,53.2,53.2,53.2s53.2-23.9,53.2-53.2c0-10.8-3.2-20.8-8.7-29.2h127.3
			c-5.5,8.4-8.7,18.4-8.7,29.2c0,29.3,23.9,53.2,53.2,53.2s53.2-23.9,53.2-53.2s-23.9-53.2-53.2-53.2h-256
			c-16.5,0-29.8-13.4-29.8-29.8v-39.5C130.527,328.6,140.827,331.9,151.827,331.9z M220.727,445.4c0,16.1-13.1,29.2-29.2,29.2
			s-29.2-13.1-29.2-29.2s13.1-29.2,29.2-29.2S220.727,429.3,220.727,445.4z M436.927,445.4c0,16.1-13.1,29.2-29.2,29.2
			s-29.2-13.1-29.2-29.2s13.1-29.2,29.2-29.2S436.927,429.3,436.927,445.4z"/>
		<path d="M277.727,215.7C277.727,215.7,277.727,215.8,277.727,215.7c0.3,0.3,0.6,0.6,0.9,0.8c0.1,0.1,0.3,0.2,0.5,0.3
			s0.3,0.2,0.5,0.4c0.2,0.1,0.4,0.2,0.5,0.3c0.2,0.1,0.3,0.2,0.5,0.3s0.4,0.2,0.6,0.3s0.3,0.2,0.5,0.2c0.2,0.1,0.4,0.1,0.6,0.2
			c0.2,0.1,0.4,0.1,0.6,0.2c0.2,0.1,0.4,0.1,0.6,0.1s0.4,0.1,0.6,0.1s0.4,0.1,0.6,0.1s0.3,0.1,0.5,0.1c0.4,0,0.8,0.1,1.2,0.1
			s0.8,0,1.2-0.1c0.2,0,0.4-0.1,0.5-0.1c0.2,0,0.4-0.1,0.6-0.1s0.4-0.1,0.6-0.1s0.4-0.1,0.6-0.1c0.2-0.1,0.4-0.1,0.6-0.2
			c0.2-0.1,0.4-0.1,0.6-0.2c0.2-0.1,0.3-0.2,0.5-0.2c0.2-0.1,0.4-0.2,0.6-0.3s0.3-0.2,0.5-0.3s0.4-0.2,0.5-0.3
			c0.2-0.1,0.3-0.2,0.5-0.4c0.2-0.1,0.3-0.2,0.5-0.3c0.3-0.2,0.6-0.5,0.8-0.7c0,0,0,0,0.1-0.1l47.6-47.6c4.7-4.7,4.7-12.3,0-17
			s-12.3-4.7-17,0l-27.5,27.2V12c0-6.6-5.4-12-12-12s-12,5.4-12,12v166.3l-27-27c-4.7-4.7-12.3-4.7-17,0s-4.7,12.3,0,17
			L277.727,215.7z"/>
		<path d="M191.627,269.3h189.2c6.6,0,12-5.4,12-12c0-6.6-5.4-12-12-12h-189.2c-6.6,0-12,5.4-12,12
			C179.627,263.9,184.927,269.3,191.627,269.3z"/>
	</g>
</g>
<g>
</g>
<g>
</g>
<g>
</g>
<g>
</g>
<g>
</g>
<g>
</g>
<g>
</g>
<g>
</g>
<g>
</g>
<g>
</g>
<g>
</g>
<g>
</g>
<g>
</g>
<g>
</g>
<g>
</g>
</svg>
