<?xml version="1.0" encoding="iso-8859-1"?>
<!-- Generator: Adobe Illustrator 19.1.0, SVG Export Plug-In . SVG Version: 6.00 Build 0)  -->
<svg version="1.1" id="Capa_1" xmlns="http://www.w3.org/2000/svg" xmlns:xlink="http://www.w3.org/1999/xlink" x="0px" y="0px"
	 viewBox="0 0 483.1 483.1" style="enable-background:new 0 0 483.1 483.1;" xml:space="preserve">
<g>
	<g>
		<path d="M320.05,218.9c-4.7-4.7-12.3-4.7-17,0l-139.8,139.9c-4.7,4.7-4.7,12.3,0,17c2.3,2.3,5.4,3.5,8.5,3.5s6.1-1.2,8.5-3.5
			L320.05,236C324.75,231.2,324.75,223.6,320.05,218.9z"/>
		<path d="M294.15,302.3c-11,0-21.4,4.3-29.3,12.1c-16.1,16.1-16.1,42.4,0,58.5c7.8,7.8,18.2,12.1,29.3,12.1s21.4-4.3,29.3-12.1
			s12.1-18.2,12.1-29.3s-4.3-21.4-12.1-29.3S305.15,302.3,294.15,302.3z M306.45,356c-3.3,3.3-7.6,5.1-12.3,5.1
			c-4.6,0-9-1.8-12.3-5.1c-6.8-6.8-6.8-17.8,0-24.6c3.3-3.3,7.6-5.1,12.3-5.1c4.6,0,9,1.8,12.3,5.1c3.3,3.3,5.1,7.6,5.1,12.3
			S309.65,352.7,306.45,356z"/>
		<path d="M218.25,280.6c16.1-16.1,16.1-42.4,0-58.5c-7.8-7.8-18.2-12.1-29.3-12.1c-11,0-21.4,4.3-29.3,12.1
			c-16.1,16.1-16.1,42.4,0,58.5c7.8,7.8,18.2,12.1,29.3,12.1S210.45,288.4,218.25,280.6z M176.65,239.1c3.3-3.3,7.6-5.1,12.3-5.1
			s9,1.8,12.3,5.1c6.8,6.8,6.8,17.8,0,24.6c-3.3,3.3-7.6,5.1-12.3,5.1s-9-1.8-12.3-5.1C169.95,256.9,169.95,245.9,176.65,239.1z"/>
		<path d="M434.55,418.7l-27.8-313.3c-0.5-6.2-5.7-10.9-12-10.9h-58.6c-0.1-52.1-42.5-94.5-94.6-94.5s-94.5,42.4-94.6,94.5h-58.6
			c-6.2,0-11.4,4.7-12,10.9l-27.8,313.3c0,0.4,0,0.7,0,1.1c0,34.9,32.1,63.3,71.5,63.3h243c39.4,0,71.5-28.4,71.5-63.3
			C434.55,419.4,434.55,419.1,434.55,418.7z M241.55,24c38.9,0,70.5,31.6,70.6,70.5h-141.2C171.05,55.6,202.65,24,241.55,24z
			 M363.05,459h-243c-26,0-47.2-17.3-47.5-38.8l26.8-301.7h47.6v42.1c0,6.6,5.4,12,12,12s12-5.4,12-12v-42.1h141.2v42.1
			c0,6.6,5.4,12,12,12s12-5.4,12-12v-42.1h47.6l26.8,301.8C410.25,441.7,389.05,459,363.05,459z"/>
	</g>
</g>
<g>
</g>
<g>
</g>
<g>
</g>
<g>
</g>
<g>
</g>
<g>
</g>
<g>
</g>
<g>
</g>
<g>
</g>
<g>
</g>
<g>
</g>
<g>
</g>
<g>
</g>
<g>
</g>
<g>
</g>
</svg>
