<?xml version="1.0" encoding="iso-8859-1"?>
<!-- Generator: Adobe Illustrator 19.1.0, SVG Export Plug-In . SVG Version: 6.00 Build 0)  -->
<svg version="1.1" id="Capa_1" xmlns="http://www.w3.org/2000/svg" xmlns:xlink="http://www.w3.org/1999/xlink" x="0px" y="0px"
	 viewBox="0 0 480.4 480.4" style="enable-background:new 0 0 480.4 480.4;" xml:space="preserve">
<g>
	<g>
		<path d="M274.4,435.5H85.2c-24.3,0-44.1-16.2-44.4-36.1l25.4-285.7h44V153c0,6.6,5.4,12,12,12s12-5.4,12-12v-39.3h132.7V153
			c0,6.6,5.4,12,12,12s12-5.4,12-12v-39.3h44l7.3,77.8c0.6,6.6,6.5,11.5,13.1,10.8c6.6-0.6,11.4-6.5,10.8-13.1l-8.3-88.7
			c-0.6-6.2-5.8-10.9-11.9-10.9h-55C290.5,40.1,250.1,0,200.6,0c-49.6,0-90,40.1-90.3,89.6H55.2c-6.2,0-11.4,4.7-12,10.9L16.8,397.8
			c0,0.4,0,0.7,0,1.1c0,33.4,30.7,60.6,68.4,60.6h189.2c6.6,0,12-5.4,12-12C286.4,440.9,281.1,435.5,274.4,435.5z M200.5,24.1
			c36.3,0,65.9,29.4,66.3,65.6H134.1C134.5,53.5,164.1,24.1,200.5,24.1z"/>
		<path d="M360.7,276.1c-31,0-56.2,25.2-56.2,56.2s25.2,56.2,56.2,56.2s56.2-25.2,56.2-56.2S391.6,276.1,360.7,276.1z M360.7,364.5
			c-17.8,0-32.2-14.4-32.2-32.2c0-17.8,14.4-32.2,32.2-32.2c17.8,0,32.2,14.4,32.2,32.2C392.9,350.1,378.4,364.5,360.7,364.5z"/>
		<path d="M357,228.4c-51.4,1.8-93.9,41.7-98.8,92.9c-0.9,9.8-0.5,19.7,1.3,29.4c0.1,0.6,0.3,1.7,0.7,3.4c1.6,6.9,3.9,13.7,6.9,20.2
			c10.3,24.2,32.7,61.4,80.9,101.5c3.6,3,8.1,4.6,12.7,4.6s9.2-1.6,12.7-4.6c48.2-40,70.6-77.2,80.9-101.5c3-6.5,5.3-13.3,6.8-20.2
			c0.4-1.8,0.6-3,0.7-3.5c1.2-6.3,1.8-12.8,1.8-19.3C463.6,273.3,415.5,226.3,357,228.4z M283.1,351c0.3-1.4,0.3-2.8,0.1-4.3
			C283.4,348.1,283.4,349.6,283.1,351z M438.2,346.3c0,0.2-0.1,0.3-0.1,0.5s-0.2,0.9-0.4,1.8v0.1c-1.2,5.4-3,10.6-5.3,15.6
			c-0.1,0.1-0.1,0.2-0.2,0.4c-9,21.3-28.8,54.2-71.5,90.3c-42.8-36.2-62.5-69-71.5-90.3c-0.1-0.1-0.1-0.2-0.2-0.4
			c-2.3-5-4.1-10.3-5.3-15.6v-0.1c-0.3-1.1-0.4-1.7-0.4-1.9c0-0.1,0-0.3-0.1-0.4c-1.4-7.5-1.8-15.1-1.1-22.7
			c3.8-39.2,36.3-69.8,75.8-71.2c44.8-1.6,81.8,34.4,81.8,78.9C439.6,336.3,439.1,341.3,438.2,346.3z"/>
	</g>
</g>
<g>
</g>
<g>
</g>
<g>
</g>
<g>
</g>
<g>
</g>
<g>
</g>
<g>
</g>
<g>
</g>
<g>
</g>
<g>
</g>
<g>
</g>
<g>
</g>
<g>
</g>
<g>
</g>
<g>
</g>
</svg>
