<?xml version="1.0" encoding="iso-8859-1"?>
<!-- Generator: Adobe Illustrator 19.1.0, SVG Export Plug-In . SVG Version: 6.00 Build 0)  -->
<svg version="1.1" id="Capa_1" xmlns="http://www.w3.org/2000/svg" xmlns:xlink="http://www.w3.org/1999/xlink" x="0px" y="0px"
	 viewBox="0 0 487.5 487.5" style="enable-background:new 0 0 487.5 487.5;" xml:space="preserve">
<g>
	<g>
		<path d="M450.4,359.7h-17.5v-28c0-34.7-28.2-63-63-63c-34.7,0-63,28.2-63,63c0,6.6,5.4,12,12,12s12-5.4,12-12
			c0-21.5,17.5-39,39-39s39,17.5,39,39v28H289.4c-6.6,0-12,5.4-12,12v103.8c0,6.6,5.4,12,12,12h161c6.6,0,12-5.4,12-12V371.7
			C462.4,365,457,359.7,450.4,359.7z M438.4,463.5h-137v-79.8h137V463.5z"/>
		<path d="M287.7,165.2c6.6,0,12-5.4,12-12v-39.5h44.1l10.6,118.8c0.6,6.6,6.4,11.5,13,10.9s11.5-6.4,10.9-13l-11.5-129.7
			c-0.5-6.2-5.7-10.9-12-10.9h-55.1C299.3,40.2,258.9,0,209.2,0S119,40.2,118.7,89.8H63.5c-6.2,0-11.4,4.7-12,10.9L25.1,398.6
			c0,0.4,0,0.7,0,1.1c0,33.5,30.8,60.7,68.6,60.7h150.4c6.6,0,12-5.4,12-12s-5.4-12-12-12H93.6c-24.4,0-44.3-16.2-44.6-36.3
			l25.5-286.4h44.1v39.4c0,6.6,5.4,12,12,12c6.6,0,12-5.4,12-12v-39.4h133.1v39.4C275.7,159.8,281.1,165.2,287.7,165.2z M209.1,23.9
			c36.5,0,66.2,29.5,66.5,65.8h-133C143,53.4,172.7,23.9,209.1,23.9z"/>
	</g>
</g>
<g>
</g>
<g>
</g>
<g>
</g>
<g>
</g>
<g>
</g>
<g>
</g>
<g>
</g>
<g>
</g>
<g>
</g>
<g>
</g>
<g>
</g>
<g>
</g>
<g>
</g>
<g>
</g>
<g>
</g>
</svg>
