<?xml version="1.0" encoding="iso-8859-1"?>
<!-- Generator: Adobe Illustrator 19.1.0, SVG Export Plug-In . SVG Version: 6.00 Build 0)  -->
<svg version="1.1" id="Capa_1" xmlns="http://www.w3.org/2000/svg" xmlns:xlink="http://www.w3.org/1999/xlink" x="0px" y="0px"
	 viewBox="0 0 486 486" style="enable-background:new 0 0 486 486;" xml:space="preserve">
<g>
	<g>
		<path d="M414.3,90.8C368.4,50.6,307.6,28.5,243,28.5S117.6,50.6,71.7,90.8C25.5,131.3,0,185.4,0,243c0,46.8,17.5,92.5,49.4,129.6
			c-6.7,14.7-16.5,26.4-29.2,34.7c-6.5,4.3-9.6,11.9-7.9,19.5c1.7,7.5,7.7,13,15.3,14c7.7,1.1,15.4,1.6,23.2,1.6
			c24.6,0,47-5.3,66.8-15.7c37.8,20.2,81,30.8,125.4,30.8c64.6,0,125.4-22.1,171.3-62.3C460.5,354.7,486,300.6,486,243
			S460.5,131.3,414.3,90.8z M243,433.5c-42.6,0-83.9-10.7-119.6-31c-1.8-1-3.9-1.6-5.9-1.6c-2.1,0-4.3,0.6-6.2,1.7
			c-17.4,10.5-37.8,15.8-60.6,15.8c-1.8,0-3.7,0-5.5-0.1c12.9-11.5,22.8-26.2,29.3-43.9c1.6-4.2,0.6-9-2.4-12.3
			C40.7,328,24,286.8,24,243c0-105.1,98.2-190.5,219-190.5S462,138,462,243C462,348.1,363.8,433.5,243,433.5z"/>
		<path d="M287.4,152.7c-16.4,0-31.9,5.6-44.4,15.8c-12.5-10.3-28.1-15.9-44.5-15.9c-18.7,0-36.3,7.3-49.6,20.6
			s-20.6,30.9-20.6,49.7c0,18.7,7.3,36.4,20.6,49.6l79.3,79.3c3.9,3.9,9.2,6.1,14.8,6.1s10.8-2.2,14.8-6.1l79.2-79.2
			c13.3-13.3,20.6-30.9,20.6-49.7s-7.3-36.4-20.6-49.7C323.8,160,306.2,152.7,287.4,152.7z M320,255.7l-77,77l-77-77.2
			c-8.7-8.7-13.6-20.4-13.6-32.7s4.8-24,13.5-32.7s20.3-13.5,32.6-13.5c12.4,0,24,4.8,32.7,13.6l3.3,3.3c2.3,2.3,5.3,3.5,8.5,3.5
			c3.2,0,6.2-1.3,8.5-3.5l3.2-3.2c8.7-8.8,20.4-13.6,32.7-13.6c12.3,0,23.9,4.8,32.7,13.5c8.7,8.7,13.5,20.4,13.5,32.7
			C333.6,235.3,328.8,246.9,320,255.7z"/>
	</g>
</g>
<g>
</g>
<g>
</g>
<g>
</g>
<g>
</g>
<g>
</g>
<g>
</g>
<g>
</g>
<g>
</g>
<g>
</g>
<g>
</g>
<g>
</g>
<g>
</g>
<g>
</g>
<g>
</g>
<g>
</g>
</svg>
