<?xml version="1.0" encoding="iso-8859-1"?>
<!-- Generator: Adobe Illustrator 19.1.0, SVG Export Plug-In . SVG Version: 6.00 Build 0)  -->
<svg version="1.1" id="Capa_1" xmlns="http://www.w3.org/2000/svg" xmlns:xlink="http://www.w3.org/1999/xlink" x="0px" y="0px"
	 viewBox="0 0 473.2 473.2" style="enable-background:new 0 0 473.2 473.2;" xml:space="preserve">
<g>
	<g>
		<path d="M438.034,66.5c-15.5-18.3-36.2-29-50.3-35.5c-34.5-15.9-71.8-25.2-117.5-29.4c-11.9-1-23.8-1.6-35.5-1.6
			c-42.8,0-84.9,7.1-125.3,21.1c-19.5,6.9-44.7,17.3-65.8,35.8c-15.9,14.2-23.7,31.6-22.8,51.7c0,0.2,0,0.4,0,0.6
			c0.6,6.5,0.5,13.2,0.3,20.3c-0.1,4.8-0.2,9.9,0,14.9c0.5,24.2,16.9,40.4,40.7,40.4h63.2c0.3,0,0.6,0,0.9,0
			c23.4,0,39.2-16.1,39.2-40v-35.4c2-0.6,4-1.3,6-1.9c3.1-1,6-2,8.6-2.6c17.9-4,36.3-6,56.1-6c10.8,0,22.2,0.6,33.8,1.8
			c15.8,1.8,28,4.5,39,8.7c-0.3,8.8-0.3,17.4-0.2,25.7c0,3.2,0,6.5,0,9.7c0,24.7,16,40.7,40.7,40.7h31.3c3.6,0,7.2,0,10.7,0.1
			c3.6,0,7.1,0.1,10.7,0.1c4,0,7.5-0.1,10.8-0.2c23.3-0.1,39.3-16,39.8-39.7c0-0.1,0-0.2,0-0.3v-39.3
			C452.534,91.3,447.634,77.9,438.034,66.5z M428.534,145.4c-0.2,7.4-3.1,16.1-16,16.1c-0.1,0-0.3,0-0.4,0c-3,0.1-6.3,0.2-10.1,0.2
			c-3.5,0-6.9,0-10.4-0.1c-3.6,0-7.3-0.1-11-0.1h-31.3c-11.6,0-16.7-5.2-16.7-16.7c0-3.3,0-6.6,0-9.9c-0.1-9.7-0.1-18.9,0.4-28.4
			c0-0.2,0-0.4,0-0.7c0-10.4-6.1-14.6-10.6-16.9c-0.3-0.1-0.5-0.2-0.8-0.4c-14-5.8-29.1-9.4-49-11.7c0,0-0.1,0-0.2,0
			c-12.5-1.3-24.7-1.9-36.3-1.9c-21.3,0-41.9,2.2-61.3,6.5c-3.9,0.9-7.5,2.1-11,3.2c-3.1,1-6,2-8.6,2.6c-0.4,0.1-0.8,0.2-1.2,0.3
			c-4.7,1.6-12.6,6-12.6,17.9v39.3c0,7.3-2.6,16-15.2,16c-0.2,0-0.4,0-0.6,0c-0.1,0-0.2,0-0.3,0h-63.4c-10.9,0-16.5-5.7-16.7-17
			v-0.1c-0.1-4.5-0.1-9,0-13.8c0.1-7.3,0.3-14.8-0.4-22.6c-0.5-12.9,4.1-22.9,14.8-32.4c18-15.8,40.4-25,57.9-31.1
			c37.7-13.1,77.2-19.8,117.3-19.8c11,0,22.2,0.5,33.3,1.5c42.9,4,77.7,12.7,109.6,27.3c19.5,8.9,32.5,17.9,42,29.2
			c5.9,7.1,8.8,15,8.8,24.3V145.4z"/>
		<path d="M238.334,210.3c-20.5,0-37.1,16.7-37.1,37.1s16.7,37.1,37.1,37.1s37.1-16.7,37.1-37.1S258.834,210.3,238.334,210.3z
			 M238.334,260.5c-7.2,0-13.1-5.9-13.1-13.1s5.9-13.1,13.1-13.1s13.1,5.9,13.1,13.1C251.534,254.6,245.634,260.5,238.334,260.5z"/>
		<path d="M336.934,210.3c-20.5,0-37.1,16.7-37.1,37.1s16.7,37.1,37.1,37.1s37.1-16.7,37.1-37.1S357.434,210.3,336.934,210.3z
			 M336.934,260.5c-7.2,0-13.1-5.9-13.1-13.1s5.9-13.1,13.1-13.1s13.1,5.9,13.1,13.1S344.134,260.5,336.934,260.5z"/>
		<path d="M139.734,210.3c-20.5,0-37.1,16.7-37.1,37.1s16.7,37.1,37.1,37.1s37.1-16.7,37.1-37.1S160.234,210.3,139.734,210.3z
			 M139.734,260.5c-7.2,0-13.1-5.9-13.1-13.1s5.9-13.1,13.1-13.1s13.1,5.9,13.1,13.1C152.934,254.6,147.034,260.5,139.734,260.5z"/>
		<path d="M238.334,304.6c-20.5,0-37.1,16.7-37.1,37.1s16.7,37.1,37.1,37.1s37.1-16.7,37.1-37.1S258.834,304.6,238.334,304.6z
			 M238.334,354.9c-7.2,0-13.1-5.9-13.1-13.1s5.9-13.1,13.1-13.1s13.1,5.9,13.1,13.1C251.534,349,245.634,354.9,238.334,354.9z"/>
		<path d="M336.934,304.6c-20.5,0-37.1,16.7-37.1,37.1s16.7,37.1,37.1,37.1s37.1-16.7,37.1-37.1S357.434,304.6,336.934,304.6z
			 M336.934,354.9c-7.2,0-13.1-5.9-13.1-13.1s5.9-13.1,13.1-13.1s13.1,5.9,13.1,13.1S344.134,354.9,336.934,354.9z"/>
		<path d="M139.734,304.6c-20.5,0-37.1,16.7-37.1,37.1s16.7,37.1,37.1,37.1s37.1-16.7,37.1-37.1S160.234,304.6,139.734,304.6z
			 M139.734,354.9c-7.2,0-13.1-5.9-13.1-13.1s5.9-13.1,13.1-13.1s13.1,5.9,13.1,13.1C152.934,349,147.034,354.9,139.734,354.9z"/>
		<path d="M238.334,399c-20.5,0-37.1,16.7-37.1,37.1s16.7,37.1,37.1,37.1s37.1-16.7,37.1-37.1S258.834,399,238.334,399z
			 M238.334,449.2c-7.2,0-13.1-5.9-13.1-13.1s5.9-13.1,13.1-13.1s13.1,5.9,13.1,13.1S245.634,449.2,238.334,449.2z"/>
		<path d="M336.934,399c-20.5,0-37.1,16.7-37.1,37.1s16.7,37.1,37.1,37.1s37.1-16.7,37.1-37.1S357.434,399,336.934,399z
			 M336.934,449.2c-7.2,0-13.1-5.9-13.1-13.1s5.9-13.1,13.1-13.1s13.1,5.9,13.1,13.1S344.134,449.2,336.934,449.2z"/>
		<path d="M139.734,399c-20.5,0-37.1,16.7-37.1,37.1s16.7,37.1,37.1,37.1s37.1-16.7,37.1-37.1S160.234,399,139.734,399z
			 M139.734,449.2c-7.2,0-13.1-5.9-13.1-13.1s5.9-13.1,13.1-13.1s13.1,5.9,13.1,13.1S147.034,449.2,139.734,449.2z"/>
	</g>
</g>
<g>
</g>
<g>
</g>
<g>
</g>
<g>
</g>
<g>
</g>
<g>
</g>
<g>
</g>
<g>
</g>
<g>
</g>
<g>
</g>
<g>
</g>
<g>
</g>
<g>
</g>
<g>
</g>
<g>
</g>
</svg>
