<?xml version="1.0" encoding="iso-8859-1"?>
<!-- Generator: Adobe Illustrator 19.1.0, SVG Export Plug-In . SVG Version: 6.00 Build 0)  -->
<svg version="1.1" id="Capa_1" xmlns="http://www.w3.org/2000/svg" xmlns:xlink="http://www.w3.org/1999/xlink" x="0px" y="0px"
	 viewBox="0 0 485.697 485.697" style="enable-background:new 0 0 485.697 485.697;" xml:space="preserve">
<g>
	<g>
		<path d="M485.026,304.412c-2.3-7.1-10-10.9-17.1-8.6l-214.9,71.2c-10.2-16.5-28.4-27.4-49.2-27.4c-0.8,0-1.6,0-2.4,0
			c-1,0-2.1,0.1-3.1,0.2l-85.3-256.9c-1.1-3.4-3.6-6.2-6.8-7.8l-86.7-43.6c-6.7-3.3-14.8-0.7-18.1,6s-0.7,14.8,6,18.1l81.8,41.1
			l83.5,252c-4.2,2.7-8.1,5.9-11.6,9.7c-10.5,11.4-15.9,26.2-15.3,41.6c1.3,31.2,26.7,55.6,57.9,55.6c0.8,0,1.6,0,2.4,0
			c31.9-1.3,56.8-28.3,55.5-60.3c0-0.8-0.1-1.7-0.2-2.5l215-71.2C483.526,319.212,487.326,311.512,485.026,304.412z
			 M205.026,428.512c-17.2,0.7-31.5-12.6-32.2-29.6c-0.3-8.3,2.6-16.2,8.2-22.2c5.6-6.1,13.2-9.6,21.5-9.9c0.4,0,0.9,0,1.3,0
			c16.6,0,30.2,13,30.9,29.7C235.326,413.412,222.026,427.812,205.026,428.512z"/>
		<path d="M228.426,326.712c1.9,5.7,7.2,9.3,12.8,9.3c1.4,0,2.8-0.2,4.2-0.7l207.6-68.8c3.4-1.1,6.2-3.6,7.8-6.8
			c1.6-3.2,1.9-6.9,0.8-10.3l-68.1-205.8c-1.1-3.4-3.6-6.2-6.8-7.8c-3.2-1.6-6.9-1.9-10.3-0.8l-103.8,34.5l0,0l0,0l-103.8,34.4
			c-7.1,2.3-10.9,10-8.6,17.1L228.426,326.712z M268.326,99.312l16.5,49.9c1.9,5.7,7.2,9.3,12.8,9.3c1.4,0,2.8-0.2,4.2-0.7
			c7.1-2.3,10.9-10,8.6-17.1l-16.5-49.9l78.2-25.9l59.7,180.2l-182,60.3l-59.7-180.1L268.326,99.312z"/>
	</g>
</g>
<g>
</g>
<g>
</g>
<g>
</g>
<g>
</g>
<g>
</g>
<g>
</g>
<g>
</g>
<g>
</g>
<g>
</g>
<g>
</g>
<g>
</g>
<g>
</g>
<g>
</g>
<g>
</g>
<g>
</g>
</svg>
