<?xml version="1.0" encoding="iso-8859-1"?>
<!-- Generator: Adobe Illustrator 19.1.0, SVG Export Plug-In . SVG Version: 6.00 Build 0)  -->
<svg version="1.1" id="Capa_1" xmlns="http://www.w3.org/2000/svg" xmlns:xlink="http://www.w3.org/1999/xlink" x="0px" y="0px"
	 viewBox="0 0 477.3 477.3" style="enable-background:new 0 0 477.3 477.3;" xml:space="preserve">
<g>
	<path d="M451.3,150.55c-15.9-17.2-38.5-26.6-63.6-26.6h-65.5v-36.8c0-6.6-5.4-12-12-12H12c-6.6,0-12,5.4-12,12v263.9
		c0,6.6,5.4,12,12,12h47.8c3.9,22.2,23.2,39.1,46.5,39.1s42.6-16.9,46.5-39.1h157.4h26.3c3.9,22.2,23.2,39.1,46.5,39.1
		s42.6-16.9,46.5-39.1h35.8c6.6,0,12-5.4,12-12v-124C477.2,195.35,468.3,168.85,451.3,150.55z M24,99.15h274.2v36.8v203.2H150.7
		c-6.5-18.2-24-31.3-44.4-31.3s-37.9,13.1-44.4,31.3H24V99.15z M106.3,378.15c-12.8,0-23.2-10.4-23.2-23.2
		c0-12.8,10.4-23.2,23.2-23.2s23.2,10.4,23.2,23.2S119.1,378.15,106.3,378.15z M383,378.15c-12.8,0-23.2-10.4-23.2-23.2
		c0-12.8,10.4-23.2,23.2-23.2c12.8,0,23.2,10.4,23.2,23.2S395.8,378.15,383,378.15z M453.2,339.05h-25.8
		c-6.5-18.2-24-31.3-44.4-31.3s-37.9,13.1-44.4,31.3h-16.3v-191.1h65.5c40.4,0,65.5,30.3,65.5,79.1v112H453.2z"/>
</g>
<g>
</g>
<g>
</g>
<g>
</g>
<g>
</g>
<g>
</g>
<g>
</g>
<g>
</g>
<g>
</g>
<g>
</g>
<g>
</g>
<g>
</g>
<g>
</g>
<g>
</g>
<g>
</g>
<g>
</g>
</svg>
