<svg xmlns="http://www.w3.org/2000/svg" viewBox="0 0 490.9 490.9"><path d="M81.7 273.2c-6.6 0-12 5.4-12 12s5.4 12 12 12h46.1c6.6 0 12-5.4 12-12s-5.4-12-12-12H81.7zm202.1 24h46.1c6.6 0 12-5.4 12-12s-5.4-12-12-12h-46.1c-6.6 0-12 5.4-12 12s5.4 12 12 12z"/><path d="M458.4 78.2h-349c-17.9 0-32.5 14.6-32.5 32.5v47.1H24c-13.2 0-24 10.8-24 24v206.9c0 13.2 10.8 24 24 24h366c13.2 0 24-10.8 24-24v-55.6h44.4c17.9 0 32.5-14.6 32.5-32.5v-190c-.1-17.9-14.6-32.4-32.5-32.4zM322.8 181.8c2.7 36 31.3 64.8 67.2 67.9v71.8c-36 2.7-64.8 31.3-67.9 67.2H91.2c-2.7-36-31.3-64.8-67.2-67.9V249c36-2.7 64.8-31.3 67.9-67.2h230.9zm24 0h43.1v43.8c-22.6-3-40.5-21.1-43.1-43.8zm-279.1 0c-2.9 22.6-21 40.6-43.8 43.1v-43.1h43.8zM24 344.9c22.6 2.9 40.6 21 43.1 43.8H24v-43.8zm322.2 43.7c2.9-22.6 21-40.6 43.8-43.1v43.1h-43.8zm120.6-88c0 4.7-3.8 8.5-8.5 8.5h-44.4V181.8c0-13.2-10.8-24-24-24H100.8v-47.1c0-4.7 3.8-8.5 8.5-8.5h349c4.7 0 8.5 3.8 8.5 8.5v189.9z"/><path d="M196.7 297.1h20.5c5.8 0 10.5 4.7 10.5 10.5s-4.7 10.5-10.5 10.5h-36.8c-6.6 0-12 5.4-12 12s5.4 12 12 12H195v9.7c0 6.6 5.4 12 12 12s12-5.4 12-12v-9.7c18.2-.9 32.7-16 32.7-34.4 0-19-15.5-34.5-34.5-34.5h-20.5c-5.8 0-10.5-4.7-10.5-10.5s4.7-10.5 10.5-10.5h36.1c6.6 0 12-5.4 12-12s-5.4-12-12-12h-13.9v-9.4c0-6.6-5.4-12-12-12s-12 5.4-12 12v9.5c-18.2.9-32.7 16-32.7 34.4.1 18.9 15.5 34.4 34.5 34.4z"/></svg>