<svg xmlns="http://www.w3.org/2000/svg" viewBox="0 0 467.2 467.2"><path d="M455.146 120.9l-91.7-116.3c-2.3-2.9-5.7-4.6-9.4-4.6h-240.8c-3.7 0-7.1 1.7-9.4 4.6l-91.7 116.3c-1.7 2.1-2.6 4.7-2.6 7.4v326.9c0 6.6 5.4 12 12 12h424.1c6.6 0 12-5.4 12-12V128.3c.1-2.7-.8-5.3-2.5-7.4zm-32.6-2.6h-176.9V24h102.6l74.3 94.3zM119.046 24h102.6v94.3h-176.9l74.3-94.3zm-85.5 419.2V142.3h400.1v300.9h-400.1z"/><path d="M282.046 311.8l-36.5 36.5V211.6c0-6.6-5.4-12-12-12s-12 5.4-12 12v136.7l-36.3-36.3c-4.7-4.7-12.3-4.7-17 0s-4.7 12.3 0 17l56.8 56.8.8.8c.1.1.2.1.3.2.2.2.5.4.7.5.1 0 .1.1.2.1.3.2.5.3.8.5.1 0 .1 0 .2.1.3.2.6.3.9.4h.1c.3.1.7.3 1 .4h.1c.3.1.7.2 1 .3h.3c.3 0 .6.1.9.1.4 0 .8.1 1.2.1s.8 0 1.2-.1c.3 0 .6-.1.9-.1h.3c.4-.1.7-.2 1-.3h.1c.3-.1.7-.2 1-.4h.1c.3-.1.6-.3.9-.4 0 0 .1 0 .1-.1.3-.1.5-.3.8-.5.1 0 .1-.1.2-.1.2-.2.5-.3.7-.5.1-.1.2-.1.2-.2.3-.2.6-.5.8-.8l57-57c4.7-4.7 4.7-12.3 0-17-4.5-4.7-12.1-4.7-16.8 0z"/></svg>