<svg xmlns="http://www.w3.org/2000/svg" viewBox="0 0 467.2 467.2"><path d="M455.146 120.9l-91.7-116.3c-2.3-2.9-5.7-4.6-9.4-4.6h-240.8c-3.7 0-7.1 1.7-9.4 4.6l-91.7 116.3c-1.7 2.1-2.6 4.7-2.6 7.4v326.9c0 6.6 5.4 12 12 12h424.1c6.6 0 12-5.4 12-12V128.3c.1-2.7-.8-5.3-2.5-7.4zm-32.6-2.6h-176.9V24h102.6l74.3 94.3zM119.046 24h102.6v94.3h-176.9l74.3-94.3zm-85.5 419.2V142.3h400.1v300.9h-400.1z"/><path d="M303.046 284.2h-57.4v-57.4c0-6.6-5.4-12-12-12s-12 5.4-12 12v57.4h-57.4c-6.6 0-12 5.4-12 12s5.4 12 12 12h57.4v57.4c0 6.6 5.4 12 12 12s12-5.4 12-12v-57.4h57.4c6.6 0 12-5.4 12-12s-5.3-12-12-12z"/></svg>