<svg xmlns="http://www.w3.org/2000/svg" viewBox="0 0 467.2 467.2"><path d="M455.146 120.9l-91.7-116.3c-2.3-2.9-5.7-4.6-9.4-4.6h-240.8c-3.7 0-7.1 1.7-9.4 4.6l-91.7 116.3c-1.7 2.1-2.6 4.7-2.6 7.4v326.9c0 6.6 5.4 12 12 12h424.1c6.6 0 12-5.4 12-12V128.3c.1-2.7-.8-5.3-2.5-7.4zm-32.6-2.6h-176.9V24h102.6l74.3 94.3zM119.046 24h102.6v94.3h-176.9l74.3-94.3zm-85.5 419.2V142.3h400.1v300.9h-400.1z"/><path d="M313.146 214.1c-4.7-4.7-12.3-4.7-17 0L154.246 356c-4.7 4.7-4.7 12.3 0 17 2.3 2.3 5.4 3.5 8.5 3.5s6.1-1.2 8.5-3.5l141.9-141.9c4.7-4.7 4.7-12.3 0-17zm-26.1 84.7c-11.2 0-21.7 4.3-29.6 12.2-16.3 16.3-16.3 42.8 0 59.1 7.9 7.9 18.4 12.2 29.6 12.2s21.7-4.3 29.6-12.2 12.2-18.4 12.2-29.6-4.3-21.7-12.2-29.6-18.5-12.1-29.6-12.1zm12.6 54.4c-3.4 3.4-7.8 5.2-12.6 5.2s-9.2-1.9-12.6-5.2c-6.9-6.9-6.9-18.2 0-25.2 3.4-3.4 7.8-5.2 12.6-5.2s9.2 1.9 12.6 5.2 5.2 7.8 5.2 12.6-1.9 9.2-5.2 12.6zm-89.8-76.7c16.3-16.3 16.3-42.8 0-59.1-7.9-7.9-18.4-12.2-29.6-12.2s-21.7 4.3-29.6 12.2c-16.3 16.3-16.3 42.8 0 59.1 7.9 7.9 18.4 12.2 29.6 12.2s21.7-4.3 29.6-12.2zm-42.2-42.2c3.4-3.4 7.8-5.2 12.6-5.2s9.2 1.9 12.6 5.2c6.9 6.9 6.9 18.2 0 25.2-3.4 3.4-7.8 5.2-12.6 5.2s-9.2-1.9-12.6-5.2c-6.9-6.9-6.9-18.2 0-25.2z"/></svg>