<svg xmlns="http://www.w3.org/2000/svg" viewBox="0 0 481.195 481.195"><path d="M180.116 308.298l78.5 23.8c-.1.5-.3 1.1-.5 1.6-2.1 5.7-6.4 8.9-13.4 10-25.8 4.1-68.6 1.5-69 1.5-6.6-.4-12.3 4.6-12.7 11.2s4.6 12.3 11.2 12.7c1.9.1 45.8 2.8 74.3-1.8 28.3-4.5 36.4-29.4 34.9-45.1-.5-4.9-3.8-9-8.5-10.4l-87.9-26.6c-43.4-13.1-91 11.1-93 12.1-.2.1-.5.2-.7.4l-87.5 52.9c-5.7 3.4-7.5 10.8-4.1 16.5 2.3 3.7 6.2 5.8 10.3 5.8 2.1 0 4.2-.6 6.2-1.7l87.1-52.5c3.8-2 42.1-20.3 74.8-10.4z"/><path d="M479.716 288.198c-6.9-12.6-28.4-32.7-61-18.3-30.8 13.7-95.9 45-96.6 45.3-6 2.9-8.5 10-5.6 16s10.1 8.5 16 5.6c.7-.3 65.4-31.5 95.9-45 8.7-3.9 16-3.9 22.3 0 .2.1.3.2.5.3l-163.1 119.5c-11.6 8.5-26.3 12-40.4 9.8l-145.5-23.2c-3.4-.5-6.9.4-9.6 2.6l-36.8 30.7c-5.1 4.2-5.8 11.8-1.5 16.9 2.4 2.8 5.8 4.3 9.2 4.3 2.7 0 5.4-.9 7.7-2.8l32.6-27.2 140.2 22.4c20.4 3.3 41.7-1.9 58.4-14.1l174-127.4c4.7-3.6 6.2-10.1 3.3-15.4zM257.416 274.398c18.7 0 36.2-7.3 49.5-20.5 27.3-27.3 27.3-71.6 0-98.9-13.2-13.2-30.8-20.5-49.5-20.5s-36.2 7.3-49.5 20.5c-27.3 27.3-27.3 71.6 0 98.9 13.3 13.2 30.8 20.5 49.5 20.5zm-32.5-102.4c8.7-8.7 20.2-13.5 32.5-13.5s23.8 4.8 32.5 13.5c17.9 17.9 17.9 47.1 0 65-8.7 8.7-20.2 13.5-32.5 13.5s-23.8-4.8-32.5-13.5c-17.9-17.9-17.9-47.1 0-65zM339.516 137.698c14.6 0 28.3-5.7 38.6-16 21.3-21.3 21.3-55.9 0-77.2-10.3-10.3-24-16-38.6-16s-28.3 5.7-38.6 16c-21.3 21.3-21.3 55.9 0 77.2 10.3 10.4 24.1 16 38.6 16zm-21.6-76.2c5.8-5.8 13.5-9 21.7-9s15.9 3.2 21.7 9c11.9 11.9 11.9 31.4 0 43.3-5.8 5.8-13.5 9-21.7 9s-15.9-3.2-21.7-9c-11.9-12-11.9-31.4 0-43.3z"/></svg>