<svg xmlns="http://www.w3.org/2000/svg" viewBox="0 0 481 481"><path d="M372.3 143.75c62 0 108.7-24.1 108.7-56.1s-46.7-56.1-108.7-56.1-108.7 24.1-108.7 56.1 46.7 56.1 108.7 56.1zm0-88.1c51.7 0 84.7 19 84.7 32.1s-33 32.1-84.7 32.1-84.7-19-84.7-32.1 33-32.1 84.7-32.1zM471.9 144.85c-6.2-2.3-13.1.9-15.4 7.1-5.1 13.9-38.7 28.9-84.1 28.9-44.2 0-77.3-14.2-83.7-27.9-2.8-6-10-8.6-16-5.8s-8.6 10-5.8 16c11.7 25 54.1 41.7 105.5 41.7 24.5 0 48.3-4 67.2-11.4 20.8-8.1 34.5-19.6 39.5-33.3 2.2-6.1-1-13-7.2-15.3zM471.9 206.05c-6.2-2.3-13.1.9-15.4 7.1-5.1 13.9-38.7 28.9-84.1 28.9-44.2 0-77.3-14.2-83.7-27.9-2.8-6-10-8.6-16-5.8s-8.6 10-5.8 16c11.7 25 54.1 41.7 105.5 41.7 24.5 0 48.3-4 67.2-11.4 20.8-8.1 34.5-19.6 39.5-33.3 2.2-6.1-1-13-7.2-15.3zM471.9 267.15c-6.2-2.3-13.1.9-15.4 7.1-5.1 13.9-38.7 28.9-84.1 28.9-44.2 0-77.3-14.2-83.7-27.9-2.8-6-10-8.6-16-5.8s-8.6 10-5.8 16c11.7 25 54.1 41.7 105.5 41.7 24.5 0 48.3-4 67.2-11.4 20.8-8.1 34.5-19.6 39.5-33.3 2.2-6.1-1-13-7.2-15.3zM471.9 328.35c-6.2-2.3-13.1.9-15.4 7.1-5.1 13.9-38.7 28.9-84.1 28.9-44.2 0-77.3-14.2-83.7-27.9-2.8-6-10-8.6-16-5.8s-8.6 10-5.8 16c11.7 25 54.1 41.7 105.5 41.7 24.5 0 48.3-4 67.2-11.4 20.8-8.1 34.5-19.6 39.5-33.3 2.2-6.2-1-13.1-7.2-15.3zM471.9 389.45c-6.2-2.3-13.1.9-15.4 7.1-5.1 13.9-38.7 28.9-84.1 28.9-44.2 0-77.3-14.2-83.7-27.9-2.8-6-10-8.6-16-5.8s-8.6 10-5.8 16c11.7 25 54.1 41.7 105.5 41.7 24.5 0 48.3-4 67.2-11.4 20.8-8.1 34.5-19.6 39.5-33.3 2.2-6.1-1-13-7.2-15.3zM208.2 267.15c-6.2-2.3-13.1.9-15.4 7.1-5.1 13.9-38.7 28.9-84.1 28.9-44.2 0-77.3-14.2-83.7-27.9-2.8-6-10-8.6-16-5.8s-8.6 10-5.8 16c11.7 25 54.1 41.7 105.5 41.7 24.5 0 48.3-4 67.2-11.4 20.8-8.1 34.5-19.6 39.5-33.3 2.2-6.1-1-13-7.2-15.3zM208.2 328.35c-6.2-2.3-13.1.9-15.4 7.1-5.1 13.9-38.7 28.9-84.1 28.9-44.2 0-77.3-14.2-83.7-27.9-2.8-6-10-8.6-16-5.8s-8.6 10-5.8 16c11.7 25 54.1 41.7 105.5 41.7 24.5 0 48.3-4 67.2-11.4 20.8-8.1 34.5-19.6 39.5-33.3 2.2-6.2-1-13.1-7.2-15.3zM208.2 389.45c-6.2-2.3-13.1.9-15.4 7.1-5.1 13.9-38.7 28.9-84.1 28.9-44.2 0-77.3-14.2-83.7-27.9-2.8-6-10-8.6-16-5.8s-8.6 10-5.8 16c11.7 25 54.1 41.7 105.5 41.7 24.5 0 48.3-4 67.2-11.4 20.8-8.1 34.5-19.6 39.5-33.3 2.2-6.1-1-13-7.2-15.3zM108.7 153.85c-62 0-108.7 24.1-108.7 56.1s46.7 56.1 108.7 56.1 108.7-24.1 108.7-56.1-46.7-56.1-108.7-56.1zm0 88.2c-51.7 0-84.7-19-84.7-32.1s33-32.1 84.7-32.1 84.7 19 84.7 32.1-33 32.1-84.7 32.1z"/></svg>