<svg xmlns="http://www.w3.org/2000/svg" viewBox="0 0 470 470"><path d="M252.5 223h-34.9c-14.5 0-26.3-11.8-26.3-26.3s11.8-26.3 26.3-26.3h61.6c6.6 0 12-5.4 12-12s-5.4-12-12-12h-32.1v-24.5c0-6.6-5.4-12-12-12s-12 5.4-12 12v24.5h-5.5c-27.7 0-50.3 22.6-50.3 50.3s22.6 50.3 50.3 50.3h34.9c14.5 0 26.3 11.8 26.3 26.3s-11.8 26.3-26.3 26.3h-62.7c-6.6 0-12 5.4-12 12s5.4 12 12 12H223v25c0 6.6 5.4 12 12 12s12-5.4 12-12v-25h6.1c27.4-.4 49.6-22.8 49.6-50.3 0-27.8-22.5-50.3-50.2-50.3z"/><path d="M401.2 68.8C356.8 24.4 297.8 0 235 0S113.2 24.4 68.8 68.8 0 172.2 0 235s24.4 121.8 68.8 166.2S172.2 470 235 470s121.8-24.4 166.2-68.8S470 297.8 470 235s-24.4-121.8-68.8-166.2zM235 446c-116.3 0-211-94.7-211-211S118.7 24 235 24s211 94.7 211 211-94.7 211-211 211z"/></svg>