<svg xmlns="http://www.w3.org/2000/svg" viewBox="0 0 488.201 488.201"><path d="M265.2 350.251H33.6c-5.3 0-9.6-4.3-9.6-9.6v-182.6h408.5v24c0 6.6 5.4 12 12 12s12-5.4 12-12v-86.5c0-18.5-15.1-33.6-33.6-33.6H33.6c-18.6 0-33.6 15.1-33.6 33.6v245.1c0 18.5 15.1 33.6 33.6 33.6h231.7c6.6 0 12-5.4 12-12s-5.4-12-12.1-12zM33.6 85.951h389.3c5.3 0 9.6 4.3 9.6 9.6v38.5H23.9v-38.5c0-5.3 4.4-9.6 9.7-9.6z"/><path d="M240.2 247.151c0-6.6-5.4-12-12-12H84c-6.6 0-12 5.4-12 12s5.4 12 12 12h144.2c6.7 0 12-5.4 12-12zm-156.2 31c-6.6 0-12 5.4-12 12s5.4 12 12 12h57.7c6.6 0 12-5.4 12-12s-5.4-12-12-12H84zm-1.4-62.5h144.2c6.6 0 12-5.4 12-12s-5.4-12-12-12H82.6c-6.6 0-12 5.4-12 12s5.3 12 12 12zm393.7 82.6h-17.6v-28c0-34.7-28.3-63-63-63s-63 28.3-63 63v28h-17.6c-6.6 0-12 5.4-12 12v104c0 6.6 5.4 12 12 12h161.1c6.6 0 12-5.4 12-12v-104c.1-6.7-5.3-12-11.9-12zm-119.6-28.1c0-21.5 17.5-39 39-39s39 17.5 39 39v28h-78v-28zm107.6 132H327.1v-80h137.1v80h.1z"/></svg>