<svg xmlns="http://www.w3.org/2000/svg" viewBox="0 0 488.8 488.8"><path d="M467.3 172.1c-13.2-14.3-32-22.2-52.9-22.2h-50.3v-27.2c0-6.6-5.4-12-12-12H112.5c-6.6 0-12 5.4-12 12v41.8H53.8c-6.6 0-12 5.4-12 12s5.4 12 12 12h58.8c6.6 0 12-5.4 12-12v-41.8h215.6v188.1h-113c-.5 0-1 0-1.5.1-6-14.8-20.5-25.3-37.4-25.3-17 0-31.5 10.6-37.4 25.5-.9-.2-1.7-.3-2.6-.3h-23.7v-41.9c0-6.6-5.4-12-12-12H53.8c-6.6 0-12 5.4-12 12s5.4 12 12 12h46.7v41.8c0 6.6 5.4 12 12 12H149c4 18 20.1 31.4 39.3 31.4s35.2-13.4 39.3-31.4h143.8c4.1 17.9 20.1 31.4 39.3 31.4s35.2-13.4 39.3-31.4h26.8c6.6 0 12-5.4 12-12V235c0-25.9-7.5-47.7-21.5-62.9zm-279 182.1c-9 0-16.3-7.3-16.3-16.3s7.3-16.3 16.3-16.3 16.3 7.3 16.3 16.3-7.3 16.3-16.3 16.3zm222.4 0c-9 0-16.3-7.3-16.3-16.3s7.3-16.3 16.3-16.3 16.3 7.3 16.3 16.3c-.1 9-7.4 16.3-16.3 16.3zm54.1-31.4H448c-6-14.7-20.5-25.2-37.3-25.2s-31.3 10.4-37.3 25.2h-9.2V173.9h50.3c31.5 0 50.3 22.9 50.3 61.2v87.7z"/><path d="M206.1 251.2c-4.7 4.7-4.7 12.3 0 17 2.3 2.3 5.4 3.5 8.5 3.5s6.1-1.2 8.5-3.5l30.9-30.9.1-.1c.2-.3.5-.5.7-.8.1-.2.2-.3.3-.5.1-.2.2-.3.4-.5l.3-.6c.1-.2.2-.3.3-.5l.3-.6c.1-.2.2-.3.2-.5.1-.2.1-.4.2-.6.1-.2.1-.4.2-.5.1-.2.1-.4.1-.6 0-.2.1-.4.1-.6 0-.2.1-.4.1-.7 0-.2.1-.3.1-.5.1-.8.1-1.6 0-2.4 0-.2 0-.3-.1-.5 0-.2-.1-.4-.1-.7 0-.2-.1-.4-.1-.6 0-.2-.1-.4-.1-.6-.1-.2-.1-.4-.2-.5-.1-.2-.1-.4-.2-.6-.1-.2-.2-.3-.2-.5l-.3-.6c-.1-.2-.2-.3-.3-.5l-.3-.6c-.1-.2-.2-.3-.4-.5-.1-.2-.2-.3-.3-.5-.2-.3-.5-.5-.7-.8l-.1-.1-29.4-29.4c-4.7-4.7-12.3-4.7-17 0s-4.7 12.3 0 17l8.9 8.9H12c-6.6 0-12 5.4-12 12s5.4 12 12 12h204.4l-10.3 11z"/></svg>