<svg xmlns="http://www.w3.org/2000/svg" viewBox="0 0 486.805 486.805"><path d="M485.9 241.402l-26.8-167c-5.2-41.9-34.5-66-80.4-66H170.9c-19.2 0-36.9 8.3-49.4 21.6-4.5-5.5-11.4-8.9-19-8.9H24.7c-13.6 0-24.7 11.1-24.7 24.7v228.4c0 13.6 11.1 24.7 24.7 24.7h77.9c9 0 17-4.9 21.3-12.2l2.9.7c4.4 1.3 80.8 25 80.8 90.7v84.9c0 5.2 3.4 9.9 8.4 11.4.9.3 12.9 4 28.3 4 13.3 0 29.1-2.7 42.5-12.6 18.4-13.5 27.7-36.5 27.7-68.4v-75.8h105.1c15.6 0 31-5.8 43.3-16.2 18-15.4 26.9-40 23-64zm-382.7 32.9c0 .4-.3.7-.7.7H24.7c-.4 0-.7-.3-.7-.7v-228.4c0-.4.3-.7.7-.7h77.9c.4 0 .7.3.7.7v228.4h-.1zm344.1 12.9c-7.9 6.8-17.8 10.5-27.7 10.5H302.4c-6.6 0-12 5.4-12 12v87.8c0 23.8-6 40.3-17.8 49-13 9.6-30.8 8.6-41.1 7v-75.3c0-35.6-17.3-66.7-49.9-89.9-23.9-16.9-47.6-23.7-48.6-24-.2 0-.3-.1-.5-.1l-5.2-1.2v-191.5c.2-.7.4-1.4.5-2.1 3.3-21 21.8-36.9 43.1-36.9h207.8c33.9 0 52.9 15.2 56.6 45.1 0 .2 0 .3.1.4l26.9 167.1c2.5 15.9-3.3 32-15 42.1z"/></svg>