<svg xmlns="http://www.w3.org/2000/svg" viewBox="0 0 489.8 489.8"><path d="M268.5 286.9h-11.6v-79.6h47.7c6.6 0 12-5.4 12-12s-5.4-12-12-12h-47.7V66.1L281.8 91c4.7 4.7 12.3 4.7 17 0s4.7-12.3 0-17l-45.3-45.3c-2.3-2.3-5.3-3.5-8.5-3.5s-6.2 1.3-8.5 3.5l-45.4 45.4c-4.7 4.7-4.7 12.3 0 17 2.3 2.3 5.4 3.5 8.5 3.5s6.1-1.2 8.5-3.5l24.8-24.9v117.1h-11.6c-35.2 0-63.8 28.6-63.8 63.8s28.6 63.8 63.8 63.8h11.6v79.6h-49.3c-6.6 0-12 5.4-12 12s5.4 12 12 12h49.3v38.1c0 6.6 5.4 12 12 12s12-5.4 12-12v-38.1h11.6c35.2 0 63.8-28.6 63.8-63.8s-28.6-63.8-63.8-63.8zm-47.2 0c-21.9 0-39.8-17.9-39.8-39.8s17.9-39.8 39.8-39.8h11.6v79.6h-11.6zm47.2 103.6h-11.6v-79.6h11.6c21.9 0 39.8 17.9 39.8 39.8 0 22-17.8 39.8-39.8 39.8zm168.7-109.2h-6.5v-56.9h34.7c6.6 0 12-5.4 12-12s-5.4-12-12-12h-34.7v-82.7l14.9 14.9c4.7 4.7 12.3 4.7 17 0s4.7-12.3 0-17l-35.4-35.4c-4.7-4.7-12.3-4.7-17 0l-35.5 35.5c-4.7 4.7-4.7 12.3 0 17 2.3 2.3 5.4 3.5 8.5 3.5s6.1-1.2 8.5-3.5l14.9-14.9v82.5h-6.5c-28.9 0-52.5 23.5-52.5 52.5s23.5 52.5 52.5 52.5h6.5v56.9h-35.7c-6.6 0-12 5.4-12 12s5.4 12 12 12h35.9v27.2c0 6.6 5.4 12 12 12s12-5.4 12-12v-27.2h6.5c28.9 0 52.5-23.5 52.5-52.5s-23.6-52.4-52.6-52.4zm-36.9 0c-15.7 0-28.5-12.8-28.5-28.5s12.8-28.5 28.5-28.5h6.5v56.9h-6.5v.1zm36.9 80.9h-6.5v-56.9h6.5c15.7 0 28.5 12.8 28.5 28.5 0 15.6-12.8 28.4-28.5 28.4zM89.5 281.3H83v-56.9h34.7c6.6 0 12-5.4 12-12s-5.4-12-12-12H83v-82.7l14.9 14.9c4.7 4.7 12.3 4.7 17 0s4.7-12.3 0-17L79.6 80.3c-4.7-4.7-12.3-4.7-17 0l-35.5 35.5c-4.7 4.7-4.7 12.3 0 17 2.3 2.3 5.4 3.5 8.5 3.5s6.1-1.2 8.5-3.5L59 117.9v82.5h-6.5C23.6 200.4 0 223.9 0 252.9s23.5 52.5 52.5 52.5H59v56.8H23.2c-6.6 0-12 5.4-12 12s5.4 12 12 12h35.9v27.2c0 6.6 5.4 12 12 12s12-5.4 12-12v-27.2h6.5c28.9 0 52.5-23.5 52.5-52.5s-23.7-52.4-52.6-52.4zm-36.9 0c-15.7 0-28.5-12.8-28.5-28.5s12.8-28.5 28.5-28.5h6.5v56.9h-6.5v.1zm36.9 80.9H83v-56.9h6.5c15.7 0 28.5 12.8 28.5 28.5 0 15.6-12.8 28.4-28.5 28.4z"/></svg>