<svg xmlns="http://www.w3.org/2000/svg" viewBox="0 0 484.9 484.9"><path d="M329.35 345.1l-75-43.3v-86.6c0-6.6-5.4-12-12-12s-12 5.4-12 12v86.6l-75 43.3c-5.7 3.3-7.7 10.7-4.4 16.4 2.2 3.9 6.3 6 10.4 6 2 0 4.1-.5 6-1.6l75-43.3 75 43.3c1.9 1.1 4 1.6 6 1.6 4.1 0 8.2-2.2 10.4-6 3.3-5.7 1.3-13.1-4.4-16.4zM230.15 103.3h24.5c8.2 0 14.8 6.7 14.8 14.8s-6.7 14.8-14.8 14.8h-44c-6.6 0-12 5.4-12 12s5.4 12 12 12h19.7v13.9c0 6.6 5.4 12 12 12s12-5.4 12-12v-13.9h.8c21.2-.3 38.3-17.6 38.3-38.8 0-21.4-17.4-38.8-38.8-38.8h-24.5c-8.2 0-14.8-6.7-14.8-14.8s6.7-14.8 14.8-14.8h43.2c6.6 0 12-5.4 12-12s-5.4-12-12-12h-19V12c0-6.6-5.4-12-12-12s-12 5.4-12 12v13.6h-.2c-21.4 0-38.8 17.4-38.8 38.8s17.4 38.9 38.8 38.9zM415.75 368.5h-24.5c-8.2 0-14.8-6.7-14.8-14.8s6.7-14.8 14.8-14.8h43.2c6.6 0 12-5.4 12-12s-5.4-12-12-12h-18.9v-13.6c0-6.6-5.4-12-12-12s-12 5.4-12 12v13.6h-.2c-21.4 0-38.8 17.4-38.8 38.8s17.4 38.8 38.8 38.8h24.5c8.2 0 14.8 6.7 14.8 14.8s-6.7 14.8-14.8 14.8h-44c-6.6 0-12 5.4-12 12s5.4 12 12 12h19.7V460c0 6.6 5.4 12 12 12s12-5.4 12-12v-13.9h.8c21.2-.3 38.3-17.6 38.3-38.8-.1-21.4-17.5-38.8-38.9-38.8zM93.45 381.4h-24.5c-8.2 0-14.8-6.7-14.8-14.8s6.7-14.8 14.8-14.8h43.2c6.6 0 12-5.4 12-12s-5.4-12-12-12h-18.9v-13.6c0-6.6-5.4-12-12-12s-12 5.4-12 12v13.6h-.2c-21.4 0-38.8 17.4-38.8 38.8s17.4 38.8 38.8 38.8h24.5c8.2 0 14.8 6.7 14.8 14.8s-6.7 14.8-14.8 14.8h-44c-6.6 0-12 5.4-12 12s5.4 12 12 12h19.7v13.9c0 6.6 5.4 12 12 12s12-5.4 12-12V459h.8c21.2-.3 38.3-17.6 38.3-38.8-.1-21.3-17.5-38.8-38.9-38.8z"/></svg>