<svg xmlns="http://www.w3.org/2000/svg" viewBox="0 0 449.8 449.8"><path d="M418.45 130h-226.1c-6.6 0-12 5.4-12 12s5.4 12 12 12h226.1c6.6 0 12-5.4 12-12s-5.3-12-12-12zm-226.1-74.6h226.1c6.6 0 12-5.4 12-12s-5.4-12-12-12h-226.1c-6.6 0-12 5.4-12 12s5.4 12 12 12zm226.1 173.2H39.35c-6.6 0-12 5.4-12 12s5.4 12 12 12h379.1c6.6 0 12-5.4 12-12s-5.3-12-12-12zm0 98.6H39.35c-6.6 0-12 5.4-12 12s5.4 12 12 12h379.1c6.6 0 12-5.4 12-12s-5.3-12-12-12zm0 98.6H39.35c-6.6 0-12 5.4-12 12s5.4 12 12 12h379.1c6.6 0 12-5.4 12-12s-5.3-12-12-12zM62.05 114.7h28c10.3 0 18.7 8.4 18.7 18.7 0 10.3-8.4 18.7-18.7 18.7h-50.3c-6.6 0-12 5.4-12 12s5.4 12 12 12h24.3v17.6c0 6.6 5.4 12 12 12s12-5.4 12-12v-17.6h2.6c23.3-.3 42.1-19.3 42.1-42.7 0-23.5-19.1-42.7-42.7-42.7h-28c-10.3 0-18.7-8.4-18.7-18.7s8.4-18.7 18.7-18.7h49.4c6.6 0 12-5.4 12-12s-5.4-12-12-12h-23.4V12c0-6.6-5.4-12-12-12s-12 5.4-12 12v17.3h-2c-23.5 0-42.7 19.1-42.7 42.7.1 23.5 19.2 42.7 42.7 42.7z"/></svg>