<svg xmlns="http://www.w3.org/2000/svg" viewBox="0 0 478.4 478.4"><path d="M261 226.95h-43.6c-19.7 0-35.8-16.1-35.8-35.8s16.1-35.8 35.8-35.8h76.9c6.6 0 12-5.4 12-12s-5.4-12-12-12h-43.1v-33.6c0-6.6-5.4-12-12-12s-12 5.4-12 12v33.6h-9.8c-33 0-59.8 26.8-59.8 59.8s26.8 59.8 59.8 59.8H261c19.7 0 35.8 16.1 35.8 35.8s-16.1 35.8-35.8 35.8h-78.3c-6.6 0-12 5.4-12 12s5.4 12 12 12h44.5v34.1c0 6.6 5.4 12 12 12s12-5.4 12-12v-34.1h10.5c32.6-.4 59-27.1 59-59.8.1-32.9-26.7-59.8-59.7-59.8zm-180.6.1H47.7c-13.1 0-23.8-10.7-23.8-23.8s10.7-23.8 23.8-23.8h57.5c6.6 0 12-5.4 12-12s-5.4-12-12-12H76.1v-22.1c0-6.6-5.4-12-12-12s-12 5.4-12 12v22.1h-4.3c-26.3 0-47.8 21.4-47.8 47.8s21.4 47.8 47.8 47.8h32.6c13.1 0 23.8 10.7 23.8 23.8s-10.7 23.8-23.8 23.8H21.7c-6.6 0-12 5.4-12 12s5.4 12 12 12H52v22.5c0 6.6 5.4 12 12 12s12-5.4 12-12v-22.5h4.9c26-.3 47.1-21.6 47.1-47.8.1-26.4-21.3-47.8-47.6-47.8zm350.3 0h-32.6c-13.1 0-23.8-10.7-23.8-23.8s10.7-23.8 23.8-23.8h57.5c6.6 0 12-5.4 12-12s-5.4-12-12-12h-29.2v-22.1c0-6.6-5.4-12-12-12s-12 5.4-12 12v22.1h-4.3c-26.3 0-47.8 21.4-47.8 47.8s21.4 47.8 47.8 47.8h32.6c13.1 0 23.8 10.7 23.8 23.8s-10.7 23.8-23.8 23.8h-58.6c-6.6 0-12 5.4-12 12s5.4 12 12 12h30.3v22.5c0 6.6 5.4 12 12 12s12-5.4 12-12v-22.5h4.9c26-.3 47.1-21.6 47.1-47.8 0-26.4-21.4-47.8-47.7-47.8z"/></svg>