<svg xmlns="http://www.w3.org/2000/svg" viewBox="0 0 476 476"><path d="M400.85 181v-18.3c0-43.8-15.5-84.5-43.6-114.7-28.8-31-68.4-48-111.6-48h-15.1c-43.2 0-82.8 17-111.6 48-28.1 30.2-43.6 70.9-43.6 114.7V181c-34.1 2.3-61.2 30.7-61.2 65.4V275c0 36.1 29.4 65.5 65.5 65.5h36.9c6.6 0 12-5.4 12-12V192.8c0-6.6-5.4-12-12-12h-17.2v-18.1c0-79.1 56.4-138.7 131.1-138.7h15.1c74.8 0 131.1 59.6 131.1 138.7v18.1h-17.2c-6.6 0-12 5.4-12 12v135.6c0 6.6 5.4 12 12 12h16.8c-4.9 62.6-48 77.1-68 80.4-5.5-16.9-21.4-29.1-40.1-29.1h-30c-23.2 0-42.1 18.9-42.1 42.1s18.9 42.2 42.1 42.2h30.1c19.4 0 35.7-13.2 40.6-31 9.8-1.4 25.3-4.9 40.7-13.9 21.7-12.7 47.4-38.6 50.8-90.8 34.3-2.1 61.5-30.6 61.5-65.4v-28.6c.1-34.6-26.9-63.1-61-65.3zm-296.1 135.4h-24.9c-22.9 0-41.5-18.6-41.5-41.5v-28.6c0-22.9 18.6-41.5 41.5-41.5h24.9v111.6zM268.25 452h-30.1c-10 0-18.1-8.1-18.1-18.1s8.1-18.1 18.1-18.1h30.1c10 0 18.1 8.1 18.1 18.1s-8.1 18.1-18.1 18.1zm169.7-177.1c0 22.9-18.6 41.5-41.5 41.5h-24.9V204.8h24.9c22.9 0 41.5 18.6 41.5 41.5v28.6z"/></svg>