<svg xmlns="http://www.w3.org/2000/svg" viewBox="0 0 465.8 465.8"><path d="M175.2 111.1l50.5 37.3c2.1 1.6 4.6 2.3 7.1 2.3s5-.8 7.1-2.3l50.5-37.3c3.1-2.3 4.9-5.8 4.9-9.7V36.8c0-6.6-5.4-12-12-12H182.4c-6.6 0-12 5.4-12 12v64.6c0 3.8 1.8 7.4 4.8 9.7zm19.2-62.3h77.1v46.5l-38.6 28.5-38.5-28.4V48.8z"/><path d="M415.6 75.8h-89.5c-6.6 0-12 5.4-12 12s5.4 12 12 12h89.5c14.5 0 26.2 11.8 26.2 26.2v264.8c0 14.5-11.8 26.2-26.2 26.2H50.2C35.7 417 24 405.2 24 390.8V126c0-14.5 11.8-26.2 26.2-26.2h89.4c6.6 0 12-5.4 12-12s-5.4-12-12-12H50.2C22.5 75.8 0 98.3 0 126v264.8C0 418.5 22.5 441 50.2 441h365.4c27.7 0 50.2-22.5 50.2-50.2V126c0-27.7-22.5-50.2-50.2-50.2z"/><path d="M86.9 201.5c0 23.1 18.8 41.9 41.9 41.9s41.9-18.8 41.9-41.9-18.8-41.9-41.9-41.9-41.9 18.8-41.9 41.9zm59.8 0c0 9.9-8 17.9-17.9 17.9s-17.9-8-17.9-17.9 8-17.9 17.9-17.9c9.9 0 17.9 8 17.9 17.9zM128.8 252c-23.7 0-42.9 11-55.5 31.8-9.1 15-14.8 35.3-17.1 60.3-.6 6.6 4.3 12.4 10.9 13 6.6.6 12.4-4.3 13-10.9 4.3-46.6 20.7-70.2 48.7-70.2s44.4 23.6 48.7 70.2c.6 6.2 5.8 10.9 11.9 10.9.4 0 .7 0 1.1-.1 6.6-.6 11.5-6.4 10.9-13-2.3-25-8.1-45.2-17.1-60.3-12.6-20.7-31.8-31.7-55.5-31.7zM381.3 182h-134c-6.6 0-12 5.4-12 12s5.4 12 12 12h134c6.6 0 12-5.4 12-12s-5.4-12-12-12zM393.3 279.9c0-6.6-5.4-12-12-12h-134c-6.6 0-12 5.4-12 12s5.4 12 12 12h134c6.6 0 12-5.3 12-12zM247.3 310.7c-6.6 0-12 5.4-12 12s5.4 12 12 12h67c6.6 0 12-5.4 12-12s-5.4-12-12-12h-67zM381.3 224.8h-134c-6.6 0-12 5.4-12 12s5.4 12 12 12h134c6.6 0 12-5.4 12-12s-5.4-12-12-12z"/></svg>