<svg xmlns="http://www.w3.org/2000/svg" viewBox="0 0 484 484"><path d="M271.1 411.311h-118c-20.6 0-37.4-16.8-37.4-37.4v-164.4l4.3-1.4c2.6-.8 22.9-6.9 43.3-21.4 29.4-20.8 44.9-48.8 44.9-80.9v-65.7c9.1-1.3 23.7-1.8 34.4 6.1 10.1 7.5 15.3 21.8 15.3 42.4v77.9c0 6.6 5.4 12 12 12h103.9c20.3 0 38.2 18.4 38.2 39.4v14c0 6.6 5.4 12 12 12s12-5.4 12-12v-14c0-16.1-6.7-32.2-18.3-44.2-11.8-12.2-27.8-19.2-43.9-19.2h-91.9v-65.9c0-28.8-8.5-49.6-25.2-61.8-26.4-19.4-62.6-8.3-64.1-7.9-5 1.6-8.4 6.2-8.4 11.4v75.4c0 24.1-11.5 44.6-34.2 60.9-18 12.9-36.5 18.3-36.6 18.3s-.3.1-.4.1l-1.4.5c-4.4-6.6-12-10.9-20.5-10.9H24.7c-13.6 0-24.7 11.1-24.7 24.7v199.9c0 13.6 11.1 24.7 24.7 24.7H91c7 0 13.3-2.9 17.8-7.6 11.2 11.6 26.9 18.9 44.3 18.9h118c6.6 0 12-5.4 12-12s-5.4-11.9-12-11.9zm-179.4-12c0 .4-.3.7-.7.7H24.7c-.4 0-.7-.3-.7-.7v-199.9c0-.4.3-.7.7-.7H91c.4 0 .7.3.7.7v199.9z"/><path d="M471.8 344.211h-16.5v-26.7c0-33.8-27.5-61.2-61.2-61.2s-61.2 27.5-61.2 61.2v26.7h-16.5c-6.6 0-12 5.4-12 12v100.4c0 6.6 5.4 12 12 12H472c6.6 0 12-5.4 12-12v-100.4c-.2-6.6-5.6-12-12.2-12zm-115.1-26.6c0-20.5 16.7-37.2 37.2-37.2s37.2 16.7 37.2 37.2v26.7h-74.5v-26.7h.1zm103.1 127H328.2v-76.4h131.6v76.4z"/></svg>