<svg xmlns="http://www.w3.org/2000/svg" viewBox="0 0 486.926 486.926"><path d="M462.8 181.564c-12.3-10.5-27.7-16.2-43.3-16.2H314.4v-75.9c0-31.9-9.3-54.9-27.7-68.4-29.1-21.4-69.2-9.2-70.9-8.6-5 1.6-8.4 6.2-8.4 11.4v84.9c0 27.7-13.2 51.2-39.3 69.9-19.5 14-39.4 20.1-41.5 20.8l-2.9.7c-4.3-7.3-12.2-12.2-21.3-12.2H24.7c-13.6 0-24.7 11.1-24.7 24.7v228.4c0 13.6 11.1 24.7 24.7 24.7h77.9c7.6 0 14.5-3.5 19-8.9 12.5 13.3 30.2 21.6 49.4 21.6h207.8c45.9 0 75.2-24 80.4-66l26.9-166.9c3.7-24-5.2-48.6-23.3-64zm-359.6 259.5c0 .4-.3.7-.7.7H24.7c-.4 0-.7-.3-.7-.7v-228.4c0-.4.3-.7.7-.7h77.9c.4 0 .7.3.7.7v228.4h-.1zm359-199.3l-26.8 167.2c0 .1 0 .3-.1.5-3.7 29.9-22.7 45.1-56.6 45.1H170.9c-21.3 0-39.8-15.9-43.1-36.9-.1-.7-.3-1.4-.5-2.1v-191.6l5.2-1.2c.2 0 .3-.1.5-.1 1-.3 24.7-7 48.6-24 32.7-23.2 49.9-54.3 49.9-89.9v-75.3c10.4-1.7 28.2-2.6 41.1 7 11.8 8.7 17.8 25.2 17.8 49v87.8c0 6.6 5.4 12 12 12h117.1c9.9 0 19.8 3.7 27.7 10.5 11.8 10.1 17.6 26.2 15 42z"/></svg>