<svg xmlns="http://www.w3.org/2000/svg" viewBox="0 0 484.4 484.4"><path d="M164.9 197.5c0-6.6-5.4-12-12-12H56.7c-6.6 0-12 5.4-12 12s5.4 12 12 12h96.2c6.6 0 12-5.4 12-12zM427.7 185.5h-96.2c-6.6 0-12 5.4-12 12s5.4 12 12 12h96.2c6.6 0 12-5.4 12-12s-5.3-12-12-12zM242.2 120.2c6.6 0 12-5.4 12-12V12c0-6.6-5.4-12-12-12s-12 5.4-12 12v96.2c0 6.6 5.4 12 12 12zM305.3 146.4c3.1 0 6.1-1.2 8.5-3.5l68.1-68.1c4.7-4.7 4.7-12.3 0-17s-12.3-4.7-17 0l-68.1 68.1c-4.7 4.7-4.7 12.3 0 17 2.4 2.3 5.5 3.5 8.5 3.5zM170.6 142.9c2.3 2.3 5.4 3.5 8.5 3.5s6.1-1.2 8.5-3.5c4.7-4.7 4.7-12.3 0-17l-68.1-68.1c-4.7-4.7-12.3-4.7-17 0s-4.7 12.3 0 17l68.1 68.1z"/><path d="M386.4 273.2c-9.1-7.8-20.6-12.1-32.3-12.1h-68.7v-48.5c0-23.2-6.9-40.1-20.6-50.2-21.6-15.8-50.9-6.9-52.2-6.5-5 1.6-8.4 6.2-8.4 11.4v58.5c0 17.8-8.5 32.9-25.4 45-12.8 9.2-25.9 13.4-27.6 13.9l-1.2.3c-4.5-5.1-11.1-8.3-18.5-8.3H85.9c-13.6 0-24.7 11.1-24.7 24.7V451c0 13.6 11.1 24.7 24.7 24.7h45.8c6 0 11.6-2.2 15.8-5.8 9.2 9 21.7 14.5 35.2 14.5H326c14.4 0 27.1-3.5 36.8-10 12.4-8.4 20.1-21.7 22.3-38.7l18.5-115c2.9-17.8-3.7-36-17.2-47.5zM132.4 451c0 .4-.3.7-.7.7H85.9c-.4 0-.7-.3-.7-.7V301.4c0-.4.3-.7.7-.7h45.8c.4 0 .7.3.7.7V451zm247.5-134l-18.5 115.2c0 .1 0 .3-.1.5-.8 6.9-3.4 27.8-35.3 27.8H182.7c-12.8 0-24-9.6-26-22.3-.1-.5-.2-1-.3-1.4V308.2l.7-.2c.2 0 .3-.1.5-.1.7-.2 17.7-5 34.6-17.1 23.5-16.7 36-39.2 36-65v-48.6c6.6-.7 15.7-.4 22.4 4.5 7.2 5.3 10.8 15.7 10.8 30.8V273c0 6.6 5.4 12 12 12H354.1c6 0 11.9 2.3 16.7 6.3 7.2 6.2 10.6 16 9.1 25.7z"/></svg>