<svg xmlns="http://www.w3.org/2000/svg" viewBox="0 0 478.701 478.701"><path d="M162.2 195.651v-89.1c0-6.6-5.4-12-12-12h-13.3v-22.3c0-30.7-25-55.7-55.7-55.7s-55.8 25-55.8 55.7v22.3H12c-6.6 0-12 5.4-12 12v89.1c0 6.6 5.4 12 12 12h138.1c6.7 0 12.1-5.4 12.1-12zM49.4 72.251c0-17.5 14.2-31.7 31.7-31.7s31.7 14.2 31.7 31.7v22.3H49.4v-22.3zm88.8 111.4H24v-65.1h114.1v65.1h.1z"/><path d="M466.8 94.051H189.3c-6.6 0-12 5.4-12 12s5.4 12 12 12h265.5v249.1H93.1v-133.1c0-6.6-5.4-12-12-12s-12 5.4-12 12v145.1c0 6.6 5.4 12 12 12h180.8v47h-70.5c-6.6 0-12 5.4-12 12s5.4 12 12 12h165c6.6 0 12-5.4 12-12s-5.4-12-12-12h-70.5v-47h180.8c6.6 0 12-5.4 12-12v-273.1c.1-6.6-5.3-12-11.9-12z"/><path d="M273.9 145.051c-6.6 0-12 5.4-12 12v15.6h-1.2c-22.6 0-40.9 18.4-40.9 40.9 0 22.6 18.4 40.9 40.9 40.9h26.4c9.3 0 16.9 7.6 16.9 16.9s-7.6 16.9-16.9 16.9h-47.4c-6.6 0-12 5.4-12 12s5.4 12 12 12h22.2v15.9c0 6.6 5.4 12 12 12s12-5.4 12-12v-15.9h1.7c22.3-.3 40.4-18.5 40.4-40.9 0-22.6-18.4-40.9-40.9-40.9h-26.4c-9.3 0-16.9-7.6-16.9-16.9 0-9.3 7.6-16.9 16.9-16.9h46.5c6.6 0 12-5.4 12-12s-5.4-12-12-12h-21.3v-15.6c0-6.7-5.3-12-12-12z"/></svg>