<svg xmlns="http://www.w3.org/2000/svg" viewBox="0 0 478.4 478.4"><path d="M466.4 24.45H12c-6.6 0-12 5.4-12 12v321.8c0 6.6 5.4 12 12 12h215.2v59.7H142c-6.6 0-12 5.4-12 12s5.4 12 12 12h194.4c6.6 0 12-5.4 12-12s-5.4-12-12-12h-85.2v-59.7h215.2c6.6 0 12-5.4 12-12V36.45c0-6.6-5.3-12-12-12zm-12 321.8H24V48.45h430.5v297.8h-.1z"/><path d="M224.6 213.15h30.8c12 0 21.8 9.8 21.8 21.8s-9.8 21.8-21.8 21.8H200c-6.6 0-12 5.4-12 12s5.4 12 12 12h28v20.6c0 6.6 5.4 12 12 12s12-5.4 12-12v-20.6h4c25-.3 45.2-20.8 45.2-45.8 0-25.3-20.5-45.8-45.8-45.8h-30.8c-12 0-21.8-9.8-21.8-21.8s9.8-21.8 21.8-21.8H279c6.6 0 12-5.4 12-12s-5.4-12-12-12h-27v-20.3c0-6.6-5.4-12-12-12s-12 5.4-12 12v20.3h-3.4c-25.3 0-45.8 20.5-45.8 45.8 0 25.2 20.5 45.8 45.8 45.8z"/></svg>