<svg xmlns="http://www.w3.org/2000/svg" viewBox="0 0 463.101 463.101"><path d="M451.2 42.401c-6.6 0-12 5.4-12 12v318.5c0 33.7-27.4 61-61 61H85c-33.7 0-61-27.4-61-61v-343.6h351.3v309c0 6.6 5.4 12 12 12s12-5.4 12-12v-321c0-6.6-5.4-12-12-12H12c-6.6 0-12 5.4-12 12v355.5c0 46.9 38.1 85 85 85h293.1c46.9 0 85-38.1 85-85v-318.4c.1-6.6-5.3-12-11.9-12z"/><path d="M329.3 98.501c6.6 0 12-5.4 12-12s-5.4-12-12-12H67.7c-6.6 0-12 5.4-12 12s5.4 12 12 12h261.6zM329.3 319.101H67.7c-6.6 0-12 5.4-12 12s5.4 12 12 12h261.5c6.6 0 12-5.4 12-12s-5.3-12-11.9-12zM329.3 380.601H109.2c-6.6 0-12 5.4-12 12s5.4 12 12 12h220.1c6.6 0 12-5.4 12-12s-5.4-12-12-12zM51.7 140.401v129.8c0 6.6 5.4 12 12 12H194c6.6 0 12-5.4 12-12v-129.8c0-6.6-5.4-12-12-12H63.7c-6.6 0-12 5.4-12 12zm24 12H182v105.8H75.7v-105.8zM335.7 140.401h-86.3c-6.6 0-12 5.4-12 12s5.4 12 12 12h86.3c6.6 0 12-5.4 12-12s-5.3-12-12-12zM335.7 194.601h-86.3c-6.6 0-12 5.4-12 12s5.4 12 12 12h86.3c6.6 0 12-5.4 12-12s-5.3-12-12-12zM347.7 264.201c0-6.6-5.4-12-12-12h-86.3c-6.6 0-12 5.4-12 12s5.4 12 12 12h86.3c6.7 0 12-5.4 12-12z"/></svg>