<svg xmlns="http://www.w3.org/2000/svg" viewBox="0 0 467.2 467.2"><path d="M342.146 306.2h-16.9v-31.4c0-6.6-5.4-12-12-12s-12 5.4-12 12v31.4h-42.1l36.2-84.5c2.6-6.1-.2-13.1-6.3-15.8-6.1-2.6-13.1.2-15.8 6.3l-43.4 101.3c-1.6 3.7-1.2 8 1 11.3s6 5.4 10 5.4h60.3v31.4c0 6.6 5.4 12 12 12s12-5.4 12-12v-31.4h16.9c6.6 0 12-5.4 12-12s-5.3-12-11.9-12zM211.946 349.6h-60.9l44.6-52.6 1.1-1.2c0-.1.1-.1.1-.2 8.1-9.9 12.6-22.4 12.6-35.2 0-30.5-24.9-55.4-55.4-55.4-8.7 0-17.3 2.1-25 6-5.9 3-8.3 10.2-5.3 16.1 3 5.9 10.2 8.3 16.1 5.3 4.4-2.2 9.2-3.4 14.2-3.4 17.3 0 31.4 14.1 31.4 31.4 0 7.3-2.4 14.2-7.1 19.8l-62.4 73.5c-3 3.6-3.7 8.6-1.7 12.8 2 4.2 6.2 7 10.9 7h86.8c6.6 0 12-5.4 12-12s-5.4-11.9-12-11.9z"/><path d="M455.146 120.9l-91.7-116.3c-2.3-2.9-5.7-4.6-9.4-4.6h-240.8c-3.7 0-7.1 1.7-9.4 4.6l-91.7 116.3c-1.7 2.1-2.6 4.7-2.6 7.4v326.9c0 6.6 5.4 12 12 12h424.1c6.6 0 12-5.4 12-12V128.3c.1-2.7-.8-5.3-2.5-7.4zm-32.6-2.6h-176.9V24h102.6l74.3 94.3zM119.046 24h102.6v94.3h-176.9l74.3-94.3zm-85.5 419.2V142.3h400.1v300.9h-400.1z"/></svg>