<svg xmlns="http://www.w3.org/2000/svg" viewBox="0 0 487.4 487.4"><path d="M475.3 348.25h-18.7v-29.6c0-35.8-29.2-65-65-65s-65 29.2-65 65c0 6.6 5.4 12 12 12s12-5.4 12-12c0-22.6 18.4-41 41-41s41 18.4 41 41v29.6H307.9c-6.6 0-12 5.4-12 12v108c0 6.6 5.4 12 12 12h167.5c6.6 0 12-5.4 12-12v-108c-.1-6.7-5.4-12-12.1-12zm-12 108H319.9v-84h143.5v84h-.1z"/><path d="M266.3 403.85H24.1v-268.5h355.5v88.7c0 6.6 5.4 12 12 12s12-5.4 12-12v-100.7c0-.4 0-.8-.1-1.1v-.4c0-.2-.1-.5-.1-.7s-.1-.3-.1-.5-.1-.4-.1-.6c0-.2-.1-.3-.1-.5-.1-.2-.1-.4-.2-.5-.1-.2-.1-.3-.2-.5l-.3-.6c-.1-.1-.1-.3-.2-.4-.2-.3-.3-.6-.5-.9-.1-.1-.1-.2-.2-.3-.1-.2-.2-.3-.3-.5l-82-104.1c-2.3-2.9-5.7-4.6-9.4-4.6H94.1c-3.7 0-7.1 1.7-9.4 4.6l-82 104.1c-.1.1-.2.3-.3.4-.1.1-.2.2-.2.3-.2.3-.3.5-.5.8-.1.2-.2.3-.3.5l-.3.6c-.1.2-.1.3-.2.5s-.1.3-.2.5-.1.3-.2.5-.1.4-.1.6c0 .2-.1.3-.1.5s-.1.4-.1.7c0 .1 0 .3-.1.4 0 .4-.1.7-.1 1.1v292.5c0 6.6 5.4 12 12 12h254.2c6.6 0 12-5.4 12-12 .1-6.5-5.3-11.9-11.9-11.9zm100.6-292.5h-153v-80.1h89.9l63.1 80.1zm-267-80.1h89.9v80.1h-153l63.1-80.1z"/></svg>