<svg xmlns="http://www.w3.org/2000/svg" viewBox="0 0 486.025 486.025"><path d="M420.725 85.413c-42.1-42.1-98.1-65.3-157.6-65.3-60.6 0-117.3 23.9-159.6 67.3-4.6 4.7-4.5 12.3.2 17 4.7 4.6 12.3 4.5 17-.2 37.8-38.7 88.3-60 142.4-60 109.7-.1 198.9 89.1 198.9 198.8s-89.2 198.9-198.9 198.9-198.9-89.2-198.9-198.9v-2.5l19.8 19.8c2.3 2.3 5.4 3.5 8.5 3.5s6.1-1.2 8.5-3.5c4.7-4.7 4.7-12.3 0-17l-40.2-40.3c-4.7-4.7-12.3-4.7-17 0l-40.3 40.3c-4.7 4.7-4.7 12.3 0 17 2.3 2.3 5.4 3.5 8.5 3.5s6.1-1.2 8.5-3.5l19.8-19.8v2.5c0 59.5 23.2 115.5 65.3 157.6s98.1 65.3 157.6 65.3 115.5-23.2 157.6-65.3 65.2-98.1 65.2-157.6-23.2-115.5-65.3-157.6z"/><path d="M263.125 113.413c-39 0-70.7 31.7-70.7 70.7v34.1h-22c-6.6 0-12 5.4-12 12v119.7c0 6.6 5.4 12 12 12h185.5c6.6 0 12-5.4 12-12v-119.6c0-6.6-5.4-12-12-12h-22v-34.1c0-39-31.8-70.8-70.8-70.8zm-46.7 70.8c0-25.8 21-46.7 46.7-46.7s46.7 21 46.7 46.7v34.1h-93.4v-34.1zm127.5 153.7h-161.5v-95.7h161.5v95.7z"/></svg>