<svg xmlns="http://www.w3.org/2000/svg" viewBox="0 0 481.1 481.1"><path d="M445.2 77.4H326V44.9c0-19.8-16.1-35.8-35.9-35.8H35.8C16 9.1 0 25.2 0 44.9v391.3C0 456 16.1 472 35.8 472h254.3c19.8 0 35.9-16.1 35.9-35.8v-48.7h119.2c19.8 0 35.9-16.1 35.9-35.8V113.3c-.1-19.8-16.2-35.9-35.9-35.9zm-35.3 24v262.1h-23.1V101.4h23.1zM302 436.1c0 6.5-5.3 11.8-11.9 11.8H35.8c-6.5 0-11.8-5.3-11.8-11.8V44.9c0-6.5 5.3-11.8 11.8-11.8h254.3c6.5 0 11.9 5.3 11.9 11.8v391.2zm24-334.7h36.9v262.1H326V101.4zm131 250.2c0 6.5-5.3 11.8-11.9 11.8h-11.2v-262h11.2c6.5 0 11.9 5.3 11.9 11.8v238.4z"/><path d="M94.2 223.7h137.5c16.9 0 30.6-13.7 30.6-30.6v-89.9c0-16.9-13.7-30.6-30.6-30.6H94.2c-16.9 0-30.6 13.7-30.6 30.6v89.9c0 16.9 13.7 30.6 30.6 30.6zm-6.6-120.5c0-3.7 3-6.6 6.6-6.6h137.5c3.7 0 6.6 3 6.6 6.6v89.9c0 3.7-3 6.6-6.6 6.6H94.2c-3.7 0-6.6-3-6.6-6.6v-89.9zm3.9 170.3H75.6c-6.6 0-12 5.4-12 12s5.4 12 12 12h15.9c6.6 0 12-5.4 12-12s-5.4-12-12-12zm79.4 0H155c-6.6 0-12 5.4-12 12s5.4 12 12 12h15.9c6.6 0 12-5.4 12-12s-5.4-12-12-12zm79.5 0h-15.9c-6.6 0-12 5.4-12 12s5.4 12 12 12h15.9c6.6 0 12-5.4 12-12s-5.4-12-12-12zM91.5 327.7H75.6c-6.6 0-12 5.4-12 12s5.4 12 12 12h15.9c6.6 0 12-5.4 12-12s-5.4-12-12-12zm79.4 0H155c-6.6 0-12 5.4-12 12s5.4 12 12 12h15.9c6.6 0 12-5.4 12-12s-5.4-12-12-12zm79.5 0h-15.9c-6.6 0-12 5.4-12 12s5.4 12 12 12h15.9c6.6 0 12-5.4 12-12s-5.4-12-12-12zM91.5 381.9H75.6c-6.6 0-12 5.4-12 12s5.4 12 12 12h15.9c6.6 0 12-5.4 12-12s-5.4-12-12-12zm79.4 0H155c-6.6 0-12 5.4-12 12s5.4 12 12 12h15.9c6.6 0 12-5.4 12-12s-5.4-12-12-12zm79.5 0h-15.9c-6.6 0-12 5.4-12 12s5.4 12 12 12h15.9c6.6 0 12-5.4 12-12s-5.4-12-12-12z"/></svg>