<svg xmlns="http://www.w3.org/2000/svg" viewBox="0 0 476.2 476.2"><path d="M433.812 19.9c-12.8-12.8-29.8-19.9-48-19.9s-35.1 7.1-48 19.9c-4.7 4.7-4.7 12.3 0 17 4.7 4.7 12.3 4.7 17 0 8.3-8.3 19.3-12.8 31-12.8s22.7 4.6 31 12.8c17.1 17.1 17.1 44.9 0 62-.3.3-.6.6-.8.9-.3.3-.6.5-.9.8l-18.2 18.2-101.2-101.1c-4.7-4.7-12.3-4.7-17 0l-155 155c-4.7 4.7-4.7 12.3 0 17 2.3 2.3 5.4 3.5 8.5 3.5s6.1-1.2 8.5-3.5l146.5-146.6 13.7 13.7-235.2 235.3c-2.3 2.3-3.5 5.3-3.5 8.5s1.3 6.2 3.5 8.5l7.6 7.6-33.5 33.4c-2.3 2.3-3.5 5.3-3.5 8.5s1.3 6.2 3.5 8.5l14.9 14.9-28.6 28.6c-4.7 4.7-4.7 12.3 0 17 2.3 2.3 5.4 3.5 8.5 3.5s6.1-1.2 8.5-3.5l28.6-28.6 14.9 14.9c2.3 2.3 5.3 3.5 8.5 3.5s6.2-1.3 8.5-3.5l33.5-33.5 7.6 7.6c2.3 2.3 5.4 3.5 8.5 3.5s6.1-1.2 8.5-3.5l270.4-270.4c.3-.3.6-.6.8-.9.3-.3.6-.5.9-.8 26.4-26.6 26.4-69.6 0-96zM95.013 388.4l-29.8-29.8 25-25 14.9 14.9 14.9 14.9-25 25zm58.1-25.9l-7.6-7.6-23.4-23.4-31-31 226.8-226.7 62 62-226.8 226.7zM420.112 452.2h-385.5c-6.6 0-12 5.4-12 12s5.4 12 12 12h385.5c6.6 0 12-5.4 12-12s-5.4-12-12-12z"/></svg>