<svg xmlns="http://www.w3.org/2000/svg" viewBox="0 0 486.025 486.025"><path d="M420.725 85.413c-42.1-42.1-98.1-65.3-157.6-65.3-60.6 0-117.3 23.9-159.6 67.3-4.6 4.7-4.5 12.3.2 17 4.7 4.6 12.3 4.5 17-.2 37.8-38.7 88.3-60 142.4-60 109.7-.1 198.9 89.1 198.9 198.8s-89.2 198.9-198.9 198.9-198.9-89.2-198.9-198.9v-2.5l19.8 19.8c2.3 2.3 5.4 3.5 8.5 3.5s6.1-1.2 8.5-3.5c4.7-4.7 4.7-12.3 0-17l-40.2-40.3c-4.7-4.7-12.3-4.7-17 0l-40.3 40.3c-4.7 4.7-4.7 12.3 0 17s12.3 4.7 17 0l19.8-19.8v2.5c0 59.5 23.2 115.5 65.3 157.6s98.1 65.3 157.6 65.3 115.5-23.2 157.6-65.3 65.2-98.1 65.2-157.6-23.2-115.5-65.3-157.6z"/><path d="M326.925 161.913l-147.4 147.3c-4.7 4.7-4.7 12.3 0 17 2.3 2.3 5.4 3.5 8.5 3.5s6.1-1.2 8.5-3.5l147.4-147.4c4.7-4.7 4.7-12.3 0-17-4.7-4.6-12.3-4.6-17 .1zM288.325 261.113c-16.7 16.7-16.7 44 0 60.7 8.1 8.1 18.9 12.6 30.4 12.6s22.3-4.5 30.4-12.6c16.7-16.7 16.7-44 0-60.7-8.1-8.1-18.9-12.6-30.4-12.6s-22.2 4.5-30.4 12.6zm43.8 43.8c-3.6 3.6-8.3 5.5-13.4 5.5s-9.8-2-13.4-5.5c-7.4-7.4-7.4-19.4 0-26.8 3.6-3.6 8.3-5.5 13.4-5.5s9.8 2 13.4 5.5c7.4 7.4 7.4 19.4 0 26.8zM207.925 151.213c-11.5 0-22.3 4.5-30.4 12.6s-12.6 18.9-12.6 30.4 4.5 22.3 12.6 30.4 18.9 12.6 30.4 12.6 22.3-4.5 30.4-12.6c8.1-8.1 12.6-18.9 12.6-30.4s-4.5-22.3-12.6-30.4c-8.2-8.1-18.9-12.6-30.4-12.6zm13.4 56.4c-3.6 3.6-8.3 5.5-13.4 5.5s-9.8-2-13.4-5.5c-3.6-3.6-5.5-8.3-5.5-13.4s2-9.8 5.5-13.4c3.6-3.6 8.3-5.5 13.4-5.5s9.8 2 13.4 5.5c3.6 3.6 5.5 8.3 5.5 13.4 0 5-1.9 9.8-5.5 13.4z"/></svg>