<svg xmlns="http://www.w3.org/2000/svg" viewBox="0 0 478.501 478.501"><path d="M417.9 209.001c0-115.2-93.7-209-208.9-209s-209 93.7-209 209c0 115.2 93.7 208.9 208.9 208.9 3.2 0 6.2-1.3 8.5-3.5 2.3-2.3 3.5-5.3 3.5-8.5v-184.9h185c6.7 0 12-5.4 12-12zm-208.9-12c-6.6 0-12 5.4-12 12v184.5c-96.4-6.2-172.9-86.6-172.9-184.5 0-102 83-185 185-185 97.9 0 178.4 76.5 184.6 173H209z"/><path d="M466.6 257.601h-197c-6.6 0-12 5.4-12 12v196.9c0 6.6 5.4 12 12 12 55.8 0 108.3-21.7 147.7-61.2 39.5-39.5 61.2-91.9 61.2-147.7.1-6.6-5.3-12-11.9-12zm-185 196.6v-172.6h172.6c-6 92.5-80.2 166.6-172.6 172.6z"/></svg>