<svg xmlns="http://www.w3.org/2000/svg" viewBox="0 0 486.701 486.701"><path d="M288 421.189h-19.3v-14.9c0-3.5-1.5-6.8-4.1-9-2.6-2.3-6.1-3.3-9.5-2.9-9 1.2-18.2 1.8-27.4 1.8-7.1 0-14.4-.4-21.5-1.1-3.4-.4-6.8.7-9.3 3s-4 5.5-4 8.9v14.1h-62.8v-14.9-.3c-.2-7.2-2.6-32.3-26-53.5-.1-.1-.2-.2-.3-.2l-2.4-2.1-.1-.1-.2-.2c-21-18.6-36.3-41.9-44-67.2-1.5-5-6.2-8.5-11.5-8.5H31.9c-4.3 0-7.8-3.5-7.8-7.8v-48.8c0-4.3 3.5-7.8 7.8-7.8h14.3c5.2.1 10-3.2 11.6-8.3 8.8-26.8 25.9-51 49.6-70.1 2.7-2.2 4.3-5.5 4.5-9 5.2-18.2 1.7-37.8-10-56.7 29 3.7 44.2 17.9 51.8 29.1 3 4.4 8.5 6.3 13.6 4.7 19.4-6.1 39.7-9.2 60.5-9.2 76.6 0 144.1 42.4 167.9 105.5 1.9 5 3.5 10.1 4.7 15.2.8 3.3 1.5 6.6 2.1 9.8 1.1 6.5 7.3 10.9 13.8 9.8 6.5-1.1 10.9-7.3 9.8-13.8-.7-3.9-1.5-7.8-2.4-11.6-1.5-6-3.4-12-5.6-17.9-27.3-72.4-103.8-121-190.3-121-20.3 0-40.3 2.7-59.6 7.9-11.5-13.8-31.2-28.4-63.7-32.4-9.2-1.1-18.1 3-23.1 10.8s-5 17.6-.1 25.5c8.2 13.1 10.8 25.7 7.5 37.4-23.1 19.6-40.5 43.6-50.9 70.2h-6.1c-17.5 0-31.8 14.3-31.8 31.8v48.8c0 17.5 14.3 31.8 31.8 31.8h5.1c9.6 26 26 49.8 47.9 69.4.2.2.4.4.7.6l.2.2c.8.7 1.6 1.4 2.5 2.1 16.5 15 17.9 32.4 18 36.1v16c0 12.5 10.2 22.7 22.7 22.7h65.4c12.5 0 22.7-10.2 22.7-22.7v-2.5c9.3.4 18.6.3 27.8-.4v2.8c0 12.5 10.2 22.7 22.7 22.7h20.6c6.6 0 12-5.4 12-12s-5.5-11.8-12.1-11.8z"/><path d="M474.8 326.889H460v-24.3c0-32.1-26.1-58.3-58.3-58.3s-58.3 26.1-58.3 58.3v24.3h-14.8c-6.6 0-12 5.4-12 12v94.3c0 6.6 5.4 12 12 12h146.1c6.6 0 12-5.4 12-12v-94.3c.1-6.6-5.3-12-11.9-12zm-107.4-24.3c0-18.9 15.4-34.3 34.3-34.3s34.3 15.4 34.3 34.3v24.3h-68.5v-24.3h-.1zm95.4 118.6H340.6v-70.3h122.1v70.3h.1z"/></svg>