<svg xmlns="http://www.w3.org/2000/svg" viewBox="0 0 479.6 479.6"><path d="M419.7 455.6H251.9v-133l29.8 25.3c5.1 4.3 12.6 3.7 16.9-1.4s3.7-12.6-1.4-16.9l-49.5-42.1-.1-.1c-.1-.1-.3-.2-.4-.3-.2-.1-.3-.3-.5-.4-.1-.1-.3-.2-.4-.3-.2-.1-.3-.2-.5-.3-.1-.1-.3-.2-.5-.2-.2-.1-.4-.2-.5-.3-.2-.1-.3-.1-.5-.2s-.4-.1-.6-.2-.3-.1-.5-.2-.4-.1-.6-.2c-.2 0-.3-.1-.5-.1s-.5-.1-.7-.1c-.1 0-.3 0-.4-.1-.8-.1-1.5-.1-2.3 0-.1 0-.3 0-.4.1-.2 0-.5.1-.7.1s-.3.1-.5.1-.4.1-.6.2c-.2 0-.3.1-.5.2s-.4.1-.5.2c-.2.1-.3.1-.5.2s-.4.2-.5.3c-.2.1-.3.2-.5.2-.2.1-.3.2-.5.3-.1.1-.3.2-.4.3-.2.1-.3.2-.5.4-.1.1-.3.2-.4.3l-.1.1-49.7 42.3c-5.1 4.3-5.7 11.9-1.4 16.9 2.4 2.8 5.8 4.2 9.2 4.2 2.7 0 5.5-.9 7.8-2.9l29.9-25.4v133H60c-6.6 0-12 5.4-12 12s5.4 12 12 12h359.7c6.6 0 12-5.4 12-12s-5.3-12-12-12zm-197.3-319h34.8c14.4 0 26.1 11.7 26.1 26.1 0 14.4-11.7 26.1-26.1 26.1h-62.5c-6.6 0-12 5.4-12 12s5.4 12 12 12h33.1v24.8c0 6.6 5.4 12 12 12s12-5.4 12-12v-24.8h6c27.3-.4 49.4-22.7 49.4-50.1 0-27.6-22.5-50.1-50.1-50.1h-34.8c-14.4 0-26.1-11.7-26.1-26.1 0-14.4 11.7-26.1 26.1-26.1h61.5c6.6 0 12-5.4 12-12s-5.4-12-12-12h-32V12c0-6.6-5.4-12-12-12s-12 5.4-12 12v24.4h-5.4c-27.6 0-50.1 22.5-50.1 50.1s22.5 50.1 50.1 50.1zm-135.3 0h26c9.1 0 16.5 7.4 16.5 16.5s-7.4 16.5-16.5 16.5H66.4c-6.6 0-12 5.4-12 12s5.4 12 12 12h21.7v15.5c0 6.6 5.4 12 12 12s12-5.4 12-12v-15.5h1.6c22.1-.3 40-18.4 40-40.5 0-22.3-18.2-40.5-40.5-40.5h-26c-9.1 0-16.5-7.4-16.5-16.5s7.4-16.5 16.5-16.5h45.9c6.6 0 12-5.4 12-12s-5.4-12-12-12h-20.9V40.4c0-6.6-5.4-12-12-12s-12 5.4-12 12v15.2h-1c-22.4 0-40.6 18.2-40.6 40.5 0 22.4 18.2 40.5 40.5 40.5zm279.4 0h26c9.1 0 16.5 7.4 16.5 16.5s-7.4 16.5-16.5 16.5h-46.8c-6.6 0-12 5.4-12 12s5.4 12 12 12h21.7v15.5c0 6.6 5.4 12 12 12s12-5.4 12-12v-15.5h1.6c22.1-.3 40-18.4 40-40.5 0-22.3-18.2-40.5-40.5-40.5h-26c-9.1 0-16.5-7.4-16.5-16.5s7.4-16.5 16.5-16.5h45.9c6.6 0 12-5.4 12-12s-5.4-12-12-12h-20.9V40.4c0-6.6-5.4-12-12-12s-12 5.4-12 12v15.2h-1c-22.3 0-40.5 18.2-40.5 40.5 0 22.4 18.1 40.5 40.5 40.5z"/></svg>