<svg xmlns="http://www.w3.org/2000/svg" viewBox="0 0 480.9 480.9"><path d="M450.228 102.5c0-18.8-11.3-31.5-30.3-33.9-3.6-.5-7.3-.9-10.9-1.3-10.7-1.3-20.8-2.4-30.5-4.5-37.9-8.3-74.6-25.4-115.2-53.8-6.7-4.7-14.1-9-22.8-9-8.6 0-16 4.3-22.7 8.9-54.3 37.3-103.2 56.3-153.8 59.5-21.9 1.4-33.4 13.8-33.4 35.9V144.1c-.1 36.7-.1 74.6.3 112 .1 13.9 1.9 28.3 5.2 42.9 7.8 34.2 25.6 65 54.4 94.1 35.9 36.3 80.9 64.3 137.5 85.6 3.8 1.4 7.9 2.2 12.2 2.2 5.2 0 10.4-1.1 15-3.1 3.1-1.4 6.3-2.7 9.4-4l.3-.1c13.7-5.9 27.8-12 41.6-19.2 46-24.3 80.8-53 106.4-87.8 23-31.2 34.9-62.6 36.3-96 .3-6.4.5-13.2.6-20.9l.5-61.8v-25.1c0-20.2 0-40.3-.1-60.4zm-24 84.3v.7l-.5 62c-.1 7.4-.3 13.9-.5 20.1-1.2 28.5-11.6 55.6-31.7 82.8-23.4 31.8-55.6 58.2-98.3 80.8-12.9 6.8-26.6 12.7-39.9 18.4l-.3.1c-3.2 1.4-6.3 2.7-9.5 4.1-1.6.7-3.5 1.1-5.4 1.1-1.4 0-2.7-.2-3.8-.6-53.3-20.1-95.5-46.3-128.9-80-25.4-25.9-41.1-52.9-47.9-82.6-3-12.9-4.5-25.6-4.6-37.8-.4-37.2-.3-75.1-.3-111.7v-.2-39.6c0-4.6.7-8 2.1-9.4 1.3-1.4 4.4-2.3 8.9-2.6 55.1-3.6 107.8-23.8 165.8-63.8 4.5-3.1 7.5-4.6 9.1-4.6s4.6 1.6 9.1 4.7c43.3 30.2 82.7 48.5 123.8 57.5 10.8 2.4 21.5 3.6 32.9 4.9 3.6.4 7.1.8 10.7 1.3 7 .9 9.3 3.4 9.3 10.1v60.3l-.1 24z"/><path d="M257.128 228.2h-33.5c-13.6 0-24.7-11.1-24.7-24.7s11.1-24.7 24.7-24.7h59c6.6 0 12-5.4 12-12s-5.4-12-12-12h-30.2v-23c0-6.6-5.4-12-12-12s-12 5.4-12 12v23h-4.7c-26.8 0-48.7 21.8-48.7 48.7 0 26.8 21.8 48.7 48.7 48.7h33.5c13.6 0 24.7 11.1 24.7 24.7s-11.1 24.7-24.7 24.7h-60.1c-6.6 0-12 5.4-12 12s5.4 12 12 12h31.3V349c0 6.6 5.4 12 12 12s12-5.4 12-12v-23.4H257.828c26.5-.3 48-22.1 48-48.7 0-26.9-21.8-48.7-48.7-48.7z"/></svg>