<svg xmlns="http://www.w3.org/2000/svg" viewBox="0 0 480.4 480.4"><path d="M274.4 435.5H85.2c-24.3 0-44.1-16.2-44.4-36.1l25.4-285.7h44V153c0 6.6 5.4 12 12 12s12-5.4 12-12v-39.3h132.7V153c0 6.6 5.4 12 12 12s12-5.4 12-12v-39.3h44l7.3 77.8c.6 6.6 6.5 11.5 13.1 10.8 6.6-.6 11.4-6.5 10.8-13.1l-8.3-88.7c-.6-6.2-5.8-10.9-11.9-10.9h-55C290.5 40.1 250.1 0 200.6 0c-49.6 0-90 40.1-90.3 89.6H55.2c-6.2 0-11.4 4.7-12 10.9L16.8 397.8v1.1c0 33.4 30.7 60.6 68.4 60.6h189.2c6.6 0 12-5.4 12-12s-5.3-12-12-12zM200.5 24.1c36.3 0 65.9 29.4 66.3 65.6H134.1c.4-36.2 30-65.6 66.4-65.6z"/><path d="M360.7 276.1c-31 0-56.2 25.2-56.2 56.2s25.2 56.2 56.2 56.2 56.2-25.2 56.2-56.2-25.3-56.2-56.2-56.2zm0 88.4c-17.8 0-32.2-14.4-32.2-32.2 0-17.8 14.4-32.2 32.2-32.2 17.8 0 32.2 14.4 32.2 32.2 0 17.8-14.5 32.2-32.2 32.2z"/><path d="M357 228.4c-51.4 1.8-93.9 41.7-98.8 92.9-.9 9.8-.5 19.7 1.3 29.4.1.6.3 1.7.7 3.4 1.6 6.9 3.9 13.7 6.9 20.2 10.3 24.2 32.7 61.4 80.9 101.5 3.6 3 8.1 4.6 12.7 4.6s9.2-1.6 12.7-4.6c48.2-40 70.6-77.2 80.9-101.5 3-6.5 5.3-13.3 6.8-20.2.4-1.8.6-3 .7-3.5 1.2-6.3 1.8-12.8 1.8-19.3 0-58-48.1-105-106.6-102.9zM283.1 351c.3-1.4.3-2.8.1-4.3.2 1.4.2 2.9-.1 4.3zm155.1-4.7c0 .2-.1.3-.1.5s-.2.9-.4 1.8v.1c-1.2 5.4-3 10.6-5.3 15.6-.1.1-.1.2-.2.4-9 21.3-28.8 54.2-71.5 90.3-42.8-36.2-62.5-69-71.5-90.3-.1-.1-.1-.2-.2-.4-2.3-5-4.1-10.3-5.3-15.6v-.1c-.3-1.1-.4-1.7-.4-1.9 0-.1 0-.3-.1-.4-1.4-7.5-1.8-15.1-1.1-22.7 3.8-39.2 36.3-69.8 75.8-71.2 44.8-1.6 81.8 34.4 81.8 78.9-.1 5-.6 10-1.5 15z"/></svg>