<svg xmlns="http://www.w3.org/2000/svg" viewBox="0 0 492.1 492.1"><path d="M199.177 229h169.4c6.6 0 12-5.4 12-12V107.7c0-6.6-5.4-12-12-12h-19.1V65.6c0-36.2-29.4-65.6-65.6-65.6s-65.6 29.4-65.6 65.6v30.1h-19.1c-6.6 0-12 5.4-12 12V217c0 6.6 5.3 12 12 12zm43.1-163.4c0-23 18.7-41.6 41.6-41.6s41.6 18.7 41.6 41.6v30.1h-83.3V65.6h.1zm-31.1 54.1h145.4V205h-145.4v-85.3z"/><path d="M148.577 325.4h268.9c29.7 0 53.8-24.2 53.8-53.8V158.4c0-6.6-5.4-12-12-12s-12 5.4-12 12v113.2c0 16.5-13.4 29.8-29.8 29.8h-268.9c-16.5 0-29.8-13.4-29.8-29.8V50.3c0-.4 0-.8-.1-1.3v-.3c0-.3-.1-.6-.1-.8s-.1-.5-.2-.7c0-.1-.1-.3-.1-.4-.1-.3-.2-.5-.3-.7 0-.1-.1-.2-.1-.4-.1-.2-.2-.4-.3-.7-.1-.1-.1-.3-.2-.4-.1-.2-.2-.4-.3-.5-.1-.2-.2-.3-.3-.5-.1-.1-.2-.3-.3-.4-.1-.2-.3-.4-.4-.6-.1-.1-.2-.2-.2-.3-.2-.2-.3-.4-.5-.6-.1-.1-.2-.1-.2-.2l-.6-.6c-.1-.1-.2-.2-.3-.2-.2-.2-.4-.3-.6-.5-.2-.1-.4-.3-.7-.4-.1-.1-.2-.1-.3-.2-.4-.2-.8-.4-1.1-.6l-74.1-31c-6.1-2.6-13.1.3-15.7 6.4s.3 13.1 6.4 15.7l66.5 28.1v297.7c0 28.2 21.7 51.3 49.3 53.6-5.6 8.4-8.9 18.5-8.9 29.4 0 29.3 23.9 53.2 53.2 53.2s53.2-23.9 53.2-53.2c0-10.8-3.2-20.8-8.7-29.2h127.3c-5.5 8.4-8.7 18.4-8.7 29.2 0 29.3 23.9 53.2 53.2 53.2s53.2-23.9 53.2-53.2-23.9-53.2-53.2-53.2h-256c-16.5 0-29.8-13.4-29.8-29.8v-39.5c8.5 5.7 18.8 9 29.8 9zm68.9 113.5c0 16.1-13.1 29.2-29.2 29.2s-29.2-13.1-29.2-29.2 13.1-29.2 29.2-29.2 29.2 13.1 29.2 29.2zm216.2 0c0 16.1-13.1 29.2-29.2 29.2s-29.2-13.1-29.2-29.2 13.1-29.2 29.2-29.2 29.2 13.1 29.2 29.2z"/></svg>