<svg xmlns="http://www.w3.org/2000/svg" viewBox="0 0 483.1 483.1"><path d="M280.35 318.7l-26.8 26.8V232.8c0-6.6-5.4-12-12-12s-12 5.4-12 12v112.8l-26.8-26.8c-4.7-4.7-12.3-4.7-17 0s-4.7 12.3 0 17l47.2 47.2c2.3 2.3 5.4 3.5 8.5 3.5s6.1-1.2 8.5-3.5l47.4-47.4c4.7-4.7 4.7-12.3 0-17-4.7-4.6-12.3-4.6-17 .1z"/><path d="M434.55 418.7l-27.8-313.3c-.5-6.2-5.7-10.9-12-10.9h-58.6c-.1-52.1-42.5-94.5-94.6-94.5s-94.5 42.4-94.6 94.5h-58.6c-6.2 0-11.4 4.7-12 10.9l-27.8 313.3v1.1c0 34.9 32.1 63.3 71.5 63.3h243c39.4 0 71.5-28.4 71.5-63.3v-1.1zM241.55 24c38.9 0 70.5 31.6 70.6 70.5h-141.2c.1-38.9 31.7-70.5 70.6-70.5zm121.5 435h-243c-26 0-47.2-17.3-47.5-38.8l26.8-301.7h47.6v42.1c0 6.6 5.4 12 12 12s12-5.4 12-12v-42.1h141.2v42.1c0 6.6 5.4 12 12 12s12-5.4 12-12v-42.1h47.6l26.8 301.8c-.3 21.4-21.5 38.7-47.5 38.7z"/></svg>