<svg xmlns="http://www.w3.org/2000/svg" viewBox="0 0 484.955 484.955"><path d="M145.005 318.355h268.9c29.7 0 53.8-24.2 53.8-53.8v-113.3c0-6.6-5.4-12-12-12s-12 5.4-12 12v113.2c0 16.5-13.4 29.8-29.8 29.8h-268.9c-16.5 0-29.8-13.4-29.8-29.8v-221.2c0-.4 0-.8-.1-1.3v-.3c0-.3-.1-.6-.1-.8s-.1-.5-.2-.7c0-.1-.1-.3-.1-.4-.1-.3-.2-.5-.3-.7 0-.1-.1-.2-.1-.4-.1-.2-.2-.4-.3-.7-.1-.1-.1-.3-.2-.4-.1-.2-.2-.4-.3-.5-.1-.2-.2-.3-.3-.5-.1-.1-.2-.3-.3-.4-.1-.2-.3-.4-.4-.6-.1-.1-.2-.2-.2-.3-.2-.2-.3-.4-.5-.6-.1-.1-.2-.1-.2-.2l-.6-.6c-.1-.1-.2-.2-.3-.2-.2-.2-.4-.3-.6-.5-.2-.1-.4-.3-.7-.4-.1-.1-.2-.1-.3-.2-.4-.2-.8-.4-1.1-.6l-74.1-31c-6.1-2.6-13.1.3-15.7 6.4-2.6 6 .3 13.1 6.4 15.7l66.5 28.1v297.6c0 28.2 21.7 51.3 49.3 53.6-5.6 8.4-8.9 18.5-8.9 29.4 0 29.3 23.9 53.2 53.2 53.2s53.2-23.9 53.2-53.2c0-10.8-3.2-20.8-8.7-29.2h127.3c-5.5 8.4-8.7 18.4-8.7 29.2 0 29.3 23.9 53.2 53.2 53.2s53.2-23.9 53.2-53.2-23.9-53.2-53.2-53.2h-256c-16.5 0-29.8-13.4-29.8-29.8v-39.5c8.5 5.7 18.8 9.1 29.8 9.1zm68.9 113.4c0 16.1-13.1 29.2-29.2 29.2s-29.2-13.1-29.2-29.2 13.1-29.2 29.2-29.2 29.2 13.1 29.2 29.2zm216.2 0c0 16.1-13.1 29.2-29.2 29.2s-29.2-13.1-29.2-29.2 13.1-29.2 29.2-29.2 29.2 13.1 29.2 29.2z"/><path d="M181.605 247.255h195.8c6.6 0 12-5.4 12-12v-173.4c0-6.6-5.4-12-12-12h-195.8c-6.6 0-12 5.4-12 12v173.3c0 6.7 5.3 12.1 12 12.1zm12-158.7l152.1 134.7h-152.1v-134.7zm171.7 120l-152.1-134.7h152.1v134.7z"/></svg>