<svg xmlns="http://www.w3.org/2000/svg" viewBox="0 0 482.854 482.854"><path d="M439.927 148.655h-31.1l-130.2-144.7c-4.4-4.9-12-5.3-16.9-.9s-5.3 12-.9 16.9l115.8 128.7h-269.9l115.4-128.7c4.4-4.9 4-12.5-.9-16.9s-12.5-4-16.9.9l-129.9 144.7h-31.5c-6.6 0-12 5.4-12 12s5.4 12 12 12h12.3l34.6 161.3c5.5 27.7 30 47.8 58.3 47.8h131.1c6.6 0 12-5.4 12-12s-5.4-12-12-12h-131.1c-16.9 0-31.5-12-34.8-28.6v-.2l-33.5-156.3h323.9l-13.8 67.6c-1.3 6.5 2.9 12.8 9.4 14.2.8.2 1.6.2 2.4.2 5.6 0 10.6-3.9 11.7-9.6l14.8-72.4h11.7c6.6 0 12-5.4 12-12s-5.4-12-12-12z"/><path d="M380.327 357.155h-31.3c-12.3 0-22.3-10-22.3-22.3s10-22.3 22.3-22.3h55.1c6.6 0 12-5.4 12-12s-5.4-12-12-12h-27.5v-20.7c0-6.6-5.4-12-12-12s-12 5.4-12 12v20.7h-3.6c-25.5 0-46.3 20.8-46.3 46.3s20.8 46.3 46.3 46.3h31.3c12.3 0 22.3 10 22.3 22.3s-10 22.3-22.3 22.3h-56.2c-6.6 0-12 5.4-12 12s5.4 12 12 12h28.5v21.1c0 6.6 5.4 12 12 12s12-5.4 12-12v-21.1h4.2c25.2-.3 45.6-21 45.6-46.3.1-25.6-20.6-46.3-46.1-46.3z"/></svg>