<svg xmlns="http://www.w3.org/2000/svg" viewBox="0 0 498.6 498.6"><path d="M151.827 331.9h268.9c29.7 0 53.8-24.2 53.8-53.8V164.9c0-6.6-5.4-12-12-12s-12 5.4-12 12v113.2c0 16.5-13.4 29.8-29.8 29.8h-268.9c-16.5 0-29.8-13.4-29.8-29.8V56.8c0-.4 0-.8-.1-1.3v-.3c0-.3-.1-.6-.1-.8s-.1-.5-.2-.7c0-.1-.1-.3-.1-.4-.1-.3-.2-.5-.3-.8 0-.1-.1-.2-.1-.3-.1-.2-.2-.5-.3-.7-.1-.1-.1-.3-.2-.4-.1-.2-.2-.4-.3-.5-.1-.2-.2-.3-.3-.5-.1-.1-.2-.3-.3-.4-.1-.2-.3-.4-.4-.5l-.3-.3c-.2-.2-.3-.4-.5-.6-.1-.1-.2-.1-.2-.2l-.6-.6c-.1-.1-.2-.2-.3-.2-.2-.2-.4-.3-.6-.5-.2-.1-.4-.3-.7-.4-.1-.1-.2-.1-.3-.2-.4-.2-.7-.4-1.1-.5l-74-31.2c-6.1-2.6-13.1.3-15.7 6.4s.3 13.1 6.4 15.7l66.5 28.1v297.7c0 28.2 21.7 51.3 49.3 53.6-5.6 8.4-8.9 18.5-8.9 29.4 0 29.3 23.9 53.2 53.2 53.2s53.2-23.9 53.2-53.2c0-10.8-3.2-20.8-8.7-29.2h127.3c-5.5 8.4-8.7 18.4-8.7 29.2 0 29.3 23.9 53.2 53.2 53.2s53.2-23.9 53.2-53.2-23.9-53.2-53.2-53.2h-256c-16.5 0-29.8-13.4-29.8-29.8v-39.5c8.5 5.7 18.8 9 29.8 9zm68.9 113.5c0 16.1-13.1 29.2-29.2 29.2s-29.2-13.1-29.2-29.2 13.1-29.2 29.2-29.2 29.2 13.1 29.2 29.2zm216.2 0c0 16.1-13.1 29.2-29.2 29.2s-29.2-13.1-29.2-29.2 13.1-29.2 29.2-29.2 29.2 13.1 29.2 29.2z"/><path d="M277.727 215.7s0 .1 0 0c.3.3.6.6.9.8.1.1.3.2.5.3s.3.2.5.4c.2.1.4.2.5.3.2.1.3.2.5.3l.6.3c.2.1.3.2.5.2.2.1.4.1.6.2.2.1.4.1.6.2.2.1.4.1.6.1s.4.1.6.1.4.1.6.1.3.1.5.1c.4 0 .8.1 1.2.1s.8 0 1.2-.1c.2 0 .4-.1.5-.1.2 0 .4-.1.6-.1s.4-.1.6-.1.4-.1.6-.1c.2-.1.4-.1.6-.2.2-.1.4-.1.6-.2.2-.1.3-.2.5-.2l.6-.3c.2-.1.3-.2.5-.3s.4-.2.5-.3c.2-.1.3-.2.5-.4.2-.1.3-.2.5-.3.3-.2.6-.5.8-.7l.1-.1 47.6-47.6c4.7-4.7 4.7-12.3 0-17s-12.3-4.7-17 0l-27.5 27.2V12c0-6.6-5.4-12-12-12s-12 5.4-12 12v166.3l-27-27c-4.7-4.7-12.3-4.7-17 0s-4.7 12.3 0 17l47.5 47.4zm-86.1 53.6h189.2c6.6 0 12-5.4 12-12s-5.4-12-12-12h-189.2c-6.6 0-12 5.4-12 12s5.3 12 12 12z"/></svg>