<svg xmlns="http://www.w3.org/2000/svg" viewBox="0 0 483.1 483.1"><path d="M434.55 418.7l-27.8-313.3c-.5-6.2-5.7-10.9-12-10.9h-58.6c-.1-52.1-42.5-94.5-94.6-94.5s-94.5 42.4-94.6 94.5h-58.6c-6.2 0-11.4 4.7-12 10.9l-27.8 313.3v1.1c0 34.9 32.1 63.3 71.5 63.3h243c39.4 0 71.5-28.4 71.5-63.3v-1.1zM241.55 24c38.9 0 70.5 31.6 70.6 70.5h-141.2c.1-38.9 31.7-70.5 70.6-70.5zm121.5 435h-243c-26 0-47.2-17.3-47.5-38.8l26.8-301.7h47.6v42.1c0 6.6 5.4 12 12 12s12-5.4 12-12v-42.1h141.2v42.1c0 6.6 5.4 12 12 12s12-5.4 12-12v-42.1h47.6l26.8 301.8c-.3 21.4-21.5 38.7-47.5 38.7z"/><path d="M255.25 293.4h-27.5c-10 0-18.1-8.1-18.1-18.1s8.1-18.1 18.1-18.1h48.4c6.6 0 12-5.4 12-12s-5.4-12-12-12h-22.6v-16.7c0-6.6-5.4-12-12-12s-12 5.4-12 12v16.7h-1.7c-23.2 0-42.1 18.9-42.1 42.1s18.9 42.1 42.1 42.1h27.5c10 0 18.1 8.1 18.1 18.1s-8.1 18.1-18.1 18.1h-49.3c-6.6 0-12 5.4-12 12s5.4 12 12 12h23.5v17.1c0 6.6 5.4 12 12 12s12-5.4 12-12v-17.1h2.3c23-.3 41.5-19.1 41.5-42.1 0-23.2-18.9-42.1-42.1-42.1z"/></svg>