<svg xmlns="http://www.w3.org/2000/svg" viewBox="0 0 486.8 486.8"><path d="M278.077 110.2c30.4 0 55.1-24.7 55.1-55.1S308.477 0 278.077 0s-55.1 24.7-55.1 55.1 24.7 55.1 55.1 55.1zm0-86.2c17.1 0 31.1 14 31.1 31.1s-14 31.1-31.1 31.1-31.1-14-31.1-31.1 13.9-31.1 31.1-31.1zm-88.5 244c6.6.6 12.4-4.3 13-10.9 6.5-70.4 31.9-106.1 75.5-106.1s69 35.7 75.5 106.1c.6 6.2 5.8 10.9 11.9 10.9.4 0 .7 0 1.1-.1 6.6-.6 11.5-6.4 10.9-13-3.2-35.2-11.3-63.7-24-84.6-17.3-28.7-42.7-43.2-75.4-43.2s-58.1 14.5-75.4 43.2c-12.7 21-20.7 49.4-24 84.6-.6 6.7 4.3 12.5 10.9 13.1z"/><path d="M151.777 330.1h252.6c28.3 0 51.3-23 51.3-51.3V172.5c0-6.6-5.4-12-12-12s-12 5.4-12 12v106.3c0 15-12.2 27.3-27.3 27.3h-252.6c-15 0-27.3-12.2-27.3-27.3V71c0-.4 0-.9-.1-1.3v-.3c0-.3-.1-.6-.1-.8 0-.2-.1-.5-.2-.7 0-.1-.1-.3-.1-.4-.1-.3-.2-.5-.3-.8 0-.1-.1-.2-.1-.3-.1-.2-.2-.5-.3-.7-.1-.1-.1-.2-.2-.4l-.3-.6c-.1-.1-.2-.3-.3-.4s-.2-.3-.3-.4c-.1-.2-.3-.4-.4-.5l-.3-.3c-.2-.2-.3-.4-.5-.6-.1-.1-.2-.2-.3-.2-.2-.2-.4-.4-.6-.5-.1-.1-.2-.2-.3-.2-.2-.2-.4-.3-.6-.4-.2-.2-.5-.3-.7-.4-.1-.1-.2-.1-.3-.2-.4-.2-.8-.4-1.1-.6l-69.3-29.3c-6.1-2.6-13.1.3-15.7 6.4-2.6 6.1.3 13.1 6.4 15.7l62.1 26.2v279.1c0 26.4 20.1 48.2 45.8 51-4.9 7.8-7.8 17.1-7.8 27 0 27.9 22.7 50.7 50.7 50.7 27.9 0 50.7-22.7 50.7-50.7 0-9.8-2.8-18.9-7.6-26.7h116.9c-4.8 7.8-7.6 16.9-7.6 26.7 0 27.9 22.7 50.7 50.7 50.7 27.9 0 50.7-22.7 50.7-50.7s-23-50.8-51-50.8h-240.3c-15 0-27.3-12.2-27.3-27.3v-35.8c7.9 5 17.3 7.9 27.3 7.9zm64 105.9c0 14.7-12 26.7-26.7 26.7s-26.7-12-26.7-26.7 12-26.7 26.7-26.7 26.7 12 26.7 26.7zm203 0c0 14.7-12 26.7-26.7 26.7s-26.7-12-26.7-26.7 12-26.7 26.7-26.7 26.7 12 26.7 26.7z"/></svg>