<svg xmlns="http://www.w3.org/2000/svg" viewBox="0 0 487.8 487.8"><path d="M487.7 396.45l-24-269.9c-.5-5.7-5.3-10-11-10h-49.8c-.4-45-37.1-81.4-82.1-81.4s-81.7 36.4-82.1 81.4h-49.8c-5.7 0-10.5 4.4-11 10l-24 269.9v1c0 30.4 27.9 55.2 62.3 55.2h209.3c34.3 0 62.3-24.7 62.3-55.2 0-.4 0-.7-.1-1zM320.9 57.15c32.9 0 59.7 26.6 60.1 59.4H260.7c.4-32.8 27.2-59.4 60.2-59.4zm104.6 373.4H216.2c-22 0-40-14.6-40.3-32.7l23-259.3h39.7v35.6c0 6.1 4.9 11 11 11s11-4.9 11-11v-35.6h120.3v35.6c0 6.1 4.9 11 11 11s11-4.9 11-11v-35.6h39.7l23 259.3c-.1 18.1-18.1 32.7-40.1 32.7zM128.3 211.35H52.9c-6.1 0-11 4.9-11 11s4.9 11 11 11h75.4c6.1 0 11-4.9 11-11s-4.9-11-11-11zM128.3 264.95H11c-6.1 0-11 4.9-11 11s4.9 11 11 11h117.3c6.1 0 11-4.9 11-11s-4.9-11-11-11zM128.3 318.55H52.9c-6.1 0-11 4.9-11 11s4.9 11 11 11h75.4c6.1 0 11-4.9 11-11s-4.9-11-11-11z"/></svg>