<svg xmlns="http://www.w3.org/2000/svg" viewBox="0 0 489.5 489.5"><path d="M452.349 361.2h-17.7V333c0-34.8-28.3-63.2-63.2-63.2s-63.2 28.3-63.2 63.2v28.2h-17.7c-6.6 0-12 5.4-12 12v104.3c0 6.6 5.4 12 12 12h161.7c6.6 0 12-5.4 12-12V373.2c.1-6.6-5.3-12-11.9-12zm-120.1-28.2c0-21.6 17.6-39.2 39.2-39.2s39.2 17.6 39.2 39.2v28.2h-78.3V333h-.1zm108.1 132.5h-137.7v-80.3h137.7v80.3z"/><path d="M288.949 165.8c6.6 0 12-5.4 12-12v-39.7h44.4l10.6 119.4c.6 6.6 6.4 11.5 13 10.9s11.5-6.4 10.9-13l-11.6-130.3c-.5-6.2-5.7-10.9-12-10.9h-55.4c-.4-49.8-41-90.2-90.9-90.2s-90.5 40.4-90.9 90.2h-55.3c-6.2 0-11.4 4.7-12 10.9l-26.5 299.1v1.1c0 33.6 30.9 61 68.8 61h151.1c6.6 0 12-5.4 12-12s-5.4-12-12-12h-151.1c-24.5 0-44.5-16.3-44.8-36.5l25.5-287.7h44.4v39.7c0 6.6 5.4 12 12 12s12-5.4 12-12v-39.7h133.8v39.7c0 6.6 5.4 12 12 12zm-78.9-141.9c36.7 0 66.5 29.7 66.9 66.2h-133.8c.4-36.5 30.2-66.2 66.9-66.2z"/></svg>