<svg xmlns="http://www.w3.org/2000/svg" viewBox="0 0 483.1 483.1"><path d="M320.05 218.9c-4.7-4.7-12.3-4.7-17 0l-139.8 139.9c-4.7 4.7-4.7 12.3 0 17 2.3 2.3 5.4 3.5 8.5 3.5s6.1-1.2 8.5-3.5L320.05 236c4.7-4.8 4.7-12.4 0-17.1zm-25.9 83.4c-11 0-21.4 4.3-29.3 12.1-16.1 16.1-16.1 42.4 0 58.5 7.8 7.8 18.2 12.1 29.3 12.1s21.4-4.3 29.3-12.1 12.1-18.2 12.1-29.3-4.3-21.4-12.1-29.3-18.3-12-29.3-12zm12.3 53.7c-3.3 3.3-7.6 5.1-12.3 5.1-4.6 0-9-1.8-12.3-5.1-6.8-6.8-6.8-17.8 0-24.6 3.3-3.3 7.6-5.1 12.3-5.1 4.6 0 9 1.8 12.3 5.1 3.3 3.3 5.1 7.6 5.1 12.3s-1.9 9-5.1 12.3zm-88.2-75.4c16.1-16.1 16.1-42.4 0-58.5-7.8-7.8-18.2-12.1-29.3-12.1-11 0-21.4 4.3-29.3 12.1-16.1 16.1-16.1 42.4 0 58.5 7.8 7.8 18.2 12.1 29.3 12.1s21.5-4.3 29.3-12.1zm-41.6-41.5c3.3-3.3 7.6-5.1 12.3-5.1s9 1.8 12.3 5.1c6.8 6.8 6.8 17.8 0 24.6-3.3 3.3-7.6 5.1-12.3 5.1s-9-1.8-12.3-5.1c-6.7-6.8-6.7-17.8 0-24.6z"/><path d="M434.55 418.7l-27.8-313.3c-.5-6.2-5.7-10.9-12-10.9h-58.6c-.1-52.1-42.5-94.5-94.6-94.5s-94.5 42.4-94.6 94.5h-58.6c-6.2 0-11.4 4.7-12 10.9l-27.8 313.3v1.1c0 34.9 32.1 63.3 71.5 63.3h243c39.4 0 71.5-28.4 71.5-63.3v-1.1zM241.55 24c38.9 0 70.5 31.6 70.6 70.5h-141.2c.1-38.9 31.7-70.5 70.6-70.5zm121.5 435h-243c-26 0-47.2-17.3-47.5-38.8l26.8-301.7h47.6v42.1c0 6.6 5.4 12 12 12s12-5.4 12-12v-42.1h141.2v42.1c0 6.6 5.4 12 12 12s12-5.4 12-12v-42.1h47.6l26.8 301.8c-.3 21.4-21.5 38.7-47.5 38.7z"/></svg>