<svg xmlns="http://www.w3.org/2000/svg" viewBox="0 0 484.955 484.955"><path d="M261.905 158.755h32c12.7 0 23.1 10.3 23.1 23.1s-10.3 23.1-23.1 23.1h-57.4c-6.6 0-12 5.4-12 12s5.4 12 12 12h29.5v21.9c0 6.6 5.4 12 12 12s12-5.4 12-12v-21.9h3.9c26 0 47.1-21.1 47.1-47.1s-21.1-47.1-47.1-47.1h-32c-12.7 0-23.1-10.3-23.1-23.1s10.3-23.1 23.1-23.1h56.4c6.6 0 12-5.4 12-12s-5.4-12-12-12h-28.4v-21.4c0-6.6-5.4-12-12-12s-12 5.4-12 12v21.5h-4c-26 0-47.1 21.1-47.1 47.1 0 25.9 21.1 47 47.1 47z"/><path d="M145.005 318.355h268.9c29.7 0 53.8-24.2 53.8-53.8v-113.3c0-6.6-5.4-12-12-12s-12 5.4-12 12v113.2c0 16.5-13.4 29.8-29.8 29.8h-268.9c-16.5 0-29.8-13.4-29.8-29.8v-221.2c0-.4 0-.9-.1-1.3v-.3c0-.3-.1-.6-.1-.8s-.1-.5-.2-.7c0-.1-.1-.3-.1-.4-.1-.3-.2-.5-.3-.8 0-.1-.1-.2-.1-.3-.1-.2-.2-.5-.3-.7-.1-.1-.1-.2-.2-.4l-.3-.6c-.1-.1-.2-.3-.3-.4-.1-.1-.2-.3-.3-.4-.1-.2-.3-.4-.4-.5l-.3-.3c-.2-.2-.3-.4-.5-.6-.1-.1-.2-.2-.3-.2-.2-.2-.4-.4-.6-.5-.1-.1-.2-.2-.3-.2-.2-.2-.4-.3-.6-.4-.2-.2-.5-.3-.7-.4-.1-.1-.2-.1-.3-.2-.4-.2-.8-.4-1.1-.6l-73.9-31.3c-6.1-2.6-13.1.3-15.7 6.4-2.6 6 .3 13.1 6.4 15.7l66.5 28.1v297.6c0 28.2 21.7 51.3 49.3 53.6-5.6 8.4-8.9 18.5-8.9 29.4 0 29.3 23.9 53.2 53.2 53.2s53.2-23.9 53.2-53.2c0-10.8-3.2-20.8-8.7-29.2h127.3c-5.5 8.4-8.7 18.4-8.7 29.2 0 29.3 23.9 53.2 53.2 53.2s53.2-23.9 53.2-53.2-23.9-53.2-53.2-53.2h-256c-16.5 0-29.8-13.4-29.8-29.8v-39.5c8.5 5.7 18.8 9.1 29.8 9.1zm68.9 113.4c0 16.1-13.1 29.2-29.2 29.2s-29.2-13.1-29.2-29.2 13.1-29.2 29.2-29.2 29.2 13.1 29.2 29.2zm216.2 0c0 16.1-13.1 29.2-29.2 29.2s-29.2-13.1-29.2-29.2 13.1-29.2 29.2-29.2 29.2 13.1 29.2 29.2z"/></svg>