<svg xmlns="http://www.w3.org/2000/svg" viewBox="0 0 474.2 474.2"><path d="M404.771 69.4c-44.8-44.8-104.4-69.4-167.7-69.4s-122.9 24.6-167.7 69.4c-86.6 86.7-92.6 225.2-15.1 318.8-11 22.7-23.9 37.8-38.7 45-8.2 4-12.7 12.7-11.3 21.7 1.4 9 8.3 16 17.3 17.4 5.4.9 11.2 1.3 17.2 1.3 29.2 0 59.9-10.1 85.3-28 34.5 18.7 73.4 28.6 112.9 28.6 63.3 0 122.9-24.7 167.7-69.5s69.5-104.3 69.5-167.7c0-63.2-24.6-122.8-69.4-167.6zm-17 318.4c-40.3 40.3-93.8 62.4-150.7 62.4-38 0-75.4-10.1-107.9-29.3-1.9-1.1-4-1.7-6.1-1.7-3.3 0-6.6 1.4-8.9 3.9-22.1 16.8-49.5 26.4-75.4 26.4-1.2 0-2.4 0-3.6-.1 17.6-11.7 32.1-30.9 44.2-58.5 1.9-4.3 1.1-9.3-2-12.8-74.5-84.1-70.6-212.3 9-291.9 40.3-40.1 93.8-62.2 150.7-62.2s110.4 22.1 150.7 62.4 62.4 93.8 62.4 150.7-22.1 110.4-62.4 150.7z"/><path d="M253.871 224.9h-33.6c-13.7 0-24.9-11.2-24.9-24.9s11.2-24.9 24.9-24.9h59.3c6.6 0 12-5.4 12-12s-5.4-12-12-12h-30.5v-23.2c0-6.6-5.4-12-12-12s-12 5.4-12 12v23.2h-4.8c-26.9 0-48.9 21.9-48.9 48.9 0 26.9 21.9 48.9 48.9 48.9h33.6c13.7 0 24.9 11.2 24.9 24.9s-11.2 24.9-24.9 24.9h-60.4c-6.6 0-12 5.4-12 12s5.4 12 12 12h31.6v23.6c0 6.6 5.4 12 12 12s12-5.4 12-12v-23.6h5.4c26.6-.3 48.2-22.1 48.2-48.9.1-27-21.8-48.9-48.8-48.9z"/></svg>