<svg xmlns="http://www.w3.org/2000/svg" viewBox="0 0 463.552 463.552"><path d="M445.752 256.346l-179.9-180c-9.5-9.5-22.2-14.8-35.6-14.8-1.1 0-2.2 0-3.3.1l-130.1 8.6c-14.1.9-25.5 12.3-26.4 26.4l-3.1 46.2c-6.6-3.8-12.9-8.6-18.6-14.3-13.9-13.9-22.5-31.2-24.3-48.8-1.7-16.7 3.1-31.6 13.5-42 22.1-22.1 62.8-17.2 90.9 10.8 4.7 4.7 12.3 4.7 17 0s4.7-12.3 0-17c-37.6-37.3-93.6-42.1-125-10.7-15.6 15.6-22.8 37.3-20.4 61.4 2.3 23.1 13.4 45.6 31.2 63.4 10 10 21.6 17.9 33.9 23.3l-3.8 57.9c-1 14.5 4.4 28.7 14.7 39l180 180c11.4 11.4 26.5 17.6 42.6 17.6s31.2-6.3 42.6-17.6l104.3-104.3c11.4-11.4 17.6-26.5 17.6-42.6-.1-16.2-6.4-31.3-17.8-42.6zm-16.9 68.1l-104.4 104.4c-6.8 6.8-15.9 10.6-25.6 10.6-9.7 0-18.8-3.8-25.6-10.6l-180-180c-5.4-5.4-8.2-12.8-7.7-20.4l3.5-52.4c2 .3 4 .6 6 .8 3 .3 6 .5 8.9.5 20.5 0 38.8-7.2 52.4-20.8 4.7-4.7 4.7-12.3 0-17s-12.3-4.7-17 0c-10.4 10.4-25.3 15.2-42 13.5-2.3-.2-4.5-.6-6.7-1l3.6-53.6c.1-2.2 1.9-3.9 4.1-4.1l130.1-8.6c.6 0 1.2-.1 1.8-.1 7 0 13.8 2.8 18.7 7.7l179.9 179.9c6.8 6.8 10.6 15.9 10.6 25.6 0 9.7-3.8 18.8-10.6 25.6z"/></svg>