<svg xmlns="http://www.w3.org/2000/svg" viewBox="0 0 473.2 473.2"><path d="M438.034 66.5c-15.5-18.3-36.2-29-50.3-35.5-34.5-15.9-71.8-25.2-117.5-29.4-11.9-1-23.8-1.6-35.5-1.6-42.8 0-84.9 7.1-125.3 21.1-19.5 6.9-44.7 17.3-65.8 35.8-15.9 14.2-23.7 31.6-22.8 51.7v.6c.6 6.5.5 13.2.3 20.3-.1 4.8-.2 9.9 0 14.9.5 24.2 16.9 40.4 40.7 40.4h64.1c23.4 0 39.2-16.1 39.2-40v-35.4c2-.6 4-1.3 6-1.9 3.1-1 6-2 8.6-2.6 17.9-4 36.3-6 56.1-6 10.8 0 22.2.6 33.8 1.8 15.8 1.8 28 4.5 39 8.7-.3 8.8-.3 17.4-.2 25.7v9.7c0 24.7 16 40.7 40.7 40.7h31.3c3.6 0 7.2 0 10.7.1 3.6 0 7.1.1 10.7.1 4 0 7.5-.1 10.8-.2 23.3-.1 39.3-16 39.8-39.7v-39.6c.1-14.9-4.8-28.3-14.4-39.7zm-9.5 78.9c-.2 7.4-3.1 16.1-16 16.1h-.4c-3 .1-6.3.2-10.1.2-3.5 0-6.9 0-10.4-.1-3.6 0-7.3-.1-11-.1h-31.3c-11.6 0-16.7-5.2-16.7-16.7v-9.9c-.1-9.7-.1-18.9.4-28.4v-.7c0-10.4-6.1-14.6-10.6-16.9-.3-.1-.5-.2-.8-.4-14-5.8-29.1-9.4-49-11.7h-.2c-12.5-1.3-24.7-1.9-36.3-1.9-21.3 0-41.9 2.2-61.3 6.5-3.9.9-7.5 2.1-11 3.2-3.1 1-6 2-8.6 2.6l-1.2.3c-4.7 1.6-12.6 6-12.6 17.9v39.3c0 7.3-2.6 16-15.2 16h-64.3c-10.9 0-16.5-5.7-16.7-17v-.1c-.1-4.5-.1-9 0-13.8.1-7.3.3-14.8-.4-22.6-.5-12.9 4.1-22.9 14.8-32.4 18-15.8 40.4-25 57.9-31.1 37.7-13.1 77.2-19.8 117.3-19.8 11 0 22.2.5 33.3 1.5 42.9 4 77.7 12.7 109.6 27.3 19.5 8.9 32.5 17.9 42 29.2 5.9 7.1 8.8 15 8.8 24.3v39.2zm-190.2 64.9c-20.5 0-37.1 16.7-37.1 37.1s16.7 37.1 37.1 37.1 37.1-16.7 37.1-37.1-16.6-37.1-37.1-37.1zm0 50.2c-7.2 0-13.1-5.9-13.1-13.1s5.9-13.1 13.1-13.1 13.1 5.9 13.1 13.1c.1 7.2-5.8 13.1-13.1 13.1zm98.6-50.2c-20.5 0-37.1 16.7-37.1 37.1s16.7 37.1 37.1 37.1 37.1-16.7 37.1-37.1-16.6-37.1-37.1-37.1zm0 50.2c-7.2 0-13.1-5.9-13.1-13.1s5.9-13.1 13.1-13.1 13.1 5.9 13.1 13.1-5.9 13.1-13.1 13.1zm-197.2-50.2c-20.5 0-37.1 16.7-37.1 37.1s16.7 37.1 37.1 37.1 37.1-16.7 37.1-37.1-16.6-37.1-37.1-37.1zm0 50.2c-7.2 0-13.1-5.9-13.1-13.1s5.9-13.1 13.1-13.1 13.1 5.9 13.1 13.1c.1 7.2-5.8 13.1-13.1 13.1zm98.6 44.1c-20.5 0-37.1 16.7-37.1 37.1s16.7 37.1 37.1 37.1 37.1-16.7 37.1-37.1-16.6-37.1-37.1-37.1zm0 50.3c-7.2 0-13.1-5.9-13.1-13.1s5.9-13.1 13.1-13.1 13.1 5.9 13.1 13.1c.1 7.2-5.8 13.1-13.1 13.1zm98.6-50.3c-20.5 0-37.1 16.7-37.1 37.1s16.7 37.1 37.1 37.1 37.1-16.7 37.1-37.1-16.6-37.1-37.1-37.1zm0 50.3c-7.2 0-13.1-5.9-13.1-13.1s5.9-13.1 13.1-13.1 13.1 5.9 13.1 13.1-5.9 13.1-13.1 13.1zm-197.2-50.3c-20.5 0-37.1 16.7-37.1 37.1s16.7 37.1 37.1 37.1 37.1-16.7 37.1-37.1-16.6-37.1-37.1-37.1zm0 50.3c-7.2 0-13.1-5.9-13.1-13.1s5.9-13.1 13.1-13.1 13.1 5.9 13.1 13.1c.1 7.2-5.8 13.1-13.1 13.1zm98.6 44.1c-20.5 0-37.1 16.7-37.1 37.1s16.7 37.1 37.1 37.1 37.1-16.7 37.1-37.1-16.6-37.1-37.1-37.1zm0 50.2c-7.2 0-13.1-5.9-13.1-13.1s5.9-13.1 13.1-13.1 13.1 5.9 13.1 13.1-5.8 13.1-13.1 13.1zm98.6-50.2c-20.5 0-37.1 16.7-37.1 37.1s16.7 37.1 37.1 37.1 37.1-16.7 37.1-37.1-16.6-37.1-37.1-37.1zm0 50.2c-7.2 0-13.1-5.9-13.1-13.1s5.9-13.1 13.1-13.1 13.1 5.9 13.1 13.1-5.9 13.1-13.1 13.1zm-197.2-50.2c-20.5 0-37.1 16.7-37.1 37.1s16.7 37.1 37.1 37.1 37.1-16.7 37.1-37.1-16.6-37.1-37.1-37.1zm0 50.2c-7.2 0-13.1-5.9-13.1-13.1s5.9-13.1 13.1-13.1 13.1 5.9 13.1 13.1-5.8 13.1-13.1 13.1z"/></svg>