<svg xmlns="http://www.w3.org/2000/svg" viewBox="0 0 486.1 486.1"><path d="M414.8 71.25C368.9 25.35 307.9.05 243 .05s-125.9 25.3-171.8 71.2S0 178.15 0 243.05s25.3 125.9 71.2 171.8 106.9 71.2 171.8 71.2c37.7 0 72.1-7 99.4-20.1 25.9-12.5 44.7-30.4 53-50.3 9.9-23.9 4.3-48.8-15.3-68.4l-.7-.7c.3-.4.7-.7 1-1 14-14.7 14-34-.2-48.2l-34.6-34.6c-6.8-7-15-10.8-23.7-10.8s-17 3.7-24 10.7l-18 18c-.9-.5-1.7-.9-2.6-1.3-2.2-1.1-4.2-2.1-5.9-3.2-18.3-11.6-34.9-26.8-50.8-46.3-7-8.8-11.8-16.3-15.4-23.7 4.5-4.2 8.7-8.5 12.8-12.7 1.7-1.8 3.5-3.5 5.3-5.3 14.7-14.7 14.7-33.7 0-48.4l-17.1-17.1c-2-2-3.9-3.9-5.8-5.9-3.8-3.9-7.7-7.9-11.9-11.8-6.8-6.7-14.9-10.2-23.5-10.2s-16.8 3.5-23.8 10.2l-.2.2-21.5 21.5c-8.6 8.6-13.6 19.2-14.6 31.4-1.5 19 4 36.6 8.3 48.1 10.3 27.8 25.7 53.6 48.6 81.2 27.8 33.2 61.3 59.5 99.6 78 14.7 7 34.4 15.2 56.6 16.7 1.4.1 2.8.1 4.2.1 15.5 0 28.6-5.6 38.8-16.7l.4-.4c.3-.4.7-.8 1.1-1.2l.6.6c12.8 12.8 16.3 27.4 10.1 42.3-11.5 27.3-56.2 55.3-130.2 55.3-120.8 0-219-98.2-219-219s98.2-219 219-219 219 98.2 219 219c0 19.9-2.7 39.5-7.9 58.4-1.8 6.4 2 13 8.4 14.8s13-2 14.8-8.4c5.8-21 8.8-42.8 8.8-64.8-.1-64.9-25.4-125.9-71.3-171.8zm-71.6 277.9c-5.7 6.1-12.1 8.8-21 8.8-.9 0-1.8 0-2.7-.1-18-1.2-35-8.3-47.7-14.4-35.1-17-65.9-41.1-91.5-71.7-21.1-25.4-35.2-48.9-44.6-74.1-5.6-15.2-7.7-26.8-6.9-37.8.6-6.5 3-11.8 7.7-16.4l21.5-21.4c1.7-1.6 4.3-3.5 7.1-3.5s5.2 1.8 6.7 3.4l.3.3c3.8 3.5 7.4 7.2 11.2 11.1 2 2 4 4.1 6 6.1l17.1 17.1c5.3 5.3 5.3 9.2 0 14.5l-5.4 5.4c-5.3 5.3-10.2 10.4-15.6 15.2-.2.1-.3.3-.5.5-7.5 7.5-4.9 15.3-4.1 17.9.1.3.2.5.3.8 4.6 11.1 11 21.5 20.8 33.9l.1.1c17.6 21.7 36.1 38.5 56.6 51.5 2.7 1.7 5.4 3.1 8 4.4 2.2 1.1 4.2 2.1 5.9 3.2.3.2.7.4 1.1.6 2.6 1.3 5.2 1.9 7.8 1.9 4.4 0 8.5-1.8 12-5.4l21.5-21.5c1.7-1.7 4.2-3.7 7-3.7 2.6 0 5 1.9 6.5 3.5l.2.2 34.6 34.6c4.9 4.9 4.9 9.4-.2 14.7l-.1.1c-2.3 2.5-4.8 4.9-7.5 7.5-4 3.9-8.2 8-12.2 12.7z"/></svg>