<svg xmlns="http://www.w3.org/2000/svg" viewBox="0 0 477.3 477.3"><path d="M451.3 150.55c-15.9-17.2-38.5-26.6-63.6-26.6h-65.5v-36.8c0-6.6-5.4-12-12-12H12c-6.6 0-12 5.4-12 12v263.9c0 6.6 5.4 12 12 12h47.8c3.9 22.2 23.2 39.1 46.5 39.1s42.6-16.9 46.5-39.1H336.5c3.9 22.2 23.2 39.1 46.5 39.1s42.6-16.9 46.5-39.1h35.8c6.6 0 12-5.4 12-12v-124c-.1-31.7-9-58.2-26-76.5zM24 99.15h274.2v240H150.7c-6.5-18.2-24-31.3-44.4-31.3s-37.9 13.1-44.4 31.3H24v-240zm82.3 279c-12.8 0-23.2-10.4-23.2-23.2 0-12.8 10.4-23.2 23.2-23.2s23.2 10.4 23.2 23.2-10.4 23.2-23.2 23.2zm276.7 0c-12.8 0-23.2-10.4-23.2-23.2 0-12.8 10.4-23.2 23.2-23.2 12.8 0 23.2 10.4 23.2 23.2s-10.4 23.2-23.2 23.2zm70.2-39.1h-25.8c-6.5-18.2-24-31.3-44.4-31.3s-37.9 13.1-44.4 31.3h-16.3v-191.1h65.5c40.4 0 65.5 30.3 65.5 79.1v112h-.1z"/></svg>