<svg xmlns="http://www.w3.org/2000/svg" viewBox="0 0 485.501 485.501"><path d="M466.1 199.901c-12.1-13-29.2-20.2-48.2-20.2h-43.7v-23c0-.4 0-.8-.1-1.1 0-.2-.1-.4-.1-.5 0-.2-.1-.4-.1-.6 0-.2-.1-.4-.1-.6 0-.2-.1-.4-.1-.5-.1-.2-.1-.4-.2-.6-.1-.2-.1-.4-.2-.5-.1-.2-.2-.3-.2-.5-.1-.2-.2-.4-.3-.5-.1-.2-.2-.3-.3-.5-.1-.2-.2-.4-.3-.5-.1-.2-.2-.3-.4-.5-.1-.1-.2-.3-.3-.4-.2-.3-.5-.6-.7-.8l-.1-.1-45.2-45.6c-2.3-2.3-5.3-3.5-8.5-3.5H193.1c-3.2 0-6.2 1.3-8.5 3.5l-45.2 45.2-.1.1c-.3.3-.5.5-.7.8-.1.1-.2.3-.3.4-.1.2-.3.3-.4.5-.1.2-.2.4-.3.5-.1.2-.2.3-.3.5s-.2.4-.3.5c-.1.2-.2.3-.2.5-.1.2-.1.4-.2.5-.1.2-.1.4-.2.6-.1.2-.1.4-.1.5-.1.2-.1.4-.1.6 0 .2-.1.4-.1.6 0 .2-.1.4-.1.5 0 .4-.1.8-.1 1.1v189.7c0 6.6 5.4 12 12 12h31.6c4.1 16.1 18.8 28.1 36.1 28.1s32-12 36.1-28.1H378.3c4.1 16.1 18.8 28.1 36.1 28.1 17.4 0 32-12 36.1-28.1h23c6.6 0 12-5.4 12-12v-89.2c.1-23.3-6.6-43.1-19.4-56.9zm-132.8-55.2h-67.7v-21.2H312l21.3 21.2zm-135.2-21.3h43.5v21.2h-64.7l21.2-21.2zm-38.2 45.3h190.3v165.6H249.9c-5.7-13.2-18.9-22.5-34.2-22.5-15.4 0-28.6 9.3-34.3 22.6-.5-.1-1-.1-1.6-.1h-19.9v-165.6zm55.8 193.7c-7.3 0-13.3-6-13.3-13.3s6-13.3 13.3-13.3 13.3 6 13.3 13.3-6 13.3-13.3 13.3zm198.8 0c-7.3 0-13.3-6-13.3-13.3s6-13.3 13.3-13.3 13.3 6 13.3 13.3-5.9 13.3-13.3 13.3zm47.1-28.1h-12.8c-5.7-13.2-18.9-22.5-34.2-22.5-15.3 0-28.5 9.3-34.2 22.5h-6.1v-130.6H418c27.4 0 43.7 20 43.7 53.5v77.1h-.1zM114.2 192.801H48.5c-6.6 0-12 5.4-12 12s5.4 12 12 12h65.7c6.6 0 12-5.4 12-12s-5.4-12-12-12zM114.2 239.501H12c-6.6 0-12 5.4-12 12s5.4 12 12 12h102.2c6.6 0 12-5.4 12-12s-5.4-12-12-12zM114.2 286.201H48.5c-6.6 0-12 5.4-12 12s5.4 12 12 12h65.7c6.6 0 12-5.4 12-12s-5.4-12-12-12z"/></svg>